{
.appVersion = "1357";
classes = (
{
automatic = 1;

glyphs = (
{
glyphname = A;
lastChange = "2021-11-24 08:20:33 +0000";
layers = (
{
anchors = (
{
name = bottom;
position = "{540, 0}";
},
{
name = ogonek;
position = "{1064, 0}";
},
{
name = top;
position = "{540, 1474}";
}
);
guideLines = (
{
angle = 67.5;
position = "{-132, -200}";
}
);
layerId = "AB099EFE-E788-4EFC-8633-CF147CB782A6";
paths = (
{
closed = 1;
nodes = (
"16 0 LINE",
"82 0 LINE",
"244 496 LINE",
"256 518 LINE",
"536 1386 LINE",
"544 1386 LINE",
"824 518 LINE",
"836 496 LINE",
"998 0 LINE",
"1064 0 LINE",
"576 1474 LINE",
"504 1474 LINE"
);
},
{
closed = 1;
nodes = (
"216 476 LINE",
"864 476 LINE",
"864 536 LINE",
"216 536 LINE"
);
}
);
width = 1080;
},
{
anchors = (
{
name = bottom;
position = "{540, 0}";
},
{
name = ogonek;
position = "{1100, 0}";
},
{
name = top;
position = "{540, 1474}";
}
);
guideLines = (
{
angle = 67.5;
position = "{-130, -200}";
}
);
layerId = "2D8F7115-C311-411E-929D-56333CF7FFB2";
paths = (
{
closed = 1;
nodes = (
"-20 0 LINE",
"350 0 LINE",
"418 360 LINE",
"444 504 LINE",
"536 1052 LINE",
"544 1052 LINE",
"636 504 LINE",
"662 360 LINE",
"730 0 LINE",
"1100 0 LINE",
"720 1474 LINE",
"360 1474 LINE"
);
},
{
closed = 1;
nodes = (
"264 270 LINE",
"816 270 LINE",
"816 570 LINE",
"264 570 LINE"
);
}
);
width = 1080;
},
{
anchors = (
{
name = bottom;
position = "{540, 0}";
},
{
name = ogonek;
position = "{1080, 0}";
},
{
name = top;
position = "{540, 1474}";
}
);
layerId = "FD1CEFBD-BAB1-4C2A-A598-30E93F9A29F6";
paths = (
{
closed = 1;
nodes = (
"0 0 LINE",
"190 0 LINE",
"316 440 LINE",
"334 504 LINE",
"536 1228 LINE",
"544 1228 LINE",
"746 504 LINE",
"764 440 LINE",
"890 0 LINE",
"1080 0 LINE",
"630 1474 LINE",
"450 1474 LINE"
);
},
{
closed = 1;
nodes = (
"234 386 LINE",
"846 386 LINE",
"846 550 LINE",
"234 550 LINE"
);
}
);
width = 1080;
}
);
unicode = 0041;
},
{
glyphname = AE;
lastChange = "2021-11-24 03:35:53 +0000";
layers = (
{
anchors = (
{
name = bottom;
position = "{668, 0}";
},
{
name = top;
position = "{692, 1474}";
}
);
layerId = "AB099EFE-E788-4EFC-8633-CF147CB782A6";
paths = (
{
closed = 1;
nodes = (
"-104 0 LINE",
"-36 0 LINE",
"158 496 LINE",
"498 1390 LINE",
"534 1390 LINE",
"524 1474 LINE",
"476 1474 LINE"
);
},
{
closed = 1;
nodes = (
"130 476 LINE",
"582 476 LINE",
"582 536 LINE",
"130 536 LINE"
);
},
{
closed = 1;
nodes = (
"558 1414 LINE",
"1094 1414 LINE",
"1094 1474 LINE",
"496 1474 LINE",
"554 500 LINE",
"584 0 LINE",
"1094 0 LINE",
"1094 60 LINE",
"640 60 LINE"
);
},
{
closed = 1;
nodes = (
"1026 726 LINE",
"1026 786 LINE",
"582 786 LINE",
"590 726 LINE"
);
}
);
width = 1080;
},
{
anchors = (
{
name = bottom;
position = "{690, 0}";
},
{
name = top;
position = "{684, 1474}";
}
);
background = {
components = (
{
name = A;
transform = "{1, 0, 0.03492, 1, -8, 0}";
}
);
};
layerId = "2D8F7115-C311-411E-929D-56333CF7FFB2";
paths = (
{
closed = 1;
nodes = (
"-136 0 LINE",
"210 0 LINE",
"342 480 LINE",
"494 1156 LINE",
"520 1156 LINE",
"506 1474 LINE",
"322 1474 LINE"
);
},
{
closed = 1;
nodes = (
"178 270 LINE",
"702 270 LINE",
"702 570 LINE",
"178 570 LINE"
);
},
{
closed = 1;
nodes = (
"804 1146 LINE",
"1142 1146 LINE",
"1142 1474 LINE",
"502 1474 LINE",
"526 450 LINE",
"542 0 LINE",
"1142 0 LINE",
"1142 328 LINE",
"826 328 LINE"
);
},
{
closed = 1;
nodes = (
"1082 586 LINE",
"1082 902 LINE",
"786 902 LINE",
"800 586 LINE"
);
}
);
width = 1080;
},
{
anchors = (
{
name = bottom;
position = "{678, 0}";
},
{
name = top;
position = "{688, 1474}";
}
);
layerId = "FD1CEFBD-BAB1-4C2A-A598-30E93F9A29F6";
paths = (
{
closed = 1;
nodes = (
"-114 0 LINE",
"72 0 LINE",
"240 492 LINE",
"500 1302 LINE",
"528 1302 LINE",
"518 1474 LINE",
"412 1474 LINE"
);
},
{
closed = 1;
nodes = (
"152 386 LINE",
"640 386 LINE",
"640 550 LINE",
"152 550 LINE"
);
},
{
closed = 1;
nodes = (
"664 1310 LINE",
"1112 1310 LINE",
"1112 1474 LINE",
"500 1474 LINE",
"542 484 LINE",
"564 0 LINE",
"1112 0 LINE",
"1112 164 LINE",
"716 164 LINE"
);
},
{
closed = 1;
nodes = (
"1050 668 LINE",
"1050 832 LINE",
"668 832 LINE",
"680 668 LINE"
);
}
);
width = 1080;
}
);
rightMetricsKey = E;
unicode = 00C6;
},
{
glyphname = B;
lastChange = "2021-11-24 03:35:53 +0000";
layers = (
{
anchors = (
{
name = bottom;
position = "{532, 0}";
},
{
name = center;
position = "{230, 422}";
},
{
name = top;
position = "{526, 1474}";
}
);
layerId = "AB099EFE-E788-4EFC-8633-CF147CB782A6";
paths = (
{
closed = 1;
nodes = (
"554 0 LINE SMOOTH",
"798 0 OFFCURVE",
"956 156 OFFCURVE",
"956 394 CURVE SMOOTH",
"956 592 OFFCURVE",
"846 738 OFFCURVE",
"666 774 CURVE",
"666 762 LINE",
"786 824 OFFCURVE",
"856 952 OFFCURVE",
"856 1098 CURVE SMOOTH",
"856 1324 OFFCURVE",
"714 1474 OFFCURVE",
"514 1474 CURVE SMOOTH",
"218 1474 LINE",
"218 1414 LINE",
"514 1414 LINE SMOOTH",
"674 1414 OFFCURVE",
"792 1290 OFFCURVE",
"792 1098 CURVE SMOOTH",
"792 914 OFFCURVE",
"672 786 OFFCURVE",
"514 786 CURVE SMOOTH",
"218 786 LINE",
"218 726 LINE",
"552 726 LINE SMOOTH",
"760 726 OFFCURVE",
"892 598 OFFCURVE",
"892 394 CURVE SMOOTH",
"892 188 OFFCURVE",
"762 60 OFFCURVE",
"554 60 CURVE SMOOTH",
"248 60 LINE",
"248 0 LINE"
);
},
{
closed = 1;
nodes = (
"256 0 LINE",
"256 1474 LINE",
"192 1474 LINE",
"192 0 LINE"
);
}
);
width = 1080;
},
{
anchors = (
{
name = bottom;
position = "{578, 0}";
},
{
name = center;
position = "{270, 462}";
},
{
name = top;
position = "{502, 1474}";
}
);
layerId = "2D8F7115-C311-411E-929D-56333CF7FFB2";
paths = (
{
closed = 1;
nodes = (
"670 0 LINE SMOOTH",
"894 0 OFFCURVE",
"1066 176 OFFCURVE",
"1066 434 CURVE SMOOTH",
"1066 676 OFFCURVE",
"904 778 OFFCURVE",
"756 806 CURVE",
"746 716 LINE",
"864 766 OFFCURVE",
"970 922 OFFCURVE",
"970 1098 CURVE SMOOTH",
"970 1312 OFFCURVE",
"822 1474 OFFCURVE",
"544 1474 CURVE SMOOTH",
"428 1474 LINE",
"428 1154 LINE",
"542 1154 LINE SMOOTH",
"594 1154 OFFCURVE",
"630 1112 OFFCURVE",
"630 1020 CURVE SMOOTH",
"630 942 OFFCURVE",
"610 880 OFFCURVE",
"566 880 CURVE SMOOTH",
"428 880 LINE",
"428 610 LINE",
"636 610 LINE SMOOTH",
"674 610 OFFCURVE",
"716 558 OFFCURVE",
"716 472 CURVE SMOOTH",
"716 378 OFFCURVE",
"678 320 OFFCURVE",
"644 320 CURVE SMOOTH",
"420 320 LINE",
"420 0 LINE"
);
},
{
closed = 1;
nodes = (
"446 0 LINE",
"446 1474 LINE",
"90 1474 LINE",
"90 0 LINE"
);
}
);
width = 1080;
},
{
anchors = (
{
name = bottom;
position = "{548, 0}";
},
{
name = center;
position = "{244, 426}";
},
{
name = top;
position = "{534, 1474}";
}
);
hints = (
{
horizontal = 1;
origin = "{0, 22}";
type = Delta;
settings = {
deltaV = {
"{100, 370, 0, 0, 0, 0}" = {
"12" = -1;
};
};
};
},
{
horizontal = 1;
origin = "{0, 23}";
type = Delta;
settings = {
deltaV = {
"{100, 370, 0, 0, 0, 0}" = {
"12" = -1;
};
};
};
},
{
horizontal = 1;
origin = "{0, 24}";
type = Delta;
settings = {
deltaV = {
"{100, 370, 0, 0, 0, 0}" = {
"12" = -1;
};
};
};
},
{
horizontal = 1;
origin = "{0, 25}";
type = Delta;
settings = {
deltaV = {
"{100, 370, 0, 0, 0, 0}" = {
"12" = -1;
};
};
};
},
{
horizontal = 1;
origin = "{0, 23, 1, 1}";
type = Delta;
settings = {
deltaV = {
"{100, 370, 0, 0, 0, 0}" = {
"12" = -1;
};
};
};
},
{
horizontal = 1;
origin = "{0, 25, 1, 1}";
type = Delta;
settings = {
deltaV = {
"{100, 370, 0, 0, 0, 0}" = {
"12" = -1;
};
};
};
}
);
layerId = "FD1CEFBD-BAB1-4C2A-A598-30E93F9A29F6";
paths = (
{
closed = 1;
nodes = (
"580 0 LINE SMOOTH",
"826 0 OFFCURVE",
"988 168 OFFCURVE",
"988 406 CURVE SMOOTH",
"988 610 OFFCURVE",
"874 746 OFFCURVE",
"700 794 CURVE",
"698 750 LINE",
"806 794 OFFCURVE",
"896 940 OFFCURVE",
"896 1102 CURVE SMOOTH",
"896 1320 OFFCURVE",
"742 1474 OFFCURVE",
"496 1474 CURVE SMOOTH",
"300 1474 LINE",
"300 1310 LINE",
"502 1310 LINE SMOOTH",
"634 1310 OFFCURVE",
"722 1230 OFFCURVE",
"722 1078 CURVE SMOOTH",
"722 934 OFFCURVE",
"638 830 OFFCURVE",
"514 830 CURVE SMOOTH",
"300 830 LINE",
"300 670 LINE",
"564 670 LINE SMOOTH",
"714 670 OFFCURVE",
"810 578 OFFCURVE",
"810 418 CURVE SMOOTH",
"810 258 OFFCURVE",
"720 164 OFFCURVE",
"584 164 CURVE SMOOTH",
"316 164 LINE",
"316 0 LINE"
);
},
{
closed = 1;
nodes = (
"332 0 LINE",
"332 1474 LINE",
"156 1474 LINE",
"156 0 LINE"
);
}
);
width = 1080;
}
);
leftMetricsKey = H;
unicode = 0042;
},
{
glyphname = C;
lastChange = "2021-11-24 03:35:53 +0000";
layers = (
{
anchors = (
{
name = base;
position = "{686, 0}";
},
{
name = bottom;
position = "{654, 0}";
},
{
name = cedilla;
position = "{656, 0}";
},
{
name = top;
position = "{654, 1474}";
}
);
guideLines = (
{
angle = 67.5;
position = "{456, 360}";
},
{
angle = 112.5;
position = "{460, 360}";
}
);
layerId = "AB099EFE-E788-4EFC-8633-CF147CB782A6";
paths = (
{
closed = 1;
nodes = (
"794 -16 OFFCURVE",
"940 50 OFFCURVE",
"1032 156 CURVE",
"1004 220 LINE",
"944 134 OFFCURVE",
"806 44 OFFCURVE",
"656 44 CURVE SMOOTH",
"394 44 OFFCURVE",
"140 322 OFFCURVE",
"140 736 CURVE SMOOTH",
"140 1148 OFFCURVE",
"394 1430 OFFCURVE",
"664 1430 CURVE SMOOTH",
"784 1430 OFFCURVE",
"920 1374 OFFCURVE",
"1000 1272 CURVE",
"1028 1336 LINE",
"940 1426 OFFCURVE",
"802 1490 OFFCURVE",
"662 1490 CURVE SMOOTH",
"354 1490 OFFCURVE",
"76 1180 OFFCURVE",
"76 738 CURVE SMOOTH",
"76 324 OFFCURVE",
"332 -16 OFFCURVE",
"654 -16 CURVE SMOOTH"
);
}
);
width = 1080;
},
{
anchors = (
{
name = base;
position = "{680, 0}";
},
{
name = bottom;
position = "{674, 0}";
},
{
name = cedilla;
position = "{698, 0}";
},
{
name = top;
position = "{664, 1474}";
}
);
layerId = "2D8F7115-C311-411E-929D-56333CF7FFB2";
paths = (
{
closed = 1;
nodes = (
"818 -16 OFFCURVE",
"956 16 OFFCURVE",
"1072 94 CURVE",
"936 422 LINE",
"880 348 OFFCURVE",
"780 320 OFFCURVE",
"708 320 CURVE SMOOTH",
"514 320 OFFCURVE",
"356 496 OFFCURVE",
"356 740 CURVE SMOOTH",
"356 986 OFFCURVE",
"512 1154 OFFCURVE",
"694 1154 CURVE SMOOTH",
"794 1154 OFFCURVE",
"882 1108 OFFCURVE",
"932 1044 CURVE",
"1068 1372 LINE",
"948 1454 OFFCURVE",
"810 1490 OFFCURVE",
"692 1490 CURVE SMOOTH",
"306 1490 OFFCURVE",
"-2 1170 OFFCURVE",
"-2 740 CURVE SMOOTH",
"-2 310 OFFCURVE",
"316 -16 OFFCURVE",
"708 -16 CURVE SMOOTH"
);
}
);
width = 1080;
},
{
anchors = (
{
name = base;
position = "{684, 0}";
},
{
name = bottom;
position = "{660, 0}";
},
{
name = cedilla;
position = "{672, 0}";
},
{
name = top;
position = "{658, 1474}";
}
);
layerId = "FD1CEFBD-BAB1-4C2A-A598-30E93F9A29F6";
paths = (
{
closed = 1;
nodes = (
"806 -16 OFFCURVE",
"948 42 OFFCURVE",
"1048 136 CURVE",
"982 294 LINE",
"914 206 OFFCURVE",
"794 148 OFFCURVE",
"678 148 CURVE SMOOTH",
"432 148 OFFCURVE",
"228 406 OFFCURVE",
"228 742 CURVE SMOOTH",
"228 1090 OFFCURVE",
"448 1326 OFFCURVE",
"676 1326 CURVE SMOOTH",
"790 1326 OFFCURVE",
"908 1278 OFFCURVE",
"978 1192 CURVE",
"1044 1352 LINE",
"944 1438 OFFCURVE",
"808 1490 OFFCURVE",
"674 1490 CURVE SMOOTH",
"338 1490 OFFCURVE",
"48 1180 OFFCURVE",
"48 738 CURVE SMOOTH",
"48 304 OFFCURVE",
"334 -16 OFFCURVE",
"674 -16 CURVE SMOOTH"
);
}
);
width = 1080;
}
);
leftMetricsKey = O;
unicode = 0043;
},
{
glyphname = D;
lastChange = "2021-11-24 03:35:53 +0000";
layers = (
{
anchors = (
{
name = bottom;
position = "{538, 0}";
},
{
name = center;
position = "{174, 758}";
},
{
name = top;
position = "{534, 1474}";
}
);
layerId = "AB099EFE-E788-4EFC-8633-CF147CB782A6";
paths = (
{
closed = 1;
nodes = (
"146 0 LINE",
"504 0 LINE SMOOTH",
"802 0 OFFCURVE",
"1004 286 OFFCURVE",
"1004 752 CURVE SMOOTH",
"1004 1176 OFFCURVE",
"820 1474 OFFCURVE",
"504 1474 CURVE SMOOTH",
"146 1474 LINE"
);
},
{
closed = 1;
nodes = (
"210 60 LINE",
"210 1414 LINE",
"500 1414 LINE SMOOTH",
"752 1414 OFFCURVE",
"940 1166 OFFCURVE",
"940 752 CURVE SMOOTH",
"940 358 OFFCURVE",
"774 60 OFFCURVE",
"500 60 CURVE SMOOTH"
);
}
);
width = 1080;
},
{
anchors = (
{
name = bottom;
position = "{514, 0}";
},
{
name = center;
position = "{254, 738}";
},
{
name = top;
position = "{518, 1474}";
}
);
layerId = "2D8F7115-C311-411E-929D-56333CF7FFB2";
paths = (
{
closed = 1;
nodes = (
"66 0 LINE",
"506 0 LINE SMOOTH",
"768 0 OFFCURVE",
"1098 238 OFFCURVE",
"1098 746 CURVE SMOOTH",
"1098 1250 OFFCURVE",
"764 1474 OFFCURVE",
"478 1474 CURVE SMOOTH",
"66 1474 LINE"
);
},
{
closed = 1;
nodes = (
"414 328 LINE",
"414 1146 LINE",
"520 1146 LINE SMOOTH",
"568 1146 OFFCURVE",
"750 1062 OFFCURVE",
"750 746 CURVE SMOOTH",
"750 428 OFFCURVE",
"568 328 OFFCURVE",
"520 328 CURVE SMOOTH"
);
}
);
width = 1080;
},
{
anchors = (
{
name = bottom;
position = "{524, 0}";
},
{
name = center;
position = "{206, 750}";
},
{
name = top;
position = "{524, 1474}";
}
);
layerId = "FD1CEFBD-BAB1-4C2A-A598-30E93F9A29F6";
paths = (
{
closed = 1;
nodes = (
"114 0 LINE",
"502 0 LINE SMOOTH",
"794 0 OFFCURVE",
"1038 290 OFFCURVE",
"1038 750 CURVE SMOOTH",
"1038 1198 OFFCURVE",
"794 1476 OFFCURVE",
"490 1476 CURVE SMOOTH",
"114 1476 LINE"
);
},
{
closed = 1;
nodes = (
"292 164 LINE",
"292 1312 LINE",
"506 1312 LINE SMOOTH",
"688 1312 OFFCURVE",
"860 1102 OFFCURVE",
"860 750 CURVE SMOOTH",
"860 390 OFFCURVE",
"688 164 OFFCURVE",
"506 164 CURVE SMOOTH"
);
}
);
width = 1080;
}
);
leftMetricsKey = H;
rightMetricsKey = O;
unicode = 0044;
},
{
glyphname = E;
lastChange = "2021-11-24 03:35:53 +0000";
layers = (
{
anchors = (
{
name = bottom;
position = "{586, 0}";
},
{
name = cedilla;
position = "{576, 0}";
},
{
name = ogonek;
position = "{932, 0}";
},
{
name = top;
position = "{576, 1474}";
},
{
name = topleft;
position = "{66, 1474}";
}
);
hints = (
{
horizontal = 1;
origin = "{0, 0}";
target = "{0, 3}";
type = TTStem;
options = 4;
},
{
horizontal = 1;
origin = "{0, 4}";
target = "{0, 7}";
type = TTStem;
options = 1;
},
{
horizontal = 1;
origin = "{0, 11}";
target = "{0, 8}";
type = TTStem;
options = 4;
},
{
horizontal = 1;
origin = "{0, 5}";
type = Anchor;
options = 1;
},
{
horizontal = 1;
origin = "{0, 4}";
type = Anchor;
options = 1;
},
{
horizontal = 1;
origin = "{0, 5}";
type = Anchor;
options = 1;
},
{
horizontal = 1;
origin = "{0, 6}";
type = Anchor;
options = 1;
},
{
horizontal = 1;
origin = "{0, 7}";
type = Anchor;
options = 1;
}
);
layerId = "AB099EFE-E788-4EFC-8633-CF147CB782A6";
paths = (
{
closed = 1;
nodes = (
"218 0 LINE",
"932 0 LINE",
"932 60 LINE",
"282 60 LINE",
"282 726 LINE",
"840 726 LINE",
"840 786 LINE",
"282 786 LINE",
"282 1414 LINE",
"932 1414 LINE",
"932 1474 LINE",
"218 1474 LINE"
);
}
);
width = 1080;
},
{
anchors = (
{
name = bottom;
position = "{580, 0}";
},
{
name = cedilla;
position = "{576, 0}";
},
{
name = ogonek;
position = "{982, 0}";
},
{
name = top;
position = "{576, 1474}";
},
{
name = topleft;
position = "{48, 1474}";
}
);
hints = (
{
horizontal = 1;
origin = "{0, 0}";
target = "{0, 3}";
type = TTStem;
options = 4;
},
{
horizontal = 1;
origin = "{0, 4}";
target = "{0, 7}";
type = TTStem;
options = 1;
},
{
horizontal = 1;
origin = "{0, 11}";
target = "{0, 8}";
type = TTStem;
options = 4;
},
{
horizontal = 1;
origin = "{0, 5}";
type = Anchor;
options = 1;
},
{
horizontal = 1;
origin = "{0, 4}";
type = Anchor;
options = 1;
},
{
horizontal = 1;
origin = "{0, 5}";
type = Anchor;
options = 1;
},
{
horizontal = 1;
origin = "{0, 6}";
type = Anchor;
options = 1;
},
{
horizontal = 1;
origin = "{0, 7}";
type = Anchor;
options = 1;
}
);
layerId = "2D8F7115-C311-411E-929D-56333CF7FFB2";
paths = (
{
closed = 1;
nodes = (
"142 0 LINE",
"986 0 LINE",
"986 328 LINE",
"524 328 LINE",
"524 586 LINE",
"902 586 LINE",
"902 902 LINE",
"524 902 LINE",
"524 1146 LINE",
"986 1146 LINE",
"986 1474 LINE",
"142 1474 LINE"
);
}
);
width = 1080;
},
{
anchors = (
{
name = bottom;
position = "{582, 0}";
},
{
name = cedilla;
position = "{572, 0}";
},
{
name = ogonek;
position = "{946, 0}";
},
{
name = top;
position = "{572, 1474}";
},
{
name = topleft;
position = "{54, 1474}";
}
);
hints = (
{
horizontal = 1;
origin = "{0, 0}";
target = "{0, 3}";
type = TTStem;
options = 4;
},
{
horizontal = 1;
origin = "{0, 4}";
target = "{0, 7}";
type = TTStem;
options = 1;
},
{
horizontal = 1;
origin = "{0, 11}";
target = "{0, 8}";
type = TTStem;
options = 4;
},
{
horizontal = 1;
origin = "{0, 5}";
type = Anchor;
options = 1;
},
{
horizontal = 1;
origin = "{0, 4}";
type = Anchor;
options = 1;
},
{
horizontal = 1;
origin = "{0, 5}";
type = Anchor;
options = 1;
},
{
horizontal = 1;
origin = "{0, 6}";
type = Anchor;
options = 1;
},
{
horizontal = 1;
origin = "{0, 7}";
type = Anchor;
options = 1;
}
);
layerId = "FD1CEFBD-BAB1-4C2A-A598-30E93F9A29F6";
paths = (
{
closed = 1;
nodes = (
"186 0 LINE",
"952 0 LINE",
"952 164 LINE",
"368 164 LINE",
"368 668 LINE",
"860 668 LINE",
"860 832 LINE",
"368 832 LINE",
"368 1310 LINE",
"952 1310 LINE",
"952 1474 LINE",
"186 1474 LINE"
);
}
);
width = 1080;
}
);
leftMetricsKey = H;
unicode = 0045;
},
{
glyphname = F;
lastChange = "2021-11-24 03:35:53 +0000";
layers = (
{
anchors = (
{
name = bottom;
position = "{274, 0}";
},
{
name = center;
position = "{274, 376}";
},
{
name = top;
position = "{646, 1474}";
}
);
layerId = "AB099EFE-E788-4EFC-8633-CF147CB782A6";
paths = (
{
closed = 1;
nodes = (
"242 0 LINE",
"306 0 LINE",
"306 726 LINE",
"900 726 LINE",
"900 786 LINE",
"306 786 LINE",
"306 1414 LINE",
"980 1414 LINE",
"980 1474 LINE",
"242 1474 LINE"
);
}
);
width = 1080;
},
{
anchors = (
{
name = bottom;
position = "{348, 0}";
},
{
name = center;
position = "{348, 290}";
},
{
name = top;
position = "{650, 1474}";
}
);
layerId = "2D8F7115-C311-411E-929D-56333CF7FFB2";
paths = (
{
closed = 1;
nodes = (
"154 0 LINE",
"542 0 LINE",
"542 524 LINE",
"934 524 LINE",
"934 852 LINE",
"542 852 LINE",
"542 1146 LINE",
"1022 1146 LINE",
"1022 1474 LINE",
"154 1474 LINE"
);
}
);
width = 1080;
},
{
anchors = (
{
name = bottom;
position = "{300, 0}";
},
{
name = center;
position = "{300, 344}";
},
{
name = top;
position = "{646, 1474}";
}
);
layerId = "FD1CEFBD-BAB1-4C2A-A598-30E93F9A29F6";
paths = (
{
closed = 1;
nodes = (
"208 0 LINE",
"390 0 LINE",
"390 646 LINE",
"912 646 LINE",
"912 810 LINE",
"390 810 LINE",
"390 1310 LINE",
"998 1310 LINE",
"998 1474 LINE",
"208 1474 LINE"
);
}
);
width = 1080;
}
);
leftMetricsKey = H;
unicode = 0046;
},
{
glyphname = G;
lastChange = "2021-11-25 02:37:13 +0000";
layers = (
{
anchors = (
{
name = bottom;
position = "{548, 0}";
},
{
name = hook;
position = "{904, 1336}";
},
{
name = top;
position = "{546, 1474}";
}
);
layerId = "AB099EFE-E788-4EFC-8633-CF147CB782A6";
paths = (
{
closed = 1;
nodes = (
"872 -16 OFFCURVE",
"1020 272 OFFCURVE",
"1020 704 CURVE SMOOTH",
"1020 758 LINE",
"540 758 LINE",
"540 698 LINE",
"958 698 LINE",
"958 348 OFFCURVE",
"854 44 OFFCURVE",
"558 44 CURVE SMOOTH",
"282 44 OFFCURVE",
"128 316 OFFCURVE",
"128 730 CURVE SMOOTH",
"128 1156 OFFCURVE",
"280 1430 OFFCURVE",
"578 1430 CURVE SMOOTH",
"704 1430 OFFCURVE",
"836 1380 OFFCURVE",
"920 1272 CURVE",
"948 1336 LINE",
"868 1418 OFFCURVE",
"734 1490 OFFCURVE",
"570 1490 CURVE SMOOTH",
"238 1490 OFFCURVE",
"64 1196 OFFCURVE",
"64 738 CURVE SMOOTH",
"64 280 OFFCURVE",
"246 -16 OFFCURVE",
"560 -16 CURVE SMOOTH"
);
}
);
width = 1080;
},
{
anchors = (
{
name = bottom;
position = "{546, 0}";
},
{
name = hook;
position = "{884, 1372}";
},
{
name = top;
position = "{552, 1474}";
}
);
layerId = "2D8F7115-C311-411E-929D-56333CF7FFB2";
paths = (
{
closed = 1;
nodes = (
"876 -16 OFFCURVE",
"1052 246 OFFCURVE",
"1052 622 CURVE SMOOTH",
"1052 872 LINE",
"548 872 LINE",
"548 568 LINE",
"722 568 LINE",
"722 418 OFFCURVE",
"660 320 OFFCURVE",
"566 320 CURVE SMOOTH",
"434 320 OFFCURVE",
"410 486 OFFCURVE",
"410 734 CURVE SMOOTH",
"410 994 OFFCURVE",
"434 1148 OFFCURVE",
"596 1148 CURVE SMOOTH",
"672 1148 OFFCURVE",
"786 1114 OFFCURVE",
"822 1056 CURVE",
"958 1378 LINE",
"854 1446 OFFCURVE",
"714 1490 OFFCURVE",
"582 1490 CURVE SMOOTH",
"216 1490 OFFCURVE",
"42 1190 OFFCURVE",
"42 728 CURVE SMOOTH",
"42 278 OFFCURVE",
"206 -16 OFFCURVE",
"550 -16 CURVE SMOOTH"
);
}
);
width = 1080;
},
{
anchors = (
{
name = bottom;
position = "{588, 0}";
},
{
name = hook;
position = "{918, 1352}";
},
{
name = top;
position = "{580, 1474}";
}
);
layerId = "FD1CEFBD-BAB1-4C2A-A598-30E93F9A29F6";
paths = (
{
closed = 1;
nodes = (
"862 -16 OFFCURVE",
"1028 266 OFFCURVE",
"1028 674 CURVE SMOOTH",
"1028 800 LINE",
"546 800 LINE",
"546 640 LINE",
"856 640 LINE",
"856 352 OFFCURVE",
"758 144 OFFCURVE",
"568 144 CURVE SMOOTH",
"350 144 OFFCURVE",
"232 376 OFFCURVE",
"232 734 CURVE SMOOTH",
"232 1094 OFFCURVE",
"362 1330 OFFCURVE",
"596 1330 CURVE SMOOTH",
"700 1330 OFFCURVE",
"816 1274 OFFCURVE",
"880 1188 CURVE",
"948 1352 LINE",
"856 1430 OFFCURVE",
"722 1490 OFFCURVE",
"584 1490 CURVE SMOOTH",
"250 1490 OFFCURVE",
"56 1192 OFFCURVE",
"56 732 CURVE SMOOTH",
"56 278 OFFCURVE",
"244 -16 OFFCURVE",
"566 -16 CURVE SMOOTH"
);
}
);
width = 1080;
}
);
leftMetricsKey = O;
unicode = 0047;
},
{
glyphname = H;
lastChange = "2021-11-24 03:35:53 +0000";
layers = (
{
anchors = (
{
name = bottom;
position = "{538, 0}";
},
{
name = center;
position = "{538, 1086}";
},
{
name = top;
position = "{538, 1474}";
}
);
layerId = "AB099EFE-E788-4EFC-8633-CF147CB782A6";
paths = (
{
closed = 1;
nodes = (
"148 0 LINE",
"212 0 LINE",
"212 726 LINE",
"868 726 LINE",
"868 0 LINE",
"932 0 LINE",
"932 1474 LINE",
"868 1474 LINE",
"868 786 LINE",
"212 786 LINE",
"212 1474 LINE",
"148 1474 LINE"
);
}
);
width = 1080;
},
{
anchors = (
{
name = bottom;
position = "{540, 0}";
},
{
name = center;
position = "{540, 1184}";
},
{
name = top;
position = "{540, 1474}";
}
);
layerId = "2D8F7115-C311-411E-929D-56333CF7FFB2";
paths = (
{
closed = 1;
nodes = (
"52 0 LINE",
"412 0 LINE",
"412 578 LINE",
"668 578 LINE",
"668 0 LINE",
"1028 0 LINE",
"1028 1474 LINE",
"668 1474 LINE",
"668 906 LINE",
"412 906 LINE",
"412 1474 LINE",
"52 1474 LINE"
);
}
);
width = 1080;
},
{
anchors = (
{
name = bottom;
position = "{542, 0}";
},
{
name = center;
position = "{542, 1122}";
},
{
name = top;
position = "{542, 1474}";
}
);
layerId = "FD1CEFBD-BAB1-4C2A-A598-30E93F9A29F6";
paths = (
{
closed = 1;
nodes = (
"112 0 LINE",
"292 0 LINE",
"292 672 LINE",
"788 672 LINE",
"788 0 LINE",
"968 0 LINE",
"968 1474 LINE",
"788 1474 LINE",
"788 836 LINE",
"292 836 LINE",
"292 1474 LINE",
"112 1474 LINE"
);
}
);
width = 1080;
}
);
unicode = 0048;
},
{
color = 10;
glyphname = I.ss03;
lastChange = "2021-11-24 01:47:42 +0000";
layers = (
{
anchors = (
{
name = bottom;
position = "{586, 0}";
},
{
name = ogonek;
position = "{1018, 0}";
},
{
name = top;
position = "{586, 1474}";
}
);
layerId = "AB099EFE-E788-4EFC-8633-CF147CB782A6";
paths = (
{
closed = 1;
nodes = (
"560 0 LINE",
"624 0 LINE",
"624 1474 LINE",
"560 1474 LINE"
);
},
{
closed = 1;
nodes = (
"166 1416 LINE",
"1018 1416 LINE",
"1018 1474 LINE",
"166 1474 LINE"
);
},
{
closed = 1;
nodes = (
"166 0 LINE",
"1018 0 LINE",
"1018 60 LINE",
"166 60 LINE"
);
}
);
width = 1184;
},
{
anchors = (
{
name = bottom;
position = "{592, 0}";
},
{
name = ogonek;
position = "{1054, 0}";
},
{
name = top;
position = "{592, 1474}";
}
);
layerId = "2D8F7115-C311-411E-929D-56333CF7FFB2";
paths = (
{
closed = 1;
nodes = (
"392 0 LINE",
"794 0 LINE",
"794 1474 LINE",
"392 1474 LINE"
);
},
{
closed = 1;
nodes = (
"130 1154 LINE",
"1054 1154 LINE",
"1054 1474 LINE",
"130 1474 LINE"
);
},
{
closed = 1;
nodes = (
"130 0 LINE",
"1054 0 LINE",
"1054 320 LINE",
"130 320 LINE"
);
}
);
width = 1184;
},
{
anchors = (
{
name = bottom;
position = "{592, 0}";
},
{
name = ogonek;
position = "{1020, 0}";
},
{
name = top;
position = "{592, 1474}";
}
);
layerId = "FD1CEFBD-BAB1-4C2A-A598-30E93F9A29F6";
paths = (
{
closed = 1;
nodes = (
"504 0 LINE",
"682 0 LINE",
"682 1474 LINE",
"504 1474 LINE"
);
},
{
closed = 1;
nodes = (
"166 1314 LINE",
"1020 1314 LINE",
"1020 1474 LINE",
"166 1474 LINE"
);
},
{
closed = 1;
nodes = (
"166 0 LINE",
"1020 0 LINE",
"1020 160 LINE",
"166 160 LINE"
);
}
);
width = 1184;
}
);
},
{
glyphname = J;
lastChange = "2021-11-24 03:35:53 +0000";
layers = (
{
anchors = (
{
name = bottom;
position = "{486, 0}";
},
{
name = top;
position = "{762, 1474}";
}
);
layerId = "AB099EFE-E788-4EFC-8633-CF147CB782A6";
paths = (
{
closed = 1;
nodes = (
"746 152 OFFCURVE",
"602 44 OFFCURVE",
"434 44 CURVE SMOOTH",
"256 44 OFFCURVE",
"138 166 OFFCURVE",
"136 346 CURVE",
"74 346 LINE",
"78 142 OFFCURVE",
"214 -16 OFFCURVE",
"434 -16 CURVE SMOOTH",
"644 -16 OFFCURVE",
"810 124 OFFCURVE",
"810 434 CURVE SMOOTH",
"810 1474 LINE",
"746 1474 LINE",
"746 430 LINE SMOOTH"
);
}
);
width = 1080;
},
{
anchors = (
{
name = bottom;
position = "{532, 0}";
},
{
name = top;
position = "{744, 1474}";
}
);
layerId = "2D8F7115-C311-411E-929D-56333CF7FFB2";
paths = (
{
closed = 1;
nodes = (
"562 374 OFFCURVE",
"526 312 OFFCURVE",
"468 312 CURVE SMOOTH",
"410 312 OFFCURVE",
"364 382 OFFCURVE",
"366 496 CURVE",
"12 496 LINE",
"10 196 OFFCURVE",
"182 -16 OFFCURVE",
"476 -16 CURVE SMOOTH",
"760 -16 OFFCURVE",
"940 172 OFFCURVE",
"940 466 CURVE SMOOTH",
"940 1474 LINE",
"562 1474 LINE",
"562 462 LINE SMOOTH"
);
}
);
width = 1080;
},
{
anchors = (
{
name = bottom;
position = "{490, 0}";
},
{
name = top;
position = "{760, 1474}";
}
);
layerId = "FD1CEFBD-BAB1-4C2A-A598-30E93F9A29F6";
paths = (
{
closed = 1;
nodes = (
"678 240 OFFCURVE",
"576 148 OFFCURVE",
"446 148 CURVE SMOOTH",
"310 148 OFFCURVE",
"228 250 OFFCURVE",
"224 406 CURVE",
"48 406 LINE",
"52 156 OFFCURVE",
"210 -16 OFFCURVE",
"450 -16 CURVE SMOOTH",
"682 -16 OFFCURVE",
"860 138 OFFCURVE",
"860 446 CURVE SMOOTH",
"860 1474 LINE",
"678 1474 LINE",
"678 442 LINE SMOOTH"
);
}
);
width = 1080;
}
);
rightMetricsKey = H;
unicode = 004A;
},
{
glyphname = K;
lastChange = "2021-11-24 03:35:53 +0000";
layers = (
{
anchors = (
{
name = bottom;
position = "{568, 0}";
},
{
name = top;
position = "{570, 1474}";
}
);
layerId = "AB099EFE-E788-4EFC-8633-CF147CB782A6";
paths = (
{
closed = 1;
nodes = (
"258 0 LINE",
"258 708 LINE",
"290 708 LINE",
"254 734 LINE",
"928 0 LINE",
"1016 0 LINE",
"314 762 LINE",
"314 716 LINE",
"972 1474 LINE",
"884 1474 LINE",
"254 742 LINE",
"290 766 LINE",
"258 766 LINE",
"258 1474 LINE",
"194 1474 LINE",
"194 0 LINE"
);
}
);
width = 1080;
},
{
anchors = (
{
name = bottom;
position = "{564, 0}";
},
{
name = top;
position = "{526, 1474}";
}
);
guideLines = (
{
angle = 120;
position = "{610, 0}";
}
);
layerId = "2D8F7115-C311-411E-929D-56333CF7FFB2";
paths = (
{
closed = 1;
nodes = (
"416 0 LINE",
"416 638 LINE",
"496 638 LINE",
"388 692 LINE",
"720 0 LINE",
"1132 0 LINE",
"682 848 LINE",
"682 648 LINE",
"1128 1474 LINE",
"712 1474 LINE",
"388 774 LINE",
"496 828 LINE",
"416 828 LINE",
"416 1474 LINE",
"68 1474 LINE",
"68 0 LINE"
);
}
);
width = 1080;
},
{
anchors = (
{
name = bottom;
position = "{566, 0}";
},
{
name = top;
position = "{548, 1474}";
}
);
layerId = "FD1CEFBD-BAB1-4C2A-A598-30E93F9A29F6";
paths = (
{
closed = 1;
nodes = (
"322 0 LINE",
"322 684 LINE",
"372 684 LINE",
"300 716 LINE",
"834 0 LINE",
"1062 0 LINE",
"468 782 LINE",
"468 692 LINE",
"1032 1474 LINE",
"806 1474 LINE",
"300 754 LINE",
"372 790 LINE",
"322 790 LINE",
"322 1474 LINE",
"144 1474 LINE",
"144 0 LINE"
);
}
);
width = 1080;
}
);
leftMetricsKey = H;
unicode = 004B;
},
{
glyphname = L;
lastChange = "2021-11-24 03:35:53 +0000";
layers = (
{
anchors = (
{
name = bottom;
position = "{642, 0}";
},
{
name = center;
position = "{276, 738}";
},
{
name = dot;
position = "{808, 738}";
},
{
name = top;
position = "{276, 1474}";
},
{
name = topright;
position = "{816, 1474}";
}
);
layerId = "AB099EFE-E788-4EFC-8633-CF147CB782A6";
paths = (
{
closed = 1;
nodes = (
"244 0 LINE",
"1008 0 LINE",
"1008 60 LINE",
"308 60 LINE",
"308 1474 LINE",
"244 1474 LINE"
);
}
);
width = 1080;
},
{
anchors = (
{
name = bottom;
position = "{620, 0}";
},
{
name = center;
position = "{358, 758}";
},
{
name = dot;
position = "{910, 754}";
},
{
name = top;
position = "{372, 1474}";
},
{
name = topright;
position = "{668, 1474}";
}
);
layerId = "2D8F7115-C311-411E-929D-56333CF7FFB2";
paths = (
{
closed = 1;
nodes = (
"166 0 LINE",
"1052 0 LINE",
"1052 328 LINE",
"556 328 LINE",
"556 1474 LINE",
"166 1474 LINE"
);
}
);
width = 1080;
},
{
anchors = (
{
name = bottom;
position = "{632, 0}";
},
{
name = center;
position = "{304, 746}";
},
{
name = dot;
position = "{842, 746}";
},
{
name = top;
position = "{306, 1474}";
},
{
name = topright;
position = "{760, 1474}";
}
);
layerId = "FD1CEFBD-BAB1-4C2A-A598-30E93F9A29F6";
paths = (
{
closed = 1;
nodes = (
"214 0 LINE",
"1024 0 LINE",
"1024 164 LINE",
"396 164 LINE",
"396 1474 LINE",
"214 1474 LINE"
);
}
);
width = 1080;
}
);
leftMetricsKey = H;
unicode = 004C;
},
{
glyphname = M;
lastChange = "2021-11-24 07:22:16 +0000";
layers = (
{
anchors = (
{
name = bottom;
position = "{540, 0}";
},
{
name = top;
position = "{540, 1474}";
}
);
layerId = "AB099EFE-E788-4EFC-8633-CF147CB782A6";
paths = (
{
closed = 1;
nodes = (
"122 0 LINE",
"186 0 LINE",
"186 1076 LINE",
"186 1292 LINE",
"190 1292 LINE",
"524 354 LINE",
"556 354 LINE",
"890 1292 LINE",
"894 1292 LINE",
"894 1076 LINE",
"894 0 LINE",
"958 0 LINE",
"958 1474 LINE",
"890 1474 LINE",
"544 480 LINE",
"536 480 LINE",
"190 1474 LINE",
"122 1474 LINE"
);
}
);
width = 1080;
},
{
anchors = (
{
name = bottom;
position = "{540, 0}";
},
{
name = top;
position = "{540, 1474}";
}
);
layerId = "2D8F7115-C311-411E-929D-56333CF7FFB2";
paths = (
{
closed = 1;
nodes = (
"28 0 LINE",
"348 0 LINE",
"348 494 LINE",
"342 750 LINE",
"350 750 LINE",
"500 454 LINE",
"580 454 LINE",
"730 750 LINE",
"738 750 LINE",
"732 494 LINE",
"732 0 LINE",
"1052 0 LINE",
"1052 1474 LINE",
"852 1474 LINE",
"544 944 LINE",
"536 944 LINE",
"230 1474 LINE",
"28 1474 LINE"
);
}
);
width = 1080;
},
{
anchors = (
{
name = bottom;
position = "{540, 0}";
},
{
name = top;
position = "{540, 1474}";
}
);
layerId = "FD1CEFBD-BAB1-4C2A-A598-30E93F9A29F6";
paths = (
{
closed = 1;
nodes = (
"80 0 LINE",
"260 0 LINE",
"260 714 LINE",
"256 978 LINE",
"264 978 LINE",
"510 462 LINE",
"570 462 LINE",
"816 978 LINE",
"824 978 LINE",
"820 714 LINE",
"820 0 LINE",
"1000 0 LINE",
"1000 1474 LINE",
"884 1474 LINE",
"544 752 LINE",
"536 752 LINE",
"196 1474 LINE",
"80 1474 LINE"
);
}
);
width = 1080;
}
);
unicode = 004D;
},
{
glyphname = N;
lastChange = "2021-11-24 03:35:53 +0000";
layers = (
{
anchors = (
{
name = bottom;
position = "{530, 0}";
},
{
name = leghookright;
position = "{900, 0}";
},
{
name = top;
position = "{542, 1474}";
}
);
layerId = "AB099EFE-E788-4EFC-8633-CF147CB782A6";
paths = (
{
closed = 1;
nodes = (
"148 0 LINE",
"212 0 LINE",
"212 972 LINE",
"212 1348 LINE",
"218 1348 LINE",
"344 1086 LINE",
"876 0 LINE",
"932 0 LINE",
"932 1474 LINE",
"868 1474 LINE",
"868 524 LINE",
"868 132 LINE",
"862 132 LINE",
"736 400 LINE",
"204 1474 LINE",
"148 1474 LINE"
);
}
);
width = 1080;
},
{
anchors = (
{
name = bottom;
position = "{536, 0}";
},
{
name = leghookright;
position = "{868, 0}";
},
{
name = top;
position = "{540, 1474}";
}
);
layerId = "2D8F7115-C311-411E-929D-56333CF7FFB2";
paths = (
{
closed = 1;
nodes = (
"52 0 LINE",
"388 0 LINE",
"388 520 LINE",
"382 848 LINE",
"388 848 LINE",
"436 712 LINE",
"784 0 LINE",
"1028 0 LINE",
"1028 1474 LINE",
"692 1474 LINE",
"692 954 LINE",
"702 648 LINE",
"694 648 LINE",
"646 778 LINE",
"294 1474 LINE",
"52 1474 LINE"
);
}
);
width = 1080;
},
{
anchors = (
{
name = bottom;
position = "{540, 0}";
},
{
name = leghookright;
position = "{884, 0}";
},
{
name = top;
position = "{540, 1474}";
}
);
layerId = "FD1CEFBD-BAB1-4C2A-A598-30E93F9A29F6";
paths = (
{
closed = 1;
nodes = (
"112 0 LINE",
"288 0 LINE",
"288 772 LINE",
"284 1064 LINE",
"290 1064 LINE",
"382 886 LINE",
"840 0 LINE",
"968 0 LINE",
"968 1474 LINE",
"792 1474 LINE",
"792 712 LINE",
"796 410 LINE",
"790 410 LINE",
"702 592 LINE",
"242 1474 LINE",
"112 1474 LINE"
);
}
);
width = 1080;
}
);
leftMetricsKey = H;
rightMetricsKey = H;
unicode = 004E;
},
{
glyphname = Eng;
lastChange = "2021-11-24 03:35:53 +0000";
layers = (
{
anchors = (
{
name = bottom;
position = "{532, 0}";
},
{
name = leghookright;
position = "{900, 0}";
},
{
name = top;
position = "{542, 1474}";
}
);
layerId = "AB099EFE-E788-4EFC-8633-CF147CB782A6";
paths = (
{
closed = 1;
nodes = (
"150 0 LINE",
"214 0 LINE",
"214 970 LINE",
"214 1356 LINE",
"220 1356 LINE",
"346 1084 LINE",
"876 0 LINE",
"932 0 LINE",
"932 1474 LINE",
"868 1474 LINE",
"868 512 LINE",
"868 114 LINE",
"862 114 LINE",
"736 388 LINE",
"206 1474 LINE",
"150 1474 LINE"
);
},
{
closed = 1;
nodes = (
"858 -438 OFFCURVE",
"932 -324 OFFCURVE",
"932 -140 CURVE SMOOTH",
"932 40 LINE",
"872 40 LINE",
"872 -152 LINE SMOOTH",
"872 -270 OFFCURVE",
"830 -382 OFFCURVE",
"726 -378 CURVE SMOOTH",
"690 -376 OFFCURVE",
"660 -374 OFFCURVE",
"606 -338 CURVE",
"606 -402 LINE",
"648 -428 OFFCURVE",
"702 -438 OFFCURVE",
"734 -438 CURVE SMOOTH"
);
}
);
width = 1080;
},
{
anchors = (
{
name = bottom;
position = "{536, 0}";
},
{
name = leghookright;
position = "{876, 0}";
},
{
name = top;
position = "{540, 1474}";
}
);
layerId = "2D8F7115-C311-411E-929D-56333CF7FFB2";
paths = (
{
closed = 1;
nodes = (
"44 0 LINE",
"380 0 LINE",
"380 520 LINE",
"374 848 LINE",
"380 848 LINE",
"430 712 LINE",
"792 0 LINE",
"1036 0 LINE",
"1036 1474 LINE",
"700 1474 LINE",
"700 954 LINE",
"710 648 LINE",
"702 648 LINE",
"652 778 LINE",
"286 1474 LINE",
"44 1474 LINE"
);
},
{
closed = 1;
nodes = (
"922 -446 OFFCURVE",
"1036 -262 OFFCURVE",
"1036 -12 CURVE SMOOTH",
"1036 168 LINE",
"710 122 LINE",
"710 -32 LINE SMOOTH",
"710 -94 OFFCURVE",
"676 -140 OFFCURVE",
"636 -140 CURVE SMOOTH",
"618 -140 OFFCURVE",
"576 -132 OFFCURVE",
"548 -114 CURVE",
"548 -418 LINE",
"562 -434 OFFCURVE",
"622 -446 OFFCURVE",
"682 -446 CURVE SMOOTH"
);
}
);
width = 1080;
},
{
anchors = (
{
name = bottom;
position = "{540, 0}";
},
{
name = leghookright;
position = "{888, 0}";
},
{
name = top;
position = "{540, 1474}";
}
);
layerId = "FD1CEFBD-BAB1-4C2A-A598-30E93F9A29F6";
paths = (
{
closed = 1;
nodes = (
"108 0 LINE",
"284 0 LINE",
"284 782 LINE",
"280 1138 LINE",
"286 1138 LINE",
"380 942 LINE",
"844 0 LINE",
"972 0 LINE",
"972 1474 LINE",
"796 1474 LINE",
"796 704 LINE",
"800 336 LINE",
"794 336 LINE",
"704 536 LINE",
"238 1474 LINE",
"108 1474 LINE"
);
},
{
closed = 1;
nodes = (
"884 -442 OFFCURVE",
"972 -304 OFFCURVE",
"972 -94 CURVE SMOOTH",
"972 90 LINE",
"802 74 LINE",
"802 -106 LINE SMOOTH",
"802 -194 OFFCURVE",
"768 -292 OFFCURVE",
"686 -288 CURVE SMOOTH",
"656 -286 OFFCURVE",
"612 -276 OFFCURVE",
"584 -254 CURVE",
"584 -410 LINE",
"610 -430 OFFCURVE",
"666 -442 OFFCURVE",
"714 -442 CURVE SMOOTH"
);
}
);
width = 1080;
}
);
leftMetricsKey = N;
rightMetricsKey = N;
unicode = 014A;
},
{
glyphname = O;
lastChange = "2021-11-24 06:34:09 +0000";
layers = (
{
anchors = (
{
name = bottom;
position = "{536, 0}";
},
{
name = center;
position = "{542, 738}";
},
{
name = horn;
position = "{756, 1410}";
},
{
name = ogonek;
position = "{628, 0}";
},
{
name = top;
position = "{536, 1474}";
},
{
name = topleft;
position = "{34, 1474}";
},
{
name = topright;
position = "{1044, 1474}";
}
);
layerId = "AB099EFE-E788-4EFC-8633-CF147CB782A6";
paths = (
{
closed = 1;
nodes = (
"828 -16 OFFCURVE",
"1016 282 OFFCURVE",
"1016 738 CURVE SMOOTH",
"1016 1194 OFFCURVE",
"828 1490 OFFCURVE",
"536 1490 CURVE SMOOTH",
"250 1490 OFFCURVE",
"64 1196 OFFCURVE",
"64 738 CURVE SMOOTH",
"64 280 OFFCURVE",
"250 -16 OFFCURVE",
"536 -16 CURVE SMOOTH"
);
},
{
closed = 1;
nodes = (
"288 44 OFFCURVE",
"128 318 OFFCURVE",
"128 738 CURVE SMOOTH",
"128 1156 OFFCURVE",
"288 1430 OFFCURVE",
"536 1430 CURVE SMOOTH",
"788 1430 OFFCURVE",
"952 1158 OFFCURVE",
"952 738 CURVE SMOOTH",
"952 316 OFFCURVE",
"788 44 OFFCURVE",
"536 44 CURVE SMOOTH"
);
}
);
width = 1080;
},
{
anchors = (
{
name = bottom;
position = "{542, 0}";
},
{
name = center;
position = "{538, 738}";
},
{
name = horn;
position = "{732, 1426}";
},
{
name = ogonek;
position = "{644, 0}";
},
{
name = top;
position = "{542, 1474}";
},
{
name = topleft;
position = "{18, 1474}";
},
{
name = topright;
position = "{1070, 1474}";
}
);
layerId = "2D8F7115-C311-411E-929D-56333CF7FFB2";
paths = (
{
closed = 1;
nodes = (
"864 -16 OFFCURVE",
"1036 248 OFFCURVE",
"1036 738 CURVE SMOOTH",
"1036 1228 OFFCURVE",
"864 1492 OFFCURVE",
"546 1492 CURVE SMOOTH",
"220 1492 OFFCURVE",
"44 1228 OFFCURVE",
"44 738 CURVE SMOOTH",
"44 248 OFFCURVE",
"220 -16 OFFCURVE",
"546 -16 CURVE SMOOTH"
);
},
{
closed = 1;
nodes = (
"438 320 OFFCURVE",
"382 466 OFFCURVE",
"382 738 CURVE SMOOTH",
"382 1010 OFFCURVE",
"438 1156 OFFCURVE",
"542 1156 CURVE SMOOTH",
"644 1156 OFFCURVE",
"698 1008 OFFCURVE",
"698 738 CURVE SMOOTH",
"698 468 OFFCURVE",
"644 320 OFFCURVE",
"542 320 CURVE SMOOTH"
);
}
);
width = 1080;
},
{
anchors = (
{
name = bottom;
position = "{538, 0}";
},
{
name = center;
position = "{540, 738}";
},
{
name = horn;
position = "{742, 1422}";
},
{
name = ogonek;
position = "{634, 0}";
},
{
name = top;
position = "{538, 1474}";
},
{
name = topleft;
position = "{28, 1470}";
},
{
name = topright;
position = "{1050, 1470}";
}
);
layerId = "FD1CEFBD-BAB1-4C2A-A598-30E93F9A29F6";
paths = (
{
closed = 1;
nodes = (
"840 -16 OFFCURVE",
"1024 269 OFFCURVE",
"1024 738 CURVE SMOOTH",
"1024 1205 OFFCURVE",
"840 1490 OFFCURVE",
"538 1490 CURVE SMOOTH",
"238 1490 OFFCURVE",
"56 1205 OFFCURVE",
"56 738 CURVE SMOOTH",
"56 269 OFFCURVE",
"238 -16 OFFCURVE",
"538 -16 CURVE SMOOTH"
);
},
{
closed = 1;
nodes = (
"348 148 OFFCURVE",
"232 371 OFFCURVE",
"232 738 CURVE SMOOTH",
"232 1103 OFFCURVE",
"348 1326 OFFCURVE",
"538 1326 CURVE SMOOTH",
"729 1326 OFFCURVE",
"846 1103 OFFCURVE",
"848 738 CURVE SMOOTH",
"850 371 OFFCURVE",
"733 148 OFFCURVE",
"538 148 CURVE SMOOTH"
);
}
);
width = 1080;
}
);
unicode = 004F;
},
{
glyphname = OE;
lastChange = "2021-11-24 03:35:53 +0000";
layers = (
{
anchors = (
{
name = bottom;
position = "{558, 0}";
},
{
name = top;
position = "{558, 1474}";
}
);
layerId = "AB099EFE-E788-4EFC-8633-CF147CB782A6";
paths = (
{
closed = 1;
nodes = (
"512 -16 OFFCURVE",
"638 160 OFFCURVE",
"686 456 CURVE",
"660 456 LINE",
"660 0 LINE",
"1070 0 LINE",
"1070 60 LINE",
"720 60 LINE",
"720 726 LINE",
"1020 726 LINE",
"1020 786 LINE",
"720 786 LINE",
"720 1414 LINE",
"1070 1414 LINE",
"1070 1474 LINE",
"660 1474 LINE",
"660 1018 LINE",
"686 1018 LINE",
"638 1316 OFFCURVE",
"516 1490 OFFCURVE",
"366 1490 CURVE SMOOTH",
"160 1490 OFFCURVE",
"-6 1172 OFFCURVE",
"-6 738 CURVE SMOOTH",
"-6 308 OFFCURVE",
"160 -16 OFFCURVE",
"366 -16 CURVE SMOOTH"
);
},
{
closed = 1;
nodes = (
"194 44 OFFCURVE",
"58 340 OFFCURVE",
"58 740 CURVE SMOOTH",
"58 1132 OFFCURVE",
"192 1430 OFFCURVE",
"370 1430 CURVE SMOOTH",
"548 1430 OFFCURVE",
"666 1136 OFFCURVE",
"666 742 CURVE SMOOTH",
"666 338 OFFCURVE",
"544 44 OFFCURVE",
"370 44 CURVE SMOOTH"
);
}
);
width = 1080;
},
{
anchors = (
{
name = bottom;
position = "{542, 0}";
},
{
name = top;
position = "{542, 1474}";
}
);
layerId = "2D8F7115-C311-411E-929D-56333CF7FFB2";
paths = (
{
closed = 1;
nodes = (
"528 -16 OFFCURVE",
"614 88 OFFCURVE",
"686 308 CURVE",
"570 308 LINE",
"570 0 LINE",
"1084 0 LINE",
"1084 328 LINE",
"852 328 LINE",
"852 586 LINE",
"1038 586 LINE",
"1038 902 LINE",
"852 902 LINE",
"852 1146 LINE",
"1084 1146 LINE",
"1084 1474 LINE",
"570 1474 LINE",
"570 1168 LINE",
"686 1168 LINE",
"622 1366 OFFCURVE",
"582 1490 OFFCURVE",
"408 1490 CURVE SMOOTH",
"180 1490 OFFCURVE",
"-46 1176 OFFCURVE",
"-46 738 CURVE SMOOTH",
"-46 300 OFFCURVE",
"180 -16 OFFCURVE",
"408 -16 CURVE SMOOTH"
);
},
{
closed = 1;
nodes = (
"344 308 OFFCURVE",
"276 488 OFFCURVE",
"276 738 CURVE SMOOTH",
"276 990 OFFCURVE",
"346 1166 OFFCURVE",
"426 1166 CURVE SMOOTH",
"518 1166 OFFCURVE",
"598 992 OFFCURVE",
"598 738 CURVE SMOOTH",
"598 488 OFFCURVE",
"522 308 OFFCURVE",
"426 308 CURVE SMOOTH"
);
}
);
width = 1080;
},
{
anchors = (
{
name = bottom;
position = "{552, 0}";
},
{
name = top;
position = "{552, 1474}";
}
);
layerId = "FD1CEFBD-BAB1-4C2A-A598-30E93F9A29F6";
paths = (
{
closed = 1;
nodes = (
"524 -16 OFFCURVE",
"630 140 OFFCURVE",
"688 402 CURVE",
"622 402 LINE",
"622 0 LINE",
"1076 0 LINE",
"1076 164 LINE",
"776 164 LINE",
"776 668 LINE",
"1028 668 LINE",
"1028 832 LINE",
"776 832 LINE",
"776 1310 LINE",
"1076 1310 LINE",
"1076 1474 LINE",
"622 1474 LINE",
"622 1078 LINE",
"688 1078 LINE",
"630 1340 OFFCURVE",
"546 1496 OFFCURVE",
"384 1496 CURVE SMOOTH",
"168 1496 OFFCURVE",
"-20 1172 OFFCURVE",
"-20 738 CURVE SMOOTH",
"-20 308 OFFCURVE",
"168 -16 OFFCURVE",
"384 -16 CURVE SMOOTH"
);
},
{
closed = 1;
nodes = (
"260 144 OFFCURVE",
"152 392 OFFCURVE",
"152 738 CURVE SMOOTH",
"152 1088 OFFCURVE",
"260 1336 OFFCURVE",
"396 1336 CURVE SMOOTH",
"536 1336 OFFCURVE",
"638 1086 OFFCURVE",
"638 738 CURVE SMOOTH",
"638 392 OFFCURVE",
"536 144 OFFCURVE",
"396 144 CURVE SMOOTH"
);
}
);
width = 1080;
}
);
leftMetricsKey = O;
rightMetricsKey = E;
unicode = 0152;
},
{
glyphname = P;
lastChange = "2021-11-24 03:35:53 +0000";
layers = (
{
anchors = (
{
name = bottom;
position = "{250, 0}";
},
{
name = top;
position = "{622, 1474}";
}
);
layerId = "AB099EFE-E788-4EFC-8633-CF147CB782A6";
paths = (
{
closed = 1;
nodes = (
"572 666 LINE SMOOTH",
"810 666 OFFCURVE",
"964 856 OFFCURVE",
"964 1078 CURVE SMOOTH",
"964 1320 OFFCURVE",
"790 1474 OFFCURVE",
"562 1474 CURVE SMOOTH",
"252 1474 LINE",
"252 1414 LINE",
"552 1414 LINE SMOOTH",
"758 1414 OFFCURVE",
"900 1286 OFFCURVE",
"900 1078 CURVE SMOOTH",
"900 870 OFFCURVE",
"760 726 OFFCURVE",
"560 726 CURVE SMOOTH",
"252 726 LINE",
"252 666 LINE"
);
},
{
closed = 1;
nodes = (
"282 0 LINE",
"282 1474 LINE",
"218 1474 LINE",
"218 0 LINE"
);
}
);
width = 1080;
},
{
anchors = (
{
name = bottom;
position = "{290, 0}";
},
{
name = top;
position = "{578, 1474}";
}
);
layerId = "2D8F7115-C311-411E-929D-56333CF7FFB2";
paths = (
{
closed = 1;
nodes = (
"576 450 LINE SMOOTH",
"862 450 OFFCURVE",
"1062 660 OFFCURVE",
"1062 974 CURVE SMOOTH",
"1062 1278 OFFCURVE",
"882 1474 OFFCURVE",
"572 1474 CURVE SMOOTH",
"406 1474 LINE",
"406 1146 LINE",
"552 1146 LINE SMOOTH",
"646 1146 OFFCURVE",
"706 1072 OFFCURVE",
"706 962 CURVE SMOOTH",
"706 856 OFFCURVE",
"648 774 OFFCURVE",
"560 774 CURVE SMOOTH",
"406 774 LINE",
"406 450 LINE"
);
},
{
closed = 1;
nodes = (
"470 0 LINE",
"470 1474 LINE",
"106 1474 LINE",
"106 0 LINE"
);
}
);
width = 1080;
},
{
anchors = (
{
name = bottom;
position = "{264, 0}";
},
{
name = top;
position = "{602, 1474}";
}
);
layerId = "FD1CEFBD-BAB1-4C2A-A598-30E93F9A29F6";
paths = (
{
closed = 1;
nodes = (
"570 586 LINE SMOOTH",
"826 586 OFFCURVE",
"992 778 OFFCURVE",
"992 1040 CURVE SMOOTH",
"992 1304 OFFCURVE",
"822 1474 OFFCURVE",
"560 1474 CURVE SMOOTH",
"310 1474 LINE",
"310 1310 LINE",
"548 1310 LINE SMOOTH",
"708 1310 OFFCURVE",
"814 1208 OFFCURVE",
"814 1036 CURVE SMOOTH",
"814 864 OFFCURVE",
"712 750 OFFCURVE",
"558 750 CURVE SMOOTH",
"310 750 LINE",
"310 586 LINE"
);
},
{
closed = 1;
nodes = (
"354 0 LINE",
"354 1474 LINE",
"174 1474 LINE",
"174 0 LINE"
);
}
);
width = 1080;
}
);
leftMetricsKey = H;
unicode = 0050;
},
{
glyphname = Thorn;
lastChange = "2021-11-24 03:35:53 +0000";
layers = (
{
layerId = "AB099EFE-E788-4EFC-8633-CF147CB782A6";
paths = (
{
closed = 1;
nodes = (
"606 328 LINE SMOOTH",
"826 328 OFFCURVE",
"974 500 OFFCURVE",
"974 742 CURVE SMOOTH",
"974 984 OFFCURVE",
"826 1138 OFFCURVE",
"606 1138 CURVE SMOOTH",
"250 1138 LINE",
"250 1078 LINE",
"614 1078 LINE SMOOTH",
"790 1078 OFFCURVE",
"910 950 OFFCURVE",
"910 742 CURVE SMOOTH",
"910 532 OFFCURVE",
"790 388 OFFCURVE",
"614 388 CURVE SMOOTH",
"250 388 LINE",
"250 328 LINE"
);
},
{
closed = 1;
nodes = (
"270 0 LINE",
"270 1474 LINE",
"206 1474 LINE",
"206 0 LINE"
);
}
);
width = 1080;
},
{
layerId = "2D8F7115-C311-411E-929D-56333CF7FFB2";
paths = (
{
closed = 1;
nodes = (
"580 230 LINE SMOOTH",
"860 230 OFFCURVE",
"1048 444 OFFCURVE",
"1048 752 CURVE SMOOTH",
"1048 1060 OFFCURVE",
"862 1250 OFFCURVE",
"572 1250 CURVE SMOOTH",
"392 1250 LINE",
"392 930 LINE",
"548 930 LINE SMOOTH",
"640 930 OFFCURVE",
"702 856 OFFCURVE",
"702 742 CURVE SMOOTH",
"702 634 OFFCURVE",
"646 550 OFFCURVE",
"562 550 CURVE SMOOTH",
"392 550 LINE",
"392 230 LINE"
);
},
{
closed = 1;
nodes = (
"468 0 LINE",
"468 1474 LINE",
"104 1474 LINE",
"104 0 LINE"
);
}
);
width = 1080;
},
{
layerId = "FD1CEFBD-BAB1-4C2A-A598-30E93F9A29F6";
paths = (
{
closed = 1;
nodes = (
"590 290 LINE SMOOTH",
"836 290 OFFCURVE",
"1000 480 OFFCURVE",
"1000 746 CURVE SMOOTH",
"1000 1016 OFFCURVE",
"832 1180 OFFCURVE",
"586 1180 CURVE SMOOTH",
"296 1180 LINE",
"296 1016 LINE",
"584 1016 LINE SMOOTH",
"732 1016 OFFCURVE",
"822 918 OFFCURVE",
"822 742 CURVE SMOOTH",
"822 570 OFFCURVE",
"732 454 OFFCURVE",
"588 454 CURVE SMOOTH",
"296 454 LINE",
"296 290 LINE"
);
},
{
closed = 1;
nodes = (
"342 0 LINE",
"342 1474 LINE",
"162 1474 LINE",
"162 0 LINE"
);
}
);
width = 1080;
}
);
leftMetricsKey = H;
unicode = 00DE;
},
{
glyphname = Q;
lastChange = "2021-11-24 08:14:06 +0000";
layers = (
{
anchors = (
{
name = bottom;
position = "{536, 0}";
},
{
name = center;
position = "{536, 738}";
},
{
name = horn;
position = "{770, 1410}";
},
{
name = ogonek;
position = "{632, 0}";
},
{
name = top;
position = "{532, 1474}";
},
{
name = topleft;
position = "{-8, 1474}";
},
{
name = topright;
position = "{1078, 1474}";
}
);
layerId = "AB099EFE-E788-4EFC-8633-CF147CB782A6";
paths = (
{
closed = 1;
nodes = (
"958 0 LINE",
"864 162 LINE",
"846 176 LINE",
"664 520 LINE",
"594 520 LINE",
"800 142 LINE",
"814 130 LINE",
"888 0 LINE"
);
},
{
closed = 1;
nodes = (
"828 -16 OFFCURVE",
"1016 282 OFFCURVE",
"1016 738 CURVE SMOOTH",
"1016 1194 OFFCURVE",
"828 1490 OFFCURVE",
"536 1490 CURVE SMOOTH",
"250 1490 OFFCURVE",
"64 1196 OFFCURVE",
"64 738 CURVE SMOOTH",
"64 280 OFFCURVE",
"250 -16 OFFCURVE",
"536 -16 CURVE SMOOTH"
);
},
{
closed = 1;
nodes = (
"288 44 OFFCURVE",
"128 318 OFFCURVE",
"128 738 CURVE SMOOTH",
"128 1156 OFFCURVE",
"288 1430 OFFCURVE",
"536 1430 CURVE SMOOTH",
"788 1430 OFFCURVE",
"952 1158 OFFCURVE",
"952 738 CURVE SMOOTH",
"952 316 OFFCURVE",
"788 44 OFFCURVE",
"536 44 CURVE SMOOTH"
);
}
);
width = 1080;
},
{
anchors = (
{
name = bottom;
position = "{486, 0}";
},
{
name = center;
position = "{490, 738}";
},
{
name = horn;
position = "{712, 1426}";
},
{
name = ogonek;
position = "{606, 0}";
},
{
name = top;
position = "{488, 1474}";
},
{
name = topleft;
position = "{-94, 1474}";
},
{
name = topright;
position = "{1082, 1474}";
}
);
layerId = "2D8F7115-C311-411E-929D-56333CF7FFB2";
paths = (
{
closed = 1;
nodes = (
"1106 0 LINE",
"898 300 LINE",
"732 388 LINE",
"646 544 LINE",
"382 544 LINE",
"560 276 LINE",
"726 172 LINE",
"848 0 LINE"
);
},
{
closed = 1;
nodes = (
"844 -16 OFFCURVE",
"1036 254 OFFCURVE",
"1036 752 CURVE SMOOTH",
"1036 1224 OFFCURVE",
"864 1492 OFFCURVE",
"540 1492 CURVE SMOOTH",
"220 1492 OFFCURVE",
"44 1228 OFFCURVE",
"44 736 CURVE SMOOTH",
"44 248 OFFCURVE",
"218 -16 OFFCURVE",
"530 -16 CURVE SMOOTH"
);
},
{
closed = 1;
nodes = (
"404 284 OFFCURVE",
"338 434 OFFCURVE",
"338 714 CURVE SMOOTH",
"338 1004 OFFCURVE",
"410 1156 OFFCURVE",
"538 1156 CURVE SMOOTH",
"674 1156 OFFCURVE",
"742 982 OFFCURVE",
"742 708 CURVE SMOOTH",
"742 430 OFFCURVE",
"672 284 OFFCURVE",
"538 284 CURVE SMOOTH"
);
}
);
width = 1080;
},
{
anchors = (
{
name = bottom;
position = "{524, 0}";
},
{
name = center;
position = "{526, 738}";
},
{
name = horn;
position = "{750, 1422}";
},
{
name = ogonek;
position = "{628, 0}";
},
{
name = top;
position = "{524, 1474}";
},
{
name = topleft;
position = "{-44, 1470}";
},
{
name = topright;
position = "{1090, 1470}";
}
);
layerId = "FD1CEFBD-BAB1-4C2A-A598-30E93F9A29F6";
paths = (
{
closed = 1;
nodes = (
"1054 0 LINE",
"900 204 LINE",
"822 266 LINE",
"648 540 LINE",
"448 540 LINE",
"692 196 LINE",
"758 144 LINE",
"862 0 LINE"
);
},
{
closed = 1;
nodes = (
"840 -16 OFFCURVE",
"1024 269 OFFCURVE",
"1024 738 CURVE SMOOTH",
"1024 1205 OFFCURVE",
"840 1490 OFFCURVE",
"538 1490 CURVE SMOOTH",
"238 1490 OFFCURVE",
"56 1205 OFFCURVE",
"56 738 CURVE SMOOTH",
"56 269 OFFCURVE",
"238 -16 OFFCURVE",
"538 -16 CURVE SMOOTH"
);
},
{
closed = 1;
nodes = (
"348 148 OFFCURVE",
"232 371 OFFCURVE",
"232 738 CURVE SMOOTH",
"232 1103 OFFCURVE",
"348 1326 OFFCURVE",
"538 1326 CURVE SMOOTH",
"729 1326 OFFCURVE",
"846 1103 OFFCURVE",
"848 738 CURVE SMOOTH",
"850 371 OFFCURVE",
"733 148 OFFCURVE",
"538 148 CURVE SMOOTH"
);
}
);
width = 1080;
}
);
leftMetricsKey = O;
unicode = 0051;
},
{
glyphname = R;
lastChange = "2021-11-24 03:35:53 +0000";
layers = (
{
anchors = (
{
name = bottom;
position = "{588, 0}";
},
{
name = top;
position = "{524, 1474}";
}
);
guideLines = (
{
angle = 120;
position = "{492, 0}";
},
{
angle = 67.5;
position = "{80, 2}";
}
);
layerId = "AB099EFE-E788-4EFC-8633-CF147CB782A6";
paths = (
{
closed = 1;
nodes = (
"232 1414 LINE",
"512 1414 LINE SMOOTH",
"704 1414 OFFCURVE",
"838 1286 OFFCURVE",
"838 1078 CURVE SMOOTH",
"838 868 OFFCURVE",
"706 726 OFFCURVE",
"520 726 CURVE SMOOTH",
"232 726 LINE",
"232 666 LINE",
"530 666 LINE SMOOTH",
"754 666 OFFCURVE",
"902 854 OFFCURVE",
"902 1078 CURVE SMOOTH",
"902 1320 OFFCURVE",
"736 1474 OFFCURVE",
"522 1474 CURVE SMOOTH",
"232 1474 LINE"
);
},
{
closed = 1;
nodes = (
"262 1474 LINE",
"198 1474 LINE",
"198 0 LINE",
"262 0 LINE"
);
},
{
closed = 1;
nodes = (
"524 672 LINE",
"916 0 LINE",
"988 0 LINE",
"568 716 LINE"
);
}
);
width = 1080;
},
{
anchors = (
{
name = bottom;
position = "{540, 0}";
},
{
name = top;
position = "{494, 1474}";
}
);
guideLines = (
{
angle = 120;
position = "{632, 0}";
}
);
layerId = "2D8F7115-C311-411E-929D-56333CF7FFB2";
paths = (
{
closed = 1;
nodes = (
"330 1146 LINE",
"490 1146 LINE SMOOTH",
"570 1146 OFFCURVE",
"628 1074 OFFCURVE",
"628 962 CURVE SMOOTH",
"628 856 OFFCURVE",
"574 782 OFFCURVE",
"500 782 CURVE SMOOTH",
"330 782 LINE",
"330 484 LINE",
"444 484 LINE SMOOTH",
"774 484 OFFCURVE",
"970 714 OFFCURVE",
"970 1012 CURVE SMOOTH",
"970 1312 OFFCURVE",
"782 1474 OFFCURVE",
"544 1474 CURVE SMOOTH",
"330 1474 LINE"
);
},
{
closed = 1;
nodes = (
"424 1474 LINE",
"74 1474 LINE",
"74 0 LINE",
"424 0 LINE"
);
},
{
closed = 1;
nodes = (
"496 536 LINE",
"688 0 LINE",
"1082 0 LINE",
"754 754 LINE"
);
}
);
width = 1080;
},
{
anchors = (
{
name = bottom;
position = "{566, 0}";
},
{
name = top;
position = "{518, 1474}";
}
);
hints = (
{
horizontal = 1;
origin = "{0, 10}";
type = Delta;
settings = {
deltaV = {
"{100, 88, 0, 0, 0, 0}" = {
"12" = 3;
};
};
};
},
{
horizontal = 1;
origin = "{0, 9}";
type = Delta;
settings = {
deltaV = {
"{100, 88, 0, 0, 0, 0}" = {
"12" = 3;
};
};
};
},
{
horizontal = 1;
origin = "{0, 8}";
type = Delta;
settings = {
deltaV = {
"{100, 88, 0, 0, 0, 0}" = {
"12" = 3;
};
};
};
},
{
horizontal = 1;
origin = "{0, 7}";
type = Delta;
settings = {
deltaV = {
"{100, 88, 0, 0, 0, 0}" = {
"12" = 3;
};
};
};
},
{
horizontal = 1;
origin = "{0, 8, 1, 0}";
type = Delta;
settings = {
deltaV = {
"{100, 88, 0, 0, 0, 0}" = {
"12" = 3;
};
};
};
},
{
horizontal = 1;
origin = "{0, 10, 1, 0}";
type = Delta;
settings = {
deltaV = {
"{100, 88, 0, 0, 0, 0}" = {
"12" = 3;
};
};
};
},
{
horizontal = 1;
origin = "{0, 13, 2, 1}";
type = Delta;
settings = {
deltaV = {
"{100, 88, 0, 0, 0, 0}" = {
"12" = 3;
};
};
};
},
{
horizontal = 1;
origin = "{0, 13, 2, 3}";
type = Delta;
settings = {
deltaV = {
"{100, 88, 0, 0, 0, 0}" = {
"12" = 3;
};
};
};
}
);
layerId = "FD1CEFBD-BAB1-4C2A-A598-30E93F9A29F6";
paths = (
{
closed = 1;
nodes = (
"268 1310 LINE",
"502 1310 LINE SMOOTH",
"648 1310 OFFCURVE",
"746 1208 OFFCURVE",
"746 1036 CURVE SMOOTH",
"746 864 OFFCURVE",
"650 754 OFFCURVE",
"512 754 CURVE SMOOTH",
"268 754 LINE",
"268 598 LINE",
"496 598 LINE SMOOTH",
"760 598 OFFCURVE",
"924 800 OFFCURVE",
"924 1052 CURVE SMOOTH",
"924 1316 OFFCURVE",
"752 1474 OFFCURVE",
"530 1474 CURVE SMOOTH",
"268 1474 LINE"
);
},
{
closed = 1;
nodes = (
"326 1474 LINE",
"148 1474 LINE",
"148 0 LINE",
"326 0 LINE"
);
},
{
closed = 1;
nodes = (
"506 626 LINE",
"818 0 LINE",
"1022 0 LINE",
"642 734 LINE"
);
}
);
width = 1080;
}
);
leftMetricsKey = H;
unicode = 0052;
},
{
glyphname = S;
lastChange = "2021-11-24 07:15:24 +0000";
layers = (
{
anchors = (
{
name = bottom;
position = "{558, 0}";
},
{
name = cedilla;
position = "{540, 0}";
},
{
name = top;
position = "{528, 1474}";
}
);
layerId = "AB099EFE-E788-4EFC-8633-CF147CB782A6";
paths = (
{
closed = 1;
nodes = (
"742 -16 OFFCURVE",
"930 128 OFFCURVE",
"930 366 CURVE SMOOTH",
"930 660 OFFCURVE",
"644 746 OFFCURVE",
"522 798 CURVE SMOOTH",
"400 850 OFFCURVE",
"234 942 OFFCURVE",
"234 1144 CURVE SMOOTH",
"234 1308 OFFCURVE",
"344 1430 OFFCURVE",
"518 1430 CURVE SMOOTH",
"660 1430 OFFCURVE",
"764 1352 OFFCURVE",
"818 1234 CURVE",
"874 1258 LINE",
"828 1362 OFFCURVE",
"714 1490 OFFCURVE",
"518 1490 CURVE SMOOTH",
"312 1490 OFFCURVE",
"170 1348 OFFCURVE",
"170 1140 CURVE SMOOTH",
"170 918 OFFCURVE",
"326 818 OFFCURVE",
"534 730 CURVE SMOOTH",
"660 676 OFFCURVE",
"866 596 OFFCURVE",
"866 366 CURVE SMOOTH",
"866 168 OFFCURVE",
"712 44 OFFCURVE",
"542 44 CURVE SMOOTH",
"396 44 OFFCURVE",
"250 132 OFFCURVE",
"194 288 CURVE",
"130 262 LINE",
"188 128 OFFCURVE",
"322 -16 OFFCURVE",
"532 -16 CURVE SMOOTH"
);
}
);
userData = {
RMXScaler = {
height = 139;
width = 140;
};
};
width = 1080;
},
{
anchors = (
{
name = bottom;
position = "{582, 0}";
},
{
name = cedilla;
position = "{610, 0}";
},
{
name = top;
position = "{544, 1474}";
}
);
guideLines = (
{
angle = 22.5;
position = "{276, 288}";
},
{
angle = 90;
position = "{44, -108}";
},
{
angle = 90;
position = "{496, -108}";
}
);
layerId = "2D8F7115-C311-411E-929D-56333CF7FFB2";
paths = (
{
closed = 1;
nodes = (
"826 -16 OFFCURVE",
"1028 198 OFFCURVE",
"1024 454 CURVE SMOOTH",
"1020 730 OFFCURVE",
"830 824 OFFCURVE",
"728 862 CURVE SMOOTH",
"672 882 OFFCURVE",
"456 938 OFFCURVE",
"456 1054 CURVE SMOOTH",
"456 1116 OFFCURVE",
"486 1164 OFFCURVE",
"542 1164 CURVE SMOOTH",
"592 1164 OFFCURVE",
"642 1094 OFFCURVE",
"660 1036 CURVE",
"998 1176 LINE",
"936 1356 OFFCURVE",
"774 1490 OFFCURVE",
"542 1490 CURVE SMOOTH",
"262 1490 OFFCURVE",
"86 1312 OFFCURVE",
"86 1062 CURVE SMOOTH",
"86 846 OFFCURVE",
"218 704 OFFCURVE",
"424 626 CURVE SMOOTH",
"526 588 OFFCURVE",
"656 556 OFFCURVE",
"656 444 CURVE SMOOTH",
"656 378 OFFCURVE",
"614 320 OFFCURVE",
"560 320 CURVE SMOOTH",
"480 320 OFFCURVE",
"422 414 OFFCURVE",
"396 504 CURVE",
"42 356 LINE",
"104 148 OFFCURVE",
"336 -16 OFFCURVE",
"550 -16 CURVE SMOOTH"
);
}
);
userData = {
RMXScaler = {
height = 137;
weight = 160;
width = 140;
};
};
width = 1080;
},
{
anchors = (
{
name = bottom;
position = "{550, 0}";
},
{
name = cedilla;
position = "{556, 0}";
},
{
name = top;
position = "{540, 1474}";
}
);
layerId = "FD1CEFBD-BAB1-4C2A-A598-30E93F9A29F6";
paths = (
{
closed = 1;
nodes = (
"772 -16 OFFCURVE",
"966 150 OFFCURVE",
"966 402 CURVE SMOOTH",
"966 704 OFFCURVE",
"690 794 OFFCURVE",
"586 836 CURVE SMOOTH",
"486 876 OFFCURVE",
"326 946 OFFCURVE",
"326 1116 CURVE SMOOTH",
"326 1254 OFFCURVE",
"424 1326 OFFCURVE",
"530 1326 CURVE SMOOTH",
"656 1326 OFFCURVE",
"732 1234 OFFCURVE",
"764 1164 CURVE",
"926 1228 LINE",
"868 1366 OFFCURVE",
"738 1490 OFFCURVE",
"530 1490 CURVE SMOOTH",
"306 1490 OFFCURVE",
"150 1344 OFFCURVE",
"150 1120 CURVE SMOOTH",
"150 882 OFFCURVE",
"314 760 OFFCURVE",
"494 692 CURVE SMOOTH",
"588 658 OFFCURVE",
"790 590 OFFCURVE",
"790 394 CURVE SMOOTH",
"790 250 OFFCURVE",
"676 148 OFFCURVE",
"550 148 CURVE SMOOTH",
"416 148 OFFCURVE",
"312 262 OFFCURVE",
"274 390 CURVE",
"106 320 LINE",
"160 146 OFFCURVE",
"338 -16 OFFCURVE",
"552 -16 CURVE SMOOTH"
);
}
);
userData = {
RMXScaler = {
height = 139;
width = 140;
};
};
width = 1080;
}
);
unicode = 0053;
userData = {
RMXScaler = {
source = s;
};
};
},
{
glyphname = Germandbls;
lastChange = "2021-11-24 03:35:53 +0000";
layers = (
{
layerId = "AB099EFE-E788-4EFC-8633-CF147CB782A6";
paths = (
{
closed = 1;
nodes = (
"804 -16 OFFCURVE",
"976 190 OFFCURVE",
"976 458 CURVE SMOOTH",
"976 710 OFFCURVE",
"826 906 OFFCURVE",
"566 892 CURVE",
"592 860 LINE",
"790 1414 LINE",
"790 1430 LINE",
"694 1476 OFFCURVE",
"580 1490 OFFCURVE",
"498 1490 CURVE SMOOTH",
"160 1490 OFFCURVE",
"156 1226 OFFCURVE",
"156 1126 CURVE SMOOTH",
"156 0 LINE",
"220 0 LINE",
"220 1132 LINE SMOOTH",
"220 1216 OFFCURVE",
"220 1430 OFFCURVE",
"484 1430 CURVE SMOOTH",
"562 1430 OFFCURVE",
"674 1414 OFFCURVE",
"728 1386 CURVE",
"724 1420 LINE",
"530 864 LINE",
"530 836 LINE",
"566 836 LINE SMOOTH",
"782 836 OFFCURVE",
"912 688 OFFCURVE",
"912 460 CURVE SMOOTH",
"912 210 OFFCURVE",
"756 44 OFFCURVE",
"582 44 CURVE SMOOTH",
"532 44 OFFCURVE",
"468 60 OFFCURVE",
"422 80 CURVE",
"422 16 LINE",
"460 -4 OFFCURVE",
"522 -16 OFFCURVE",
"576 -16 CURVE SMOOTH"
);
}
);
width = 1080;
},
{
layerId = "2D8F7115-C311-411E-929D-56333CF7FFB2";
paths = (
{
closed = 1;
nodes = (
"924 -16 OFFCURVE",
"1092 182 OFFCURVE",
"1092 480 CURVE SMOOTH",
"1092 714 OFFCURVE",
"1006 902 OFFCURVE",
"838 934 CURVE",
"842 766 LINE",
"1028 1340 LINE",
"1028 1376 LINE",
"948 1438 OFFCURVE",
"744 1490 OFFCURVE",
"566 1490 CURVE SMOOTH",
"286 1490 OFFCURVE",
"52 1324 OFFCURVE",
"52 1020 CURVE SMOOTH",
"52 0 LINE",
"396 0 LINE",
"396 974 LINE SMOOTH",
"396 1018 OFFCURVE",
"396 1170 OFFCURVE",
"582 1170 CURVE SMOOTH",
"644 1170 OFFCURVE",
"676 1152 OFFCURVE",
"678 1126 CURVE",
"658 1216 LINE",
"540 738 LINE",
"540 676 LINE",
"638 676 LINE SMOOTH",
"726 676 OFFCURVE",
"758 586 OFFCURVE",
"756 484 CURVE SMOOTH",
"754 370 OFFCURVE",
"716 312 OFFCURVE",
"622 312 CURVE SMOOTH",
"610 312 OFFCURVE",
"602 314 OFFCURVE",
"552 324 CURVE",
"552 -12 LINE",
"588 -12 OFFCURVE",
"602 -16 OFFCURVE",
"638 -16 CURVE SMOOTH"
);
}
);
width = 1080;
},
{
layerId = "FD1CEFBD-BAB1-4C2A-A598-30E93F9A29F6";
paths = (
{
closed = 1;
nodes = (
"842 -16 OFFCURVE",
"1014 176 OFFCURVE",
"1014 466 CURVE SMOOTH",
"1014 712 OFFCURVE",
"894 902 OFFCURVE",
"676 910 CURVE",
"696 828 LINE",
"884 1384 LINE",
"884 1410 LINE",
"792 1462 OFFCURVE",
"644 1490 OFFCURVE",
"522 1490 CURVE SMOOTH",
"270 1490 OFFCURVE",
"118 1352 OFFCURVE",
"118 1086 CURVE SMOOTH",
"118 0 LINE",
"296 0 LINE",
"296 1074 LINE SMOOTH",
"296 1238 OFFCURVE",
"360 1326 OFFCURVE",
"530 1326 CURVE SMOOTH",
"602 1326 OFFCURVE",
"680 1304 OFFCURVE",
"704 1282 CURVE",
"694 1344 LINE",
"532 820 LINE",
"532 774 LINE",
"594 774 LINE SMOOTH",
"752 774 OFFCURVE",
"838 656 OFFCURVE",
"838 472 CURVE SMOOTH",
"838 286 OFFCURVE",
"744 148 OFFCURVE",
"596 148 CURVE SMOOTH",
"570 148 OFFCURVE",
"540 152 OFFCURVE",
"476 176 CURVE",
"476 8 LINE",
"510 -8 OFFCURVE",
"556 -16 OFFCURVE",
"602 -16 CURVE SMOOTH"
);
}
);
width = 1080;
}
);
rightMetricsKey = B;
unicode = 1E9E;
},
{
glyphname = Schwa;
lastChange = "2021-11-24 03:35:53 +0000";
layers = (
{
anchors = (
{
name = bottom;
position = "{526, 0}";
},
{
name = top;
position = "{528, 1474}";
}
);
layerId = "AB099EFE-E788-4EFC-8633-CF147CB782A6";
paths = (
{
closed = 1;
nodes = (
"808 -16 OFFCURVE",
"1036 310 OFFCURVE",
"1036 738 CURVE SMOOTH",
"1036 1170 OFFCURVE",
"820 1490 OFFCURVE",
"502 1490 CURVE SMOOTH",
"356 1490 OFFCURVE",
"230 1418 OFFCURVE",
"154 1336 CURVE",
"180 1272 LINE",
"252 1370 OFFCURVE",
"370 1430 OFFCURVE",
"500 1430 CURVE SMOOTH",
"774 1430 OFFCURVE",
"974 1128 OFFCURVE",
"974 736 CURVE SMOOTH",
"974 330 OFFCURVE",
"764 44 OFFCURVE",
"508 44 CURVE SMOOTH",
"246 44 OFFCURVE",
"110 342 OFFCURVE",
"110 698 CURVE",
"1004 698 LINE",
"1004 758 LINE",
"46 758 LINE",
"46 704 LINE SMOOTH",
"46 272 OFFCURVE",
"224 -16 OFFCURVE",
"508 -16 CURVE SMOOTH"
);
}
);
width = 1080;
},
{
anchors = (
{
name = bottom;
position = "{514, 0}";
},
{
name = top;
position = "{518, 1474}";
}
);
layerId = "2D8F7115-C311-411E-929D-56333CF7FFB2";
paths = (
{
closed = 1;
nodes = (
"876 -16 OFFCURVE",
"1126 306 OFFCURVE",
"1126 730 CURVE SMOOTH",
"1126 1188 OFFCURVE",
"820 1490 OFFCURVE",
"498 1490 CURVE SMOOTH",
"394 1490 OFFCURVE",
"274 1454 OFFCURVE",
"160 1372 CURVE",
"290 1044 LINE",
"332 1104 OFFCURVE",
"402 1156 OFFCURVE",
"494 1156 CURVE SMOOTH",
"656 1156 OFFCURVE",
"772 994 OFFCURVE",
"772 738 CURVE SMOOTH",
"772 500 OFFCURVE",
"680 312 OFFCURVE",
"508 312 CURVE SMOOTH",
"408 312 OFFCURVE",
"304 414 OFFCURVE",
"308 562 CURVE",
"790 562 LINE",
"790 866 LINE",
"-14 866 LINE",
"-14 638 LINE SMOOTH",
"-14 246 OFFCURVE",
"200 -16 OFFCURVE",
"518 -16 CURVE SMOOTH"
);
}
);
width = 1080;
},
{
anchors = (
{
name = bottom;
position = "{514, 0}";
},
{
name = top;
position = "{524, 1474}";
}
);
layerId = "FD1CEFBD-BAB1-4C2A-A598-30E93F9A29F6";
paths = (
{
closed = 1;
nodes = (
"824 -16 OFFCURVE",
"1066 290 OFFCURVE",
"1066 736 CURVE SMOOTH",
"1066 1136 OFFCURVE",
"844 1490 OFFCURVE",
"494 1490 CURVE SMOOTH",
"362 1490 OFFCURVE",
"242 1434 OFFCURVE",
"148 1352 CURVE",
"216 1184 LINE",
"272 1264 OFFCURVE",
"374 1326 OFFCURVE",
"498 1326 CURVE SMOOTH",
"726 1326 OFFCURVE",
"886 1080 OFFCURVE",
"886 742 CURVE SMOOTH",
"886 392 OFFCURVE",
"726 148 OFFCURVE",
"508 148 CURVE SMOOTH",
"312 148 OFFCURVE",
"190 374 OFFCURVE",
"190 638 CURVE",
"926 638 LINE",
"926 802 LINE",
"18 802 LINE",
"18 672 LINE SMOOTH",
"18 284 OFFCURVE",
"206 -16 OFFCURVE",
"510 -16 CURVE SMOOTH"
);
}
);
width = 1080;
}
);
rightMetricsKey = O;
unicode = 018F;
},
{
glyphname = T;
lastChange = "2021-11-24 03:35:53 +0000";
layers = (
{
anchors = (
{
name = bottom;
position = "{542, 0}";
},
{
name = cedilla;
position = "{542, 0}";
},
{
name = center;
position = "{542, 738}";
},
{
name = top;
position = "{542, 1474}";
}
);
layerId = "AB099EFE-E788-4EFC-8633-CF147CB782A6";
paths = (
{
closed = 1;
nodes = (
"574 0 LINE",
"574 1432 LINE",
"510 1432 LINE",
"510 0 LINE"
);
},
{
closed = 1;
nodes = (
"984 1414 LINE",
"984 1474 LINE",
"96 1474 LINE",
"96 1414 LINE"
);
}
);
width = 1080;
},
{
anchors = (
{
name = bottom;
position = "{540, 0}";
},
{
name = cedilla;
position = "{540, 0}";
},
{
name = center;
position = "{540, 672}";
},
{
name = top;
position = "{540, 1474}";
}
);
layerId = "2D8F7115-C311-411E-929D-56333CF7FFB2";
paths = (
{
closed = 1;
nodes = (
"728 0 LINE",
"728 1196 LINE",
"352 1196 LINE",
"352 0 LINE"
);
},
{
closed = 1;
nodes = (
"1042 1146 LINE",
"1042 1474 LINE",
"38 1474 LINE",
"38 1146 LINE"
);
}
);
width = 1080;
},
{
anchors = (
{
name = bottom;
position = "{540, 0}";
},
{
name = cedilla;
position = "{534, 0}";
},
{
name = center;
position = "{540, 712}";
},
{
name = top;
position = "{540, 1474}";
}
);
layerId = "FD1CEFBD-BAB1-4C2A-A598-30E93F9A29F6";
paths = (
{
closed = 1;
nodes = (
"630 0 LINE",
"630 1344 LINE",
"450 1344 LINE",
"450 0 LINE"
);
},
{
closed = 1;
nodes = (
"1004 1310 LINE",
"1004 1474 LINE",
"76 1474 LINE",
"76 1310 LINE"
);
}
);
width = 1080;
}
);
unicode = 0054;
},
{
glyphname = U;
lastChange = "2021-11-24 03:35:53 +0000";
layers = (
{
anchors = (
{
name = bottom;
position = "{542, 0}";
},
{
name = horn;
position = "{890, 1474}";
},
{
name = ogonek;
position = "{644, 0}";
},
{
name = top;
position = "{542, 1474}";
}
);
layerId = "AB099EFE-E788-4EFC-8633-CF147CB782A6";
paths = (
{
closed = 1;
nodes = (
"162 176 OFFCURVE",
"316 -16 OFFCURVE",
"542 -16 CURVE SMOOTH",
"772 -16 OFFCURVE",
"920 176 OFFCURVE",
"920 476 CURVE SMOOTH",
"920 1474 LINE",
"856 1474 LINE",
"856 492 LINE SMOOTH",
"856 218 OFFCURVE",
"732 44 OFFCURVE",
"542 44 CURVE SMOOTH",
"354 44 OFFCURVE",
"226 218 OFFCURVE",
"226 492 CURVE SMOOTH",
"226 1474 LINE",
"162 1474 LINE",
"162 476 LINE SMOOTH"
);
}
);
width = 1080;
},
{
anchors = (
{
name = bottom;
position = "{540, 0}";
},
{
name = horn;
position = "{934, 1474}";
},
{
name = ogonek;
position = "{648, 0}";
},
{
name = top;
position = "{540, 1474}";
}
);
layerId = "2D8F7115-C311-411E-929D-56333CF7FFB2";
paths = (
{
closed = 1;
nodes = (
"68 222 OFFCURVE",
"254 -16 OFFCURVE",
"540 -16 CURVE SMOOTH",
"830 -16 OFFCURVE",
"1014 222 OFFCURVE",
"1014 586 CURVE SMOOTH",
"1014 1474 LINE",
"670 1474 LINE",
"670 552 LINE SMOOTH",
"670 410 OFFCURVE",
"620 312 OFFCURVE",
"540 312 CURVE SMOOTH",
"468 312 OFFCURVE",
"412 404 OFFCURVE",
"412 552 CURVE SMOOTH",
"412 1474 LINE",
"68 1474 LINE",
"68 586 LINE SMOOTH"
);
}
);
width = 1080;
},
{
anchors = (
{
name = bottom;
position = "{540, 0}";
},
{
name = horn;
position = "{906, 1474}";
},
{
name = ogonek;
position = "{644, 0}";
},
{
name = top;
position = "{540, 1474}";
}
);
layerId = "FD1CEFBD-BAB1-4C2A-A598-30E93F9A29F6";
paths = (
{
closed = 1;
nodes = (
"124 194 OFFCURVE",
"290 -16 OFFCURVE",
"540 -16 CURVE SMOOTH",
"794 -16 OFFCURVE",
"956 194 OFFCURVE",
"956 516 CURVE SMOOTH",
"956 1474 LINE",
"778 1474 LINE",
"778 516 LINE SMOOTH",
"778 298 OFFCURVE",
"686 148 OFFCURVE",
"540 148 CURVE SMOOTH",
"398 148 OFFCURVE",
"302 298 OFFCURVE",
"302 516 CURVE SMOOTH",
"302 1474 LINE",
"124 1474 LINE",
"124 516 LINE SMOOTH"
);
}
);
width = 1080;
}
);
leftMetricsKey = H;
rightMetricsKey = H;
unicode = 0055;
},
{
glyphname = V;
lastChange = "2021-11-24 08:20:26 +0000";
layers = (
{
anchors = (
{
name = bottom;
position = "{544, 0}";
},
{
name = top;
position = "{538, 1474}";
}
);
layerId = "AB099EFE-E788-4EFC-8633-CF147CB782A6";
paths = (
{
closed = 1;
nodes = (
"578 0 LINE",
"1064 1474 LINE",
"996 1474 LINE",
"710 600 LINE",
"544 78 LINE",
"538 78 LINE",
"372 600 LINE",
"84 1474 LINE",
"16 1474 LINE",
"506 0 LINE"
);
}
);
width = 1080;
},
{
anchors = (
{
name = bottom;
position = "{544, 0}";
},
{
name = top;
position = "{542, 1474}";
}
);
layerId = "2D8F7115-C311-411E-929D-56333CF7FFB2";
paths = (
{
closed = 1;
nodes = (
"720 0 LINE",
"1100 1474 LINE",
"720 1474 LINE",
"614 858 LINE",
"544 496 LINE",
"536 496 LINE",
"466 858 LINE",
"356 1474 LINE",
"-20 1474 LINE",
"360 0 LINE"
);
}
);
width = 1080;
},
{
anchors = (
{
name = bottom;
position = "{544, 0}";
},
{
name = top;
position = "{540, 1474}";
}
);
layerId = "FD1CEFBD-BAB1-4C2A-A598-30E93F9A29F6";
paths = (
{
closed = 1;
nodes = (
"632 0 LINE",
"1080 1474 LINE",
"890 1474 LINE",
"676 712 LINE",
"544 258 LINE",
"536 258 LINE",
"404 712 LINE",
"190 1474 LINE",
"0 1474 LINE",
"452 0 LINE"
);
}
);
width = 1080;
}
);
unicode = 0056;
},
{
glyphname = W;
lastChange = "2021-11-25 02:54:07 +0000";
layers = (
{
anchors = (
{
name = bottom;
position = "{540, 0}";
},
{
name = top;
position = "{540, 1474}";
}
);
layerId = "AB099EFE-E788-4EFC-8633-CF147CB782A6";
paths = (
{
closed = 1;
nodes = (
"252 0 LINE",
"328 0 LINE",
"536 884 LINE",
"544 884 LINE",
"748 0 LINE",
"828 0 LINE",
"1070 1474 LINE",
"1004 1474 LINE",
"818 264 LINE",
"792 96 LINE",
"784 96 LINE",
"560 1048 LINE",
"520 1048 LINE",
"296 96 LINE",
"288 96 LINE",
"262 264 LINE",
"78 1474 LINE",
"12 1474 LINE"
);
}
);
width = 1080;
},
{
anchors = (
{
name = bottom;
position = "{540, 0}";
},
{
name = top;
position = "{540, 1474}";
}
);
layerId = "2D8F7115-C311-411E-929D-56333CF7FFB2";
paths = (
{
closed = 1;
nodes = (
"150 0 LINE",
"414 0 LINE",
"536 578 LINE",
"544 578 LINE",
"664 0 LINE",
"934 0 LINE",
"1088 1474 LINE",
"788 1474 LINE",
"766 848 LINE",
"748 496 LINE",
"740 496 LINE",
"604 1080 LINE",
"476 1080 LINE",
"340 496 LINE",
"332 496 LINE",
"318 848 LINE",
"296 1474 LINE",
"-8 1474 LINE"
);
}
);
width = 1080;
},
{
anchors = (
{
name = bottom;
position = "{540, 0}";
},
{
name = top;
position = "{540, 1474}";
}
);
layerId = "FD1CEFBD-BAB1-4C2A-A598-30E93F9A29F6";
paths = (
{
closed = 1;
nodes = (
"168 0 LINE",
"340 0 LINE",
"536 652 LINE",
"544 652 LINE",
"740 0 LINE",
"914 0 LINE",
"1076 1474 LINE",
"870 1474 LINE",
"808 628 LINE",
"796 354 LINE",
"788 354 LINE",
"584 1060 LINE",
"496 1060 LINE",
"292 354 LINE",
"284 354 LINE",
"272 628 LINE",
"210 1474 LINE",
"4 1474 LINE"
);
}
);
width = 1080;
}
);
unicode = 0057;
},
{
color = 9;
glyphname = W.ss03;
lastChange = "2021-01-26 04:56:20 +0000";
layers = (
{
anchors = (
{
name = bottom;
position = "{938, -50}";
},
{
name = top;
position = "{930, 1544}";
}
);
layerId = "AB099EFE-E788-4EFC-8633-CF147CB782A6";
paths = (
{
closed = 1;
nodes = (
"466 0 LINE",
"550 0 LINE",
"714 600 LINE",
"922 1352 LINE",
"930 1352 LINE",
"1134 600 LINE",
"1302 0 LINE",
"1382 0 LINE",
"1784 1474 LINE",
"1716 1474 LINE",
"1482 592 LINE",
"1348 78 LINE",
"1340 78 LINE",
"1198 592 LINE",
"952 1474 LINE",
"898 1474 LINE",
"652 592 LINE",
"512 78 LINE",
"504 78 LINE",
"366 592 LINE",
"134 1474 LINE",
"66 1474 LINE"
);
}
);
width = 1850;
},
{
anchors = (
{
name = bottom;
position = "{1008, -50}";
},
{
name = top;
position = "{1000, 1524}";
}
);
layerId = "2D8F7115-C311-411E-929D-56333CF7FFB2";
paths = (
{
closed = 1;
nodes = (
"360 0 LINE",
"716 0 LINE",
"884 484 LINE",
"1000 812 LINE",
"1008 812 LINE",
"1118 484 LINE",
"1290 0 LINE",
"1642 0 LINE",
"1986 1474 LINE",
"1610 1474 LINE",
"1500 884 LINE",
"1438 492 LINE",
"1426 492 LINE",
"1328 812 LINE",
"1106 1474 LINE",
"898 1474 LINE",
"680 816 LINE",
"578 492 LINE",
"570 492 LINE",
"504 884 LINE",
"398 1474 LINE",
"16 1474 LINE"
);
}
);
width = 2002;
},
{
anchors = (
{
name = bottom;
position = "{954, -12}";
},
{
name = top;
position = "{950, 1490}";
}
);
layerId = "FD1CEFBD-BAB1-4C2A-A598-30E93F9A29F6";
paths = (
{
closed = 1;
nodes = (
"450 0 LINE",
"622 0 LINE",
"766 480 LINE",
"946 1094 LINE",
"954 1094 LINE",
"1134 480 LINE",
"1278 0 LINE",
"1450 0 LINE",
"1860 1474 LINE",
"1680 1474 LINE",
"1466 688 LINE",
"1368 274 LINE",
"1360 274 LINE",
"1232 708 LINE",
"1004 1474 LINE",
"898 1474 LINE",
"668 708 LINE",
"540 274 LINE",
"532 274 LINE",
"434 688 LINE",
"226 1474 LINE",
"40 1474 LINE"
);
}
);
width = 1900;
}
);
leftKerningGroup = LAT_W_UC;
rightKerningGroup = LAT_W_UC;
},
{
glyphname = X;
lastChange = "2021-11-24 03:35:53 +0000";
layers = (
{
anchors = (
{
name = bottom;
position = "{542, 0}";
},
{
name = top;
position = "{542, 1474}";
}
);
layerId = "AB099EFE-E788-4EFC-8633-CF147CB782A6";
paths = (
{
closed = 1;
nodes = (
"152 0 LINE",
"538 690 LINE",
"548 690 LINE",
"582 730 LINE",
"582 738 LINE",
"1006 1474 LINE",
"934 1474 LINE",
"544 784 LINE",
"534 784 LINE",
"500 742 LINE",
"500 734 LINE",
"76 0 LINE"
);
},
{
closed = 1;
nodes = (
"1006 0 LINE",
"582 734 LINE",
"582 742 LINE",
"548 784 LINE",
"538 784 LINE",
"148 1474 LINE",
"76 1474 LINE",
"500 738 LINE",
"500 730 LINE",
"534 690 LINE",
"544 690 LINE",
"930 0 LINE"
);
}
);
width = 1080;
},
{
anchors = (
{
name = bottom;
position = "{540, 0}";
},
{
name = top;
position = "{540, 1474}";
}
);
layerId = "2D8F7115-C311-411E-929D-56333CF7FFB2";
paths = (
{
closed = 1;
nodes = (
"356 0 LINE",
"538 462 LINE",
"544 462 LINE",
"780 738 LINE",
"780 742 LINE",
"1122 1474 LINE",
"720 1474 LINE",
"540 974 LINE",
"534 974 LINE",
"302 738 LINE",
"302 734 LINE",
"-50 0 LINE"
);
},
{
closed = 1;
nodes = (
"1130 0 LINE",
"780 734 LINE",
"780 738 LINE",
"544 974 LINE",
"538 974 LINE",
"356 1474 LINE",
"-42 1474 LINE",
"302 742 LINE",
"302 738 LINE",
"534 462 LINE",
"540 462 LINE",
"720 0 LINE"
);
}
);
width = 1080;
},
{
anchors = (
{
name = bottom;
position = "{540, 0}";
},
{
name = top;
position = "{540, 1474}";
}
);
layerId = "FD1CEFBD-BAB1-4C2A-A598-30E93F9A29F6";
paths = (
{
closed = 1;
nodes = (
"238 0 LINE",
"536 602 LINE",
"546 602 LINE",
"660 734 LINE",
"660 742 LINE",
"1046 1474 LINE",
"844 1474 LINE",
"544 860 LINE",
"532 860 LINE",
"420 742 LINE",
"420 734 LINE",
"26 0 LINE"
);
},
{
closed = 1;
nodes = (
"1054 0 LINE",
"660 734 LINE",
"660 742 LINE",
"546 860 LINE",
"536 860 LINE",
"236 1474 LINE",
"34 1474 LINE",
"420 742 LINE",
"420 734 LINE",
"532 602 LINE",
"544 602 LINE",
"840 0 LINE"
);
}
);
width = 1080;
}
);
unicode = 0058;
},
{
glyphname = Y;
lastChange = "2021-11-24 03:35:53 +0000";
layers = (
{
anchors = (
{
name = bottom;
position = "{540, 0}";
},
{
name = top;
position = "{540, 1474}";
}
);
layerId = "AB099EFE-E788-4EFC-8633-CF147CB782A6";
paths = (
{
closed = 1;
nodes = (
"508 0 LINE",
"572 0 LINE",
"572 680 LINE",
"1026 1474 LINE",
"954 1474 LINE",
"714 1042 LINE",
"544 748 LINE",
"536 748 LINE",
"366 1042 LINE",
"126 1474 LINE",
"54 1474 LINE",
"508 680 LINE"
);
}
);
width = 1080;
},
{
anchors = (
{
name = bottom;
position = "{540, 0}";
},
{
name = top;
position = "{540, 1474}";
}
);
layerId = "2D8F7115-C311-411E-929D-56333CF7FFB2";
paths = (
{
closed = 1;
nodes = (
"362 0 LINE",
"718 0 LINE",
"718 552 LINE",
"1134 1474 LINE",
"726 1474 LINE",
"644 1208 LINE",
"544 906 LINE",
"536 906 LINE",
"436 1208 LINE",
"354 1474 LINE",
"-54 1474 LINE",
"362 552 LINE"
);
}
);
width = 1080;
},
{
anchors = (
{
name = bottom;
position = "{540, 0}";
},
{
name = top;
position = "{540, 1474}";
}
);
layerId = "FD1CEFBD-BAB1-4C2A-A598-30E93F9A29F6";
paths = (
{
closed = 1;
nodes = (
"450 0 LINE",
"630 0 LINE",
"630 634 LINE",
"1068 1474 LINE",
"864 1474 LINE",
"686 1106 LINE",
"544 812 LINE",
"536 812 LINE",
"394 1106 LINE",
"216 1474 LINE",
"12 1474 LINE",
"450 634 LINE"
);
}
);
width = 1080;
}
);
unicode = 0059;
},
{
glyphname = Z;
lastChange = "2021-11-24 03:35:53 +0000";
layers = (
{
anchors = (
{
name = bottom;
position = "{566, 0}";
},
{
name = top;
position = "{560, 1474}";
}
);
guideLines = (
{
angle = 58;
position = "{142, 112}";
}
);
layerId = "AB099EFE-E788-4EFC-8633-CF147CB782A6";
paths = (
{
closed = 1;
nodes = (
"124 0 LINE",
"956 0 LINE",
"956 60 LINE",
"214 60 LINE",
"214 64 LINE",
"938 1438 LINE",
"938 1474 LINE",
"168 1474 LINE",
"168 1414 LINE",
"848 1414 LINE",
"848 1410 LINE",
"124 36 LINE"
);
}
);
width = 1080;
},
{
anchors = (
{
name = bottom;
position = "{536, 0}";
},
{
name = top;
position = "{536, 1474}";
}
);
guideLines = (
{
angle = 63;
position = "{158, 112}";
}
);
layerId = "2D8F7115-C311-411E-929D-56333CF7FFB2";
paths = (
{
closed = 1;
nodes = (
"36 0 LINE",
"1048 0 LINE",
"1048 324 LINE",
"572 324 LINE",
"572 328 LINE",
"1034 1422 LINE",
"1034 1474 LINE",
"56 1474 LINE",
"56 1150 LINE",
"502 1150 LINE",
"502 1146 LINE",
"36 50 LINE"
);
}
);
width = 1080;
},
{
anchors = (
{
name = bottom;
position = "{552, 0}";
},
{
name = top;
position = "{548, 1474}";
}
);
layerId = "FD1CEFBD-BAB1-4C2A-A598-30E93F9A29F6";
paths = (
{
closed = 1;
nodes = (
"90 0 LINE",
"988 0 LINE",
"988 164 LINE",
"362 164 LINE",
"362 168 LINE",
"978 1434 LINE",
"978 1474 LINE",
"126 1474 LINE",
"126 1310 LINE",
"706 1310 LINE",
"706 1306 LINE",
"90 40 LINE"
);
}
);
width = 1080;
}
);
unicode = 005A;
},
{
glyphname = a;
lastChange = "2021-11-24 05:28:51 +0000";
layers = (
{
anchors = (
{
name = bottom;
position = "{532, 0}";
},
{
name = ogonek;
position = "{954, -16}";
},
{
name = top;
position = "{548, 1048}";
}
);
layerId = "AB099EFE-E788-4EFC-8633-CF147CB782A6";
paths = (
{
closed = 1;
nodes = (
"612 -16 OFFCURVE",
"758 78 OFFCURVE",
"822 188 CURVE",
"806 180 LINE",
"830 180 LINE",
"822 188 LINE",
"836 94 OFFCURVE",
"895 30 OFFCURVE",
"962 -4 CURVE SMOOTH",
"986 -16 LINE",
"1008 38 LINE",
"1000 42 LINE SMOOTH",
"952 66 OFFCURVE",
"882 130 OFFCURVE",
"882 232 CURVE SMOOTH",
"882 684 LINE SMOOTH",
"882 896 OFFCURVE",
"804 1064 OFFCURVE",
"532 1064 CURVE SMOOTH",
"430 1064 OFFCURVE",
"272 1014 OFFCURVE",
"192 950 CURVE",
"220 900 LINE",
"298 960 OFFCURVE",
"440 1008 OFFCURVE",
"528 1008 CURVE SMOOTH",
"754 1008 OFFCURVE",
"822 880 OFFCURVE",
"822 692 CURVE SMOOTH",
"822 562 LINE",
"822 552 LINE",
"822 360 LINE SMOOTH",
"822 194 OFFCURVE",
"626 40 OFFCURVE",
"450 40 CURVE SMOOTH",
"302 40 OFFCURVE",
"190 148 OFFCURVE",
"190 282 CURVE SMOOTH",
"190 438 OFFCURVE",
"336 550 OFFCURVE",
"646 550 CURVE SMOOTH",
"844 550 LINE",
"844 606 LINE",
"646 606 LINE SMOOTH",
"302 606 OFFCURVE",
"130 476 OFFCURVE",
"130 282 CURVE SMOOTH",
"130 112 OFFCURVE",
"266 -16 OFFCURVE",
"450 -16 CURVE SMOOTH"
);
}
);
width = 1080;
},
{
anchors = (
{
name = bottom;
position = "{510, 0}";
},
{
name = ogonek;
position = "{908, -16}";
},
{
name = top;
position = "{536, 1080}";
}
);
layerId = "2D8F7115-C311-411E-929D-56333CF7FFB2";
paths = (
{
closed = 1;
nodes = (
"528 -16 OFFCURVE",
"664 58 OFFCURVE",
"698 140 CURVE",
"592 118 LINE",
"752 118 LINE",
"662 180 LINE",
"680 100 OFFCURVE",
"794 30 OFFCURVE",
"906 -4 CURVE SMOOTH",
"946 -16 LINE",
"1070 278 LINE",
"1048 286 LINE SMOOTH",
"1004 302 OFFCURVE",
"958 336 OFFCURVE",
"958 398 CURVE SMOOTH",
"958 712 LINE SMOOTH",
"958 818 OFFCURVE",
"966 1098 OFFCURVE",
"522 1098 CURVE SMOOTH",
"320 1098 OFFCURVE",
"170 1040 OFFCURVE",
"102 996 CURVE",
"222 734 LINE",
"286 778 OFFCURVE",
"408 816 OFFCURVE",
"478 816 CURVE SMOOTH",
"550 816 OFFCURVE",
"626 776 OFFCURVE",
"626 708 CURVE SMOOTH",
"626 552 LINE",
"638 512 LINE",
"638 372 LINE SMOOTH",
"638 276 OFFCURVE",
"544 246 OFFCURVE",
"492 246 CURVE SMOOTH",
"432 246 OFFCURVE",
"406 284 OFFCURVE",
"406 340 CURVE SMOOTH",
"406 404 OFFCURVE",
"438 438 OFFCURVE",
"516 438 CURVE SMOOTH",
"674 438 LINE",
"674 652 LINE",
"430 652 LINE SMOOTH",
"214 652 OFFCURVE",
"56 510 OFFCURVE",
"56 308 CURVE SMOOTH",
"56 132 OFFCURVE",
"178 -16 OFFCURVE",
"384 -16 CURVE SMOOTH"
);
}
);
width = 1080;
},
{
anchors = (
{
name = bottom;
position = "{536, 0}";
},
{
name = ogonek;
position = "{942, -16}";
},
{
name = top;
position = "{544, 1060}";
}
);
layerId = "FD1CEFBD-BAB1-4C2A-A598-30E93F9A29F6";
paths = (
{
closed = 1;
nodes = (
"606 -16 OFFCURVE",
"724 70 OFFCURVE",
"776 176 CURVE",
"732 148 LINE",
"798 148 LINE",
"764 160 LINE",
"764 98 OFFCURVE",
"863 28 OFFCURVE",
"938 -4 CURVE SMOOTH",
"966 -16 LINE",
"1032 140 LINE",
"1012 148 LINE SMOOTH",
"962 168 OFFCURVE",
"908 218 OFFCURVE",
"908 308 CURVE SMOOTH",
"908 680 LINE SMOOTH",
"908 890 OFFCURVE",
"836 1076 OFFCURVE",
"548 1076 CURVE SMOOTH",
"414 1076 OFFCURVE",
"268 1034 OFFCURVE",
"162 972 CURVE",
"228 818 LINE",
"310 876 OFFCURVE",
"434 916 OFFCURVE",
"532 916 CURVE SMOOTH",
"754 916 OFFCURVE",
"744 746 OFFCURVE",
"744 676 CURVE SMOOTH",
"744 558 LINE",
"748 496 LINE",
"748 386 LINE SMOOTH",
"748 222 OFFCURVE",
"590 132 OFFCURVE",
"458 132 CURVE SMOOTH",
"354 132 OFFCURVE",
"270 194 OFFCURVE",
"270 300 CURVE SMOOTH",
"270 456 OFFCURVE",
"416 492 OFFCURVE",
"566 492 CURVE SMOOTH",
"780 492 LINE",
"780 630 LINE",
"554 630 LINE SMOOTH",
"228 630 OFFCURVE",
"102 492 OFFCURVE",
"102 300 CURVE SMOOTH",
"102 102 OFFCURVE",
"248 -16 OFFCURVE",
"438 -16 CURVE SMOOTH"
);
}
);
width = 1080;
}
);
unicode = 0061;
},
{
color = 4;
glyphname = a.ss01;
lastChange = "2021-11-24 03:35:53 +0000";
layers = (
{
anchors = (
{
name = bottom;
position = "{522, 0}";
},
{
name = center;
position = "{542, 524}";
},
{
name = ogonek;
position = "{942, 0}";
},
{
name = top;
position = "{542, 1048}";
},
{
name = topright;
position = "{1066, 1048}";
}
);
layerId = "AB099EFE-E788-4EFC-8633-CF147CB782A6";
paths = (
{
closed = 1;
nodes = (
"942 0 LINE",
"942 1048 LINE",
"882 1048 LINE",
"882 810 LINE",
"864 810 LINE",
"886 760 LINE",
"886 288 LINE",
"860 240 LINE",
"882 240 LINE",
"882 0 LINE"
);
},
{
closed = 1;
nodes = (
"750 -16 OFFCURVE",
"936 200 OFFCURVE",
"936 524 CURVE SMOOTH",
"936 850 OFFCURVE",
"750 1064 OFFCURVE",
"516 1064 CURVE SMOOTH",
"282 1064 OFFCURVE",
"96 850 OFFCURVE",
"96 524 CURVE SMOOTH",
"96 200 OFFCURVE",
"282 -16 OFFCURVE",
"516 -16 CURVE SMOOTH"
);
},
{
closed = 1;
nodes = (
"316 40 OFFCURVE",
"156 234 OFFCURVE",
"156 524 CURVE SMOOTH",
"156 820 OFFCURVE",
"314 1008 OFFCURVE",
"518 1008 CURVE SMOOTH",
"724 1008 OFFCURVE",
"884 820 OFFCURVE",
"884 524 CURVE SMOOTH",
"884 236 OFFCURVE",
"724 40 OFFCURVE",
"518 40 CURVE SMOOTH"
);
}
);
width = 1080;
},
{
anchors = (
{
name = bottom;
position = "{564, 0}";
},
{
name = center;
position = "{558, 540}";
},
{
name = ogonek;
position = "{1012, 0}";
},
{
name = top;
position = "{574, 1080}";
},
{
name = topright;
position = "{1080, 1080}";
}
);
layerId = "2D8F7115-C311-411E-929D-56333CF7FFB2";
paths = (
{
closed = 1;
nodes = (
"1012 0 LINE",
"1012 1082 LINE",
"684 1082 LINE",
"684 966 LINE",
"646 966 LINE",
"686 860 LINE",
"686 180 LINE",
"656 122 LINE",
"684 122 LINE",
"684 0 LINE"
);
},
{
closed = 1;
nodes = (
"658 -16 OFFCURVE",
"806 230 OFFCURVE",
"806 540 CURVE SMOOTH",
"806 868 OFFCURVE",
"668 1096 OFFCURVE",
"440 1096 CURVE SMOOTH",
"192 1096 OFFCURVE",
"18 860 OFFCURVE",
"18 540 CURVE SMOOTH",
"18 218 OFFCURVE",
"188 -16 OFFCURVE",
"426 -16 CURVE SMOOTH"
);
},
{
closed = 1;
nodes = (
"416 286 OFFCURVE",
"350 394 OFFCURVE",
"350 540 CURVE SMOOTH",
"350 690 OFFCURVE",
"416 792 OFFCURVE",
"514 792 CURVE SMOOTH",
"610 792 OFFCURVE",
"678 690 OFFCURVE",
"678 540 CURVE SMOOTH",
"678 392 OFFCURVE",
"610 286 OFFCURVE",
"514 286 CURVE SMOOTH"
);
}
);
width = 1080;
},
{
anchors = (
{
name = bottom;
position = "{536, 0}";
},
{
name = center;
position = "{546, 536}";
},
{
name = ogonek;
position = "{966, 0}";
},
{
name = top;
position = "{554, 1060}";
},
{
name = topright;
position = "{1058, 1060}";
}
);
layerId = "FD1CEFBD-BAB1-4C2A-A598-30E93F9A29F6";
paths = (
{
closed = 1;
nodes = (
"966 0 LINE",
"966 1060 LINE",
"796 1060 LINE",
"796 910 LINE",
"772 910 LINE",
"810 852 LINE",
"810 208 LINE",
"772 152 LINE",
"796 152 LINE",
"796 0 LINE"
);
},
{
closed = 1;
nodes = (
"746 -16 OFFCURVE",
"894 236 OFFCURVE",
"894 532 CURVE SMOOTH",
"894 856 OFFCURVE",
"734 1076 OFFCURVE",
"492 1076 CURVE SMOOTH",
"248 1076 OFFCURVE",
"60 854 OFFCURVE",
"60 532 CURVE SMOOTH",
"60 210 OFFCURVE",
"246 -16 OFFCURVE",
"490 -16 CURVE SMOOTH"
);
},
{
closed = 1;
nodes = (
"350 144 OFFCURVE",
"234 318 OFFCURVE",
"234 532 CURVE SMOOTH",
"234 754 OFFCURVE",
"358 916 OFFCURVE",
"520 916 CURVE SMOOTH",
"682 916 OFFCURVE",
"802 758 OFFCURVE",
"802 530 CURVE SMOOTH",
"802 294 OFFCURVE",
"676 144 OFFCURVE",
"518 144 CURVE SMOOTH"
);
}
);
width = 1080;
}
);
leftMetricsKey = o;
},
{
color = 6;
glyphname = a.ss02;
lastChange = "2021-11-24 03:35:53 +0000";
layers = (
{
anchors = (
{
name = bottom;
position = "{518, 0}";
},
{
name = ogonek;
position = "{964, -16}";
},
{
name = top;
position = "{520, 1048}";
},
{
name = topright;
position = "{1018, 1048}";
}
);
layerId = "AB099EFE-E788-4EFC-8633-CF147CB782A6";
paths = (
{
closed = 1;
nodes = (
"988 38 LINE",
"930 72 OFFCURVE",
"906 114 OFFCURVE",
"906 220 CURVE SMOOTH",
"906 1048 LINE",
"846 1048 LINE",
"846 834 LINE",
"824 834 LINE",
"850 748 LINE",
"850 294 LINE",
"828 222 LINE",
"854 222 LINE",
"848 234 LINE",
"850 88 OFFCURVE",
"882 40 OFFCURVE",
"964 -16 CURVE"
);
},
{
closed = 1;
nodes = (
"716 -16 OFFCURVE",
"900 160 OFFCURVE",
"900 528 CURVE SMOOTH",
"900 898 OFFCURVE",
"720 1064 OFFCURVE",
"502 1064 CURVE SMOOTH",
"262 1064 OFFCURVE",
"100 864 OFFCURVE",
"100 524 CURVE SMOOTH",
"100 188 OFFCURVE",
"264 -16 OFFCURVE",
"502 -16 CURVE SMOOTH"
);
},
{
closed = 1;
nodes = (
"306 38 OFFCURVE",
"160 232 OFFCURVE",
"160 524 CURVE SMOOTH",
"160 826 OFFCURVE",
"302 1010 OFFCURVE",
"502 1010 CURVE SMOOTH",
"684 1010 OFFCURVE",
"846 850 OFFCURVE",
"846 524 CURVE SMOOTH",
"846 246 OFFCURVE",
"704 38 OFFCURVE",
"502 38 CURVE SMOOTH"
);
}
);
width = 1080;
},
{
anchors = (
{
name = bottom;
position = "{518, 0}";
},
{
name = ogonek;
position = "{942, -16}";
},
{
name = top;
position = "{516, 1080}";
},
{
name = topright;
position = "{1042, 1080}";
}
);
layerId = "2D8F7115-C311-411E-929D-56333CF7FFB2";
paths = (
{
closed = 1;
nodes = (
"1064 278 LINE",
"1006 304 OFFCURVE",
"992 318 OFFCURVE",
"992 418 CURVE SMOOTH",
"992 1080 LINE",
"662 1080 LINE",
"662 982 LINE",
"620 982 LINE",
"660 886 LINE",
"660 274 LINE",
"624 144 LINE",
"704 144 LINE",
"690 160 LINE",
"724 76 OFFCURVE",
"814 20 OFFCURVE",
"942 -16 CURVE"
);
},
{
closed = 1;
nodes = (
"644 -16 OFFCURVE",
"826 246 OFFCURVE",
"826 552 CURVE SMOOTH",
"826 848 OFFCURVE",
"660 1098 OFFCURVE",
"422 1098 CURVE SMOOTH",
"228 1098 OFFCURVE",
"16 914 OFFCURVE",
"16 536 CURVE SMOOTH",
"16 152 OFFCURVE",
"232 -16 OFFCURVE",
"410 -16 CURVE SMOOTH"
);
},
{
closed = 1;
nodes = (
"410 278 OFFCURVE",
"352 382 OFFCURVE",
"352 544 CURVE SMOOTH",
"352 708 OFFCURVE",
"416 802 OFFCURVE",
"506 802 CURVE SMOOTH",
"594 802 OFFCURVE",
"652 706 OFFCURVE",
"652 544 CURVE SMOOTH",
"652 380 OFFCURVE",
"586 278 OFFCURVE",
"498 278 CURVE SMOOTH"
);
}
);
width = 1080;
},
{
anchors = (
{
name = bottom;
position = "{532, 0}";
},
{
name = ogonek;
position = "{954, -16}";
},
{
name = top;
position = "{542, 1060}";
},
{
name = topright;
position = "{1040, 1060}";
}
);
layerId = "FD1CEFBD-BAB1-4C2A-A598-30E93F9A29F6";
paths = (
{
closed = 1;
nodes = (
"1018 140 LINE",
"958 168 OFFCURVE",
"944 206 OFFCURVE",
"944 300 CURVE SMOOTH",
"944 1060 LINE",
"774 1060 LINE",
"774 928 LINE",
"724 928 LINE",
"794 824 LINE",
"794 290 LINE",
"748 164 LINE",
"834 164 LINE",
"792 196 LINE",
"802 86 OFFCURVE",
"860 34 OFFCURVE",
"954 -16 CURVE"
);
},
{
closed = 1;
nodes = (
"714 -16 OFFCURVE",
"886 214 OFFCURVE",
"886 532 CURVE SMOOTH",
"886 856 OFFCURVE",
"716 1078 OFFCURVE",
"482 1078 CURVE SMOOTH",
"260 1078 OFFCURVE",
"66 866 OFFCURVE",
"66 532 CURVE SMOOTH",
"66 200 OFFCURVE",
"262 -16 OFFCURVE",
"482 -16 CURVE SMOOTH"
);
},
{
closed = 1;
nodes = (
"354 140 OFFCURVE",
"240 308 OFFCURVE",
"240 532 CURVE SMOOTH",
"240 762 OFFCURVE",
"354 922 OFFCURVE",
"516 922 CURVE SMOOTH",
"664 922 OFFCURVE",
"786 772 OFFCURVE",
"786 532 CURVE SMOOTH",
"786 308 OFFCURVE",
"670 140 OFFCURVE",
"516 140 CURVE SMOOTH"
);
}
);
width = 1080;
}
);
leftMetricsKey = o;
rightMetricsKey = u;
},
{
glyphname = ae;
lastChange = "2021-11-24 03:35:53 +0000";
layers = (
{
anchors = (
{
name = bottom;
position = "{520, 0}";
},
{
name = top;
position = "{510, 1048}";
}
);
layerId = "AB099EFE-E788-4EFC-8633-CF147CB782A6";
paths = (
{
closed = 1;
nodes = (
"382 -16 OFFCURVE",
"486 122 OFFCURVE",
"516 294 CURVE",
"504 294 LINE",
"552 102 OFFCURVE",
"652 -16 OFFCURVE",
"796 -16 CURVE SMOOTH",
"890 -16 OFFCURVE",
"982 40 OFFCURVE",
"1044 118 CURVE",
"1020 174 LINE",
"964 104 OFFCURVE",
"886 40 OFFCURVE",
"796 40 CURVE SMOOTH",
"644 40 OFFCURVE",
"530 234 OFFCURVE",
"530 538 CURVE SMOOTH",
"530 834 OFFCURVE",
"638 1008 OFFCURVE",
"782 1008 CURVE SMOOTH",
"938 1008 OFFCURVE",
"1026 824 OFFCURVE",
"1024 570 CURVE",
"518 570 LINE",
"520 514 LINE",
"1082 514 LINE",
"1084 530 OFFCURVE",
"1086 546 OFFCURVE",
"1086 572 CURVE SMOOTH",
"1086 872 OFFCURVE",
"960 1064 OFFCURVE",
"782 1064 CURVE SMOOTH",
"662 1064 OFFCURVE",
"558 968 OFFCURVE",
"508 780 CURVE",
"524 780 LINE",
"508 944 OFFCURVE",
"446 1064 OFFCURVE",
"296 1064 CURVE SMOOTH",
"200 1064 OFFCURVE",
"98 1016 OFFCURVE",
"38 950 CURVE",
"64 900 LINE",
"120 964 OFFCURVE",
"212 1008 OFFCURVE",
"292 1008 CURVE SMOOTH",
"474 1008 OFFCURVE",
"474 786 OFFCURVE",
"474 694 CURVE SMOOTH",
"474 398 LINE SMOOTH",
"474 158 OFFCURVE",
"344 40 OFFCURVE",
"232 40 CURVE SMOOTH",
"132 40 OFFCURVE",
"56 140 OFFCURVE",
"56 274 CURVE SMOOTH",
"56 426 OFFCURVE",
"150 514 OFFCURVE",
"338 514 CURVE SMOOTH",
"486 514 LINE",
"486 570 LINE",
"340 570 LINE SMOOTH",
"122 570 OFFCURVE",
"-4 472 OFFCURVE",
"-4 274 CURVE SMOOTH",
"-4 98 OFFCURVE",
"98 -16 OFFCURVE",
"234 -16 CURVE SMOOTH"
);
}
);
width = 1080;
},
{
anchors = (
{
name = bottom;
position = "{546, 0}";
},
{
name = top;
position = "{556, 1080}";
}
);
background = {
components = (
{
name = a;
transform = "{0.99782, 0, 0, 1, 0, 0}";
},
{
name = e;
transform = "{0.94969, 0, 0, 1, 678, 0}";
}
);
};
layerId = "2D8F7115-C311-411E-929D-56333CF7FFB2";
paths = (
{
closed = 1;
nodes = (
"434 -16 OFFCURVE",
"558 136 OFFCURVE",
"560 226 CURVE",
"482 226 LINE",
"544 82 OFFCURVE",
"658 -16 OFFCURVE",
"806 -16 CURVE SMOOTH",
"908 -16 OFFCURVE",
"1014 20 OFFCURVE",
"1064 70 CURVE",
"968 328 LINE",
"920 280 OFFCURVE",
"876 254 OFFCURVE",
"824 254 CURVE SMOOTH",
"796 254 OFFCURVE",
"636 284 OFFCURVE",
"636 552 CURVE SMOOTH",
"636 774 OFFCURVE",
"734 836 OFFCURVE",
"776 836 CURVE SMOOTH",
"832 836 OFFCURVE",
"880 748 OFFCURVE",
"880 644 CURVE",
"604 644 LINE",
"622 442 LINE",
"1138 442 LINE",
"1146 484 OFFCURVE",
"1150 516 OFFCURVE",
"1150 574 CURVE SMOOTH",
"1150 962 OFFCURVE",
"938 1096 OFFCURVE",
"796 1096 CURVE SMOOTH",
"694 1096 OFFCURVE",
"530 1026 OFFCURVE",
"514 902 CURVE",
"612 902 LINE",
"576 1008 OFFCURVE",
"492 1096 OFFCURVE",
"302 1096 CURVE SMOOTH",
"144 1096 OFFCURVE",
"32 1040 OFFCURVE",
"-20 996 CURVE",
"78 734 LINE",
"118 774 OFFCURVE",
"198 824 OFFCURVE",
"296 824 CURVE SMOOTH",
"434 824 OFFCURVE",
"408 704 OFFCURVE",
"408 622 CURVE SMOOTH",
"408 418 LINE SMOOTH",
"408 310 OFFCURVE",
"380 238 OFFCURVE",
"310 238 CURVE SMOOTH",
"266 238 OFFCURVE",
"238 270 OFFCURVE",
"238 336 CURVE SMOOTH",
"238 438 OFFCURVE",
"330 442 OFFCURVE",
"296 442 CURVE SMOOTH",
"438 442 LINE",
"438 644 LINE",
"222 644 LINE SMOOTH",
"50 644 OFFCURVE",
"-70 516 OFFCURVE",
"-70 324 CURVE SMOOTH",
"-70 150 OFFCURVE",
"34 -16 OFFCURVE",
"236 -16 CURVE SMOOTH"
);
}
);
width = 1080;
},
{
anchors = (
{
name = bottom;
position = "{538, 0}";
},
{
name = top;
position = "{536, 1060}";
}
);
layerId = "FD1CEFBD-BAB1-4C2A-A598-30E93F9A29F6";
paths = (
{
closed = 1;
nodes = (
"414 -16 OFFCURVE",
"520 120 OFFCURVE",
"546 246 CURVE",
"504 246 LINE",
"562 86 OFFCURVE",
"662 -16 OFFCURVE",
"804 -16 CURVE SMOOTH",
"902 -16 OFFCURVE",
"998 34 OFFCURVE",
"1052 102 CURVE",
"996 250 LINE",
"944 180 OFFCURVE",
"880 140 OFFCURVE",
"808 140 CURVE SMOOTH",
"700 140 OFFCURVE",
"586 276 OFFCURVE",
"586 536 CURVE SMOOTH",
"586 790 OFFCURVE",
"682 920 OFFCURVE",
"782 920 CURVE SMOOTH",
"892 920 OFFCURVE",
"960 786 OFFCURVE",
"958 610 CURVE",
"566 610 LINE",
"570 470 LINE",
"1102 470 LINE",
"1108 494 OFFCURVE",
"1110 526 OFFCURVE",
"1110 568 CURVE SMOOTH",
"1110 890 OFFCURVE",
"960 1076 OFFCURVE",
"790 1076 CURVE SMOOTH",
"680 1076 OFFCURVE",
"562 996 OFFCURVE",
"518 864 CURVE",
"566 864 LINE",
"538 990 OFFCURVE",
"464 1076 OFFCURVE",
"304 1076 CURVE SMOOTH",
"188 1076 OFFCURVE",
"74 1032 OFFCURVE",
"20 974 CURVE",
"76 828 LINE",
"120 880 OFFCURVE",
"212 920 OFFCURVE",
"300 920 CURVE SMOOTH",
"454 920 OFFCURVE",
"450 778 OFFCURVE",
"450 614 CURVE SMOOTH",
"450 390 LINE SMOOTH",
"450 238 OFFCURVE",
"362 140 OFFCURVE",
"268 140 CURVE SMOOTH",
"196 140 OFFCURVE",
"138 198 OFFCURVE",
"138 304 CURVE SMOOTH",
"138 410 OFFCURVE",
"212 470 OFFCURVE",
"310 470 CURVE SMOOTH",
"474 470 LINE",
"474 610 LINE",
"290 610 LINE SMOOTH",
"96 610 OFFCURVE",
"-28 500 OFFCURVE",
"-28 300 CURVE SMOOTH",
"-28 106 OFFCURVE",
"84 -16 OFFCURVE",
"244 -16 CURVE SMOOTH"
);
}
);
width = 1080;
}
);
leftMetricsKey = a;
rightMetricsKey = e;
unicode = 00E6;
},
{
glyphname = b;
lastChange = "2021-11-24 07:18:33 +0000";
layers = (
{
anchors = (
{
name = bottom;
position = "{546, 0}";
},
{
name = center;
position = "{190, 1262}";
},
{
name = top;
position = "{590, 1156}";
}
);
layerId = "AB099EFE-E788-4EFC-8633-CF147CB782A6";
paths = (
{
closed = 1;
nodes = (
"164 0 LINE",
"224 0 LINE",
"224 224 LINE",
"252 224 LINE",
"214 312 LINE",
"214 728 LINE",
"242 834 LINE",
"224 834 LINE",
"224 1540 LINE",
"164 1540 LINE"
);
},
{
closed = 1;
nodes = (
"811 -16 OFFCURVE",
"968 196 OFFCURVE",
"968 524 CURVE SMOOTH",
"968 852 OFFCURVE",
"811 1064 OFFCURVE",
"568 1064 CURVE SMOOTH",
"328 1064 OFFCURVE",
"172 853 OFFCURVE",
"172 528 CURVE SMOOTH",
"172 198 OFFCURVE",
"328 -16 OFFCURVE",
"568 -16 CURVE SMOOTH"
);
},
{
closed = 1;
nodes = (
"360 38 OFFCURVE",
"226 229 OFFCURVE",
"226 524 CURVE SMOOTH",
"226 819 OFFCURVE",
"360 1010 OFFCURVE",
"566 1010 CURVE SMOOTH",
"774 1010 OFFCURVE",
"908 819 OFFCURVE",
"908 524 CURVE SMOOTH",
"908 229 OFFCURVE",
"774 38 OFFCURVE",
"568 38 CURVE SMOOTH"
);
}
);
width = 1080;
},
{
anchors = (
{
name = bottom;
position = "{548, 0}";
},
{
name = center;
position = "{246, 1298}";
},
{
name = top;
position = "{696, 1164}";
}
);
layerId = "2D8F7115-C311-411E-929D-56333CF7FFB2";
paths = (
{
closed = 1;
nodes = (
"72 0 LINE",
"402 0 LINE",
"402 114 LINE",
"446 114 LINE",
"406 226 LINE",
"406 816 LINE",
"448 1000 LINE",
"424 1000 LINE",
"424 1540 LINE",
"72 1540 LINE"
);
},
{
closed = 1;
nodes = (
"897 -16 OFFCURVE",
"1058 209 OFFCURVE",
"1058 536 CURVE SMOOTH",
"1058 869 OFFCURVE",
"892 1098 OFFCURVE",
"650 1098 CURVE SMOOTH",
"409 1098 OFFCURVE",
"244 876 OFFCURVE",
"244 552 CURVE SMOOTH",
"244 215 OFFCURVE",
"414 -16 OFFCURVE",
"662 -16 CURVE SMOOTH"
);
},
{
closed = 1;
nodes = (
"482 278 OFFCURVE",
"418 386 OFFCURVE",
"418 544 CURVE SMOOTH",
"418 697 OFFCURVE",
"478 802 OFFCURVE",
"566 802 CURVE SMOOTH",
"657 802 OFFCURVE",
"720 697 OFFCURVE",
"720 544 CURVE SMOOTH",
"720 386 OFFCURVE",
"661 278 OFFCURVE",
"574 278 CURVE SMOOTH"
);
}
);
width = 1080;
},
{
anchors = (
{
name = bottom;
position = "{550, 0}";
},
{
name = center;
position = "{214, 1278}";
},
{
name = top;
position = "{634, 1160}";
}
);
layerId = "FD1CEFBD-BAB1-4C2A-A598-30E93F9A29F6";
paths = (
{
closed = 1;
nodes = (
"128 0 LINE",
"298 0 LINE",
"298 144 LINE",
"326 144 LINE",
"278 246 LINE",
"278 816 LINE",
"316 926 LINE",
"300 926 LINE",
"300 1540 LINE",
"128 1540 LINE"
);
},
{
closed = 1;
nodes = (
"847 -16 OFFCURVE",
"1010 199 OFFCURVE",
"1010 532 CURVE SMOOTH",
"1010 863 OFFCURVE",
"846 1078 OFFCURVE",
"592 1078 CURVE SMOOTH",
"347 1078 OFFCURVE",
"188 863 OFFCURVE",
"188 532 CURVE SMOOTH",
"188 199 OFFCURVE",
"348 -16 OFFCURVE",
"594 -16 CURVE SMOOTH"
);
},
{
closed = 1;
nodes = (
"394 140 OFFCURVE",
"286 294 OFFCURVE",
"286 532 CURVE SMOOTH",
"286 769 OFFCURVE",
"393 922 OFFCURVE",
"558 922 CURVE SMOOTH",
"727 922 OFFCURVE",
"836 769 OFFCURVE",
"836 532 CURVE SMOOTH",
"836 294 OFFCURVE",
"728 140 OFFCURVE",
"560 140 CURVE SMOOTH"
);
}
);
width = 1080;
}
);
leftMetricsKey = h;
rightMetricsKey = o;
unicode = 0062;
},
{
color = 4;
glyphname = b.ss01;
lastChange = "2021-11-24 03:35:53 +0000";
layers = (
{
anchors = (
{
name = bottom;
position = "{520, 0}";
},
{
name = center;
position = "{178, 1262}";
},
{
name = top;
position = "{564, 1156}";
}
);
layerId = "AB099EFE-E788-4EFC-8633-CF147CB782A6";
paths = (
{
closed = 1;
nodes = (
"148 0 LINE",
"208 0 LINE",
"208 240 LINE",
"226 240 LINE",
"204 272 LINE",
"204 744 LINE",
"220 804 LINE",
"208 804 LINE",
"208 1540 LINE",
"148 1540 LINE"
);
},
{
closed = 1;
nodes = (
"802 -16 OFFCURVE",
"986 200 OFFCURVE",
"986 524 CURVE SMOOTH",
"986 850 OFFCURVE",
"802 1064 OFFCURVE",
"570 1064 CURVE SMOOTH",
"338 1064 OFFCURVE",
"154 848 OFFCURVE",
"154 524 CURVE SMOOTH",
"154 200 OFFCURVE",
"338 -16 OFFCURVE",
"570 -16 CURVE SMOOTH"
);
},
{
closed = 1;
nodes = (
"364 40 OFFCURVE",
"206 236 OFFCURVE",
"206 524 CURVE SMOOTH",
"206 820 OFFCURVE",
"364 1008 OFFCURVE",
"568 1008 CURVE SMOOTH",
"770 1008 OFFCURVE",
"926 818 OFFCURVE",
"926 524 CURVE SMOOTH",
"926 234 OFFCURVE",
"768 40 OFFCURVE",
"568 40 CURVE SMOOTH"
);
}
);
width = 1080;
},
{
anchors = (
{
name = bottom;
position = "{540, 0}";
},
{
name = center;
position = "{238, 1298}";
},
{
name = top;
position = "{688, 1164}";
}
);
layerId = "2D8F7115-C311-411E-929D-56333CF7FFB2";
paths = (
{
closed = 1;
nodes = (
"66 0 LINE",
"394 0 LINE",
"394 122 LINE",
"440 122 LINE",
"386 226 LINE",
"386 816 LINE",
"440 992 LINE",
"416 992 LINE",
"416 1540 LINE",
"66 1540 LINE"
);
},
{
closed = 1;
nodes = (
"890 -16 OFFCURVE",
"1062 218 OFFCURVE",
"1062 540 CURVE SMOOTH",
"1062 860 OFFCURVE",
"886 1096 OFFCURVE",
"638 1096 CURVE SMOOTH",
"408 1096 OFFCURVE",
"268 868 OFFCURVE",
"268 540 CURVE SMOOTH",
"268 226 OFFCURVE",
"418 -16 OFFCURVE",
"652 -16 CURVE SMOOTH"
);
},
{
closed = 1;
nodes = (
"464 286 OFFCURVE",
"396 394 OFFCURVE",
"396 540 CURVE SMOOTH",
"396 690 OFFCURVE",
"466 792 OFFCURVE",
"562 792 CURVE SMOOTH",
"662 792 OFFCURVE",
"730 690 OFFCURVE",
"730 540 CURVE SMOOTH",
"730 392 OFFCURVE",
"660 286 OFFCURVE",
"562 286 CURVE SMOOTH"
);
}
);
width = 1080;
},
{
anchors = (
{
name = bottom;
position = "{528, 0}";
},
{
name = center;
position = "{200, 1278}";
},
{
name = top;
position = "{608, 1160}";
}
);
layerId = "FD1CEFBD-BAB1-4C2A-A598-30E93F9A29F6";
paths = (
{
closed = 1;
nodes = (
"114 0 LINE",
"284 0 LINE",
"284 156 LINE",
"308 156 LINE",
"280 212 LINE",
"280 806 LINE",
"304 910 LINE",
"286 910 LINE",
"286 1540 LINE",
"114 1540 LINE"
);
},
{
closed = 1;
nodes = (
"836 -16 OFFCURVE",
"1022 210 OFFCURVE",
"1022 532 CURVE SMOOTH",
"1022 856 OFFCURVE",
"832 1076 OFFCURVE",
"592 1076 CURVE SMOOTH",
"350 1076 OFFCURVE",
"186 856 OFFCURVE",
"186 532 CURVE SMOOTH",
"186 234 OFFCURVE",
"338 -16 OFFCURVE",
"592 -16 CURVE SMOOTH"
);
},
{
closed = 1;
nodes = (
"404 144 OFFCURVE",
"280 296 OFFCURVE",
"280 530 CURVE SMOOTH",
"280 760 OFFCURVE",
"402 916 OFFCURVE",
"562 916 CURVE SMOOTH",
"724 916 OFFCURVE",
"848 754 OFFCURVE",
"848 532 CURVE SMOOTH",
"848 318 OFFCURVE",
"732 144 OFFCURVE",
"562 144 CURVE SMOOTH"
);
}
);
width = 1080;
}
);
leftMetricsKey = h;
rightMetricsKey = o;
},
{
glyphname = c;
lastChange = "2021-11-24 03:46:11 +0000";
layers = (
{
anchors = (
{
name = base;
position = "{864, 0}";
},
{
name = bottom;
position = "{620, 0}";
},
{
name = cedilla;
position = "{636, 0}";
},
{
name = top;
position = "{620, 1048}";
}
);
layerId = "AB099EFE-E788-4EFC-8633-CF147CB782A6";
paths = (
{
closed = 1;
nodes = (
"722 -12 OFFCURVE",
"878 28 OFFCURVE",
"960 146 CURVE",
"932 206 LINE",
"872 100 OFFCURVE",
"732 44 OFFCURVE",
"604 44 CURVE SMOOTH",
"360 44 OFFCURVE",
"192 254 OFFCURVE",
"192 528 CURVE SMOOTH",
"192 808 OFFCURVE",
"368 1008 OFFCURVE",
"618 1008 CURVE SMOOTH",
"756 1008 OFFCURVE",
"866 946 OFFCURVE",
"928 860 CURVE",
"956 918 LINE",
"892 998 OFFCURVE",
"778 1064 OFFCURVE",
"622 1064 CURVE SMOOTH",
"334 1064 OFFCURVE",
"132 842 OFFCURVE",
"132 526 CURVE SMOOTH",
"132 218 OFFCURVE",
"324 -12 OFFCURVE",
"606 -12 CURVE SMOOTH"
);
}
);
userData = {
RMXScaler = {
height = 71.5;
weight = 20;
width = 77;
};
};
width = 1080;
},
{
anchors = (
{
name = base;
position = "{922, 0}";
},
{
name = bottom;
position = "{682, 0}";
},
{
name = cedilla;
position = "{694, 0}";
},
{
name = top;
position = "{694, 1080}";
}
);
layerId = "2D8F7115-C311-411E-929D-56333CF7FFB2";
paths = (
{
closed = 1;
nodes = (
"808 -12 OFFCURVE",
"942 34 OFFCURVE",
"1016 110 CURVE",
"878 420 LINE",
"850 364 OFFCURVE",
"760 292 OFFCURVE",
"652 292 CURVE SMOOTH",
"524 292 OFFCURVE",
"440 394 OFFCURVE",
"440 544 CURVE SMOOTH",
"440 708 OFFCURVE",
"554 792 OFFCURVE",
"658 792 CURVE SMOOTH",
"758 792 OFFCURVE",
"836 716 OFFCURVE",
"884 656 CURVE",
"1028 958 LINE",
"932 1038 OFFCURVE",
"802 1096 OFFCURVE",
"642 1096 CURVE SMOOTH",
"328 1096 OFFCURVE",
"80 872 OFFCURVE",
"80 544 CURVE SMOOTH",
"80 214 OFFCURVE",
"316 -12 OFFCURVE",
"656 -12 CURVE SMOOTH"
);
}
);
userData = {
RMXScaler = {
height = 73.5;
weight = -50;
width = 73;
};
};
width = 1080;
},
{
anchors = (
{
name = base;
position = "{882, 0}";
},
{
name = bottom;
position = "{638, 0}";
},
{
name = cedilla;
position = "{656, 0}";
},
{
name = top;
position = "{644, 1060}";
}
);
layerId = "FD1CEFBD-BAB1-4C2A-A598-30E93F9A29F6";
paths = (
{
closed = 1;
nodes = (
"760 -12 OFFCURVE",
"920 56 OFFCURVE",
"994 154 CURVE",
"920 312 LINE",
"868 218 OFFCURVE",
"746 148 OFFCURVE",
"618 148 CURVE SMOOTH",
"426 148 OFFCURVE",
"292 306 OFFCURVE",
"292 534 CURVE SMOOTH",
"292 762 OFFCURVE",
"422 918 OFFCURVE",
"612 918 CURVE SMOOTH",
"738 918 OFFCURVE",
"860 848 OFFCURVE",
"914 758 CURVE",
"990 914 LINE",
"912 1010 OFFCURVE",
"752 1078 OFFCURVE",
"594 1078 CURVE SMOOTH",
"312 1078 OFFCURVE",
"116 858 OFFCURVE",
"116 536 CURVE SMOOTH",
"116 212 OFFCURVE",
"314 -12 OFFCURVE",
"602 -12 CURVE SMOOTH"
);
}
);
userData = {
RMXScaler = {
height = 71.5;
weight = 20;
width = 77;
};
};
width = 1080;
}
);
unicode = 0063;
userData = {
RMXScaler = {
source = C;
};
};
},
{
glyphname = d;
lastChange = "2021-11-24 07:18:35 +0000";
layers = (
{
anchors = (
{
name = bottom;
position = "{540, 0}";
},
{
name = center;
position = "{876, 1262}";
},
{
name = leghookretroflex;
position = "{876, 0}";
},
{
name = top;
position = "{874, 1540}";
},
{
name = topright;
position = "{912, 1540}";
}
);
layerId = "AB099EFE-E788-4EFC-8633-CF147CB782A6";
paths = (
{
closed = 1;
nodes = (
"986 38 LINE",
"937 67 OFFCURVE",
"906 143 OFFCURVE",
"906 232 CURVE SMOOTH",
"906 1540 LINE",
"844 1540 LINE",
"844 834 LINE",
"824 834 LINE",
"856 756 LINE",
"856 294 LINE",
"828 222 LINE",
"856 222 LINE",
"848 234 LINE",
"851 126 OFFCURVE",
"894 28 OFFCURVE",
"958 -16 CURVE"
);
},
{
closed = 1;
nodes = (
"745 -16 OFFCURVE",
"900 198 OFFCURVE",
"900 528 CURVE SMOOTH",
"900 853 OFFCURVE",
"745 1064 OFFCURVE",
"506 1064 CURVE SMOOTH",
"262 1064 OFFCURVE",
"104 852 OFFCURVE",
"104 524 CURVE SMOOTH",
"104 196 OFFCURVE",
"262 -16 OFFCURVE",
"506 -16 CURVE SMOOTH"
);
},
{
closed = 1;
nodes = (
"297 38 OFFCURVE",
"164 229 OFFCURVE",
"164 524 CURVE SMOOTH",
"164 819 OFFCURVE",
"297 1010 OFFCURVE",
"502 1010 CURVE SMOOTH",
"712 1010 OFFCURVE",
"848 819 OFFCURVE",
"848 524 CURVE SMOOTH",
"848 229 OFFCURVE",
"712 38 OFFCURVE",
"502 38 CURVE SMOOTH"
);
}
);
width = 1080;
},
{
anchors = (
{
name = bottom;
position = "{516, 0}";
},
{
name = center;
position = "{810, 1298}";
},
{
name = leghookretroflex;
position = "{814, 0}";
},
{
name = top;
position = "{814, 1540}";
},
{
name = topright;
position = "{972, 1540}";
}
);
layerId = "2D8F7115-C311-411E-929D-56333CF7FFB2";
paths = (
{
closed = 1;
nodes = (
"1060 278 LINE",
"1017 296 OFFCURVE",
"988 343 OFFCURVE",
"988 394 CURVE SMOOTH",
"988 1540 LINE",
"638 1540 LINE",
"638 1004 LINE",
"612 1004 LINE",
"656 892 LINE",
"656 274 LINE",
"620 144 LINE",
"700 144 LINE",
"686 160 LINE",
"711 93 OFFCURVE",
"815 21 OFFCURVE",
"940 -16 CURVE"
);
},
{
closed = 1;
nodes = (
"653 -16 OFFCURVE",
"822 215 OFFCURVE",
"822 552 CURVE SMOOTH",
"822 876 OFFCURVE",
"658 1098 OFFCURVE",
"420 1098 CURVE SMOOTH",
"179 1098 OFFCURVE",
"14 869 OFFCURVE",
"14 536 CURVE SMOOTH",
"14 209 OFFCURVE",
"174 -16 OFFCURVE",
"406 -16 CURVE SMOOTH"
);
},
{
closed = 1;
nodes = (
"409 278 OFFCURVE",
"350 386 OFFCURVE",
"350 544 CURVE SMOOTH",
"350 697 OFFCURVE",
"412 802 OFFCURVE",
"502 802 CURVE SMOOTH",
"589 802 OFFCURVE",
"648 697 OFFCURVE",
"648 544 CURVE SMOOTH",
"648 386 OFFCURVE",
"585 278 OFFCURVE",
"494 278 CURVE SMOOTH"
);
}
);
width = 1080;
},
{
anchors = (
{
name = bottom;
position = "{520, 0}";
},
{
name = center;
position = "{852, 1274}";
},
{
name = leghookretroflex;
position = "{852, 0}";
},
{
name = top;
position = "{852, 1540}";
},
{
name = topright;
position = "{1022, 1540}";
}
);
layerId = "FD1CEFBD-BAB1-4C2A-A598-30E93F9A29F6";
paths = (
{
closed = 1;
nodes = (
"1012 140 LINE",
"967 164 OFFCURVE",
"938 224 OFFCURVE",
"938 294 CURVE SMOOTH",
"938 1540 LINE",
"766 1540 LINE",
"766 930 LINE",
"746 930 LINE",
"790 824 LINE",
"790 290 LINE",
"744 172 LINE",
"826 172 LINE",
"790 196 LINE",
"792 118 OFFCURVE",
"854 35 OFFCURVE",
"948 -16 CURVE"
);
},
{
closed = 1;
nodes = (
"721 -16 OFFCURVE",
"878 199 OFFCURVE",
"878 532 CURVE SMOOTH",
"878 863 OFFCURVE",
"721 1078 OFFCURVE",
"478 1078 CURVE SMOOTH",
"227 1078 OFFCURVE",
"64 863 OFFCURVE",
"64 532 CURVE SMOOTH",
"64 199 OFFCURVE",
"227 -16 OFFCURVE",
"478 -16 CURVE SMOOTH"
);
},
{
closed = 1;
nodes = (
"345 140 OFFCURVE",
"238 294 OFFCURVE",
"238 532 CURVE SMOOTH",
"238 769 OFFCURVE",
"345 922 OFFCURVE",
"510 922 CURVE SMOOTH",
"674 922 OFFCURVE",
"780 769 OFFCURVE",
"780 532 CURVE SMOOTH",
"780 294 OFFCURVE",
"674 140 OFFCURVE",
"510 140 CURVE SMOOTH"
);
}
);
width = 1080;
}
);
unicode = 0064;
},
{
color = 4;
glyphname = d.ss01;
lastChange = "2021-11-24 03:35:53 +0000";
layers = (
{
anchors = (
{
name = bottom;
position = "{542, 0}";
},
{
name = center;
position = "{894, 1262}";
},
{
name = leghookretroflex;
position = "{894, 0}";
},
{
name = top;
position = "{890, 1540}";
},
{
name = topright;
position = "{924, 1540}";
}
);
layerId = "AB099EFE-E788-4EFC-8633-CF147CB782A6";
paths = (
{
closed = 1;
nodes = (
"872 1540 LINE",
"872 804 LINE",
"860 804 LINE",
"876 744 LINE",
"876 272 LINE",
"854 240 LINE",
"872 240 LINE",
"872 0 LINE",
"932 0 LINE",
"932 1540 LINE"
);
},
{
closed = 1;
nodes = (
"742 -16 OFFCURVE",
"926 200 OFFCURVE",
"926 524 CURVE SMOOTH",
"926 848 OFFCURVE",
"742 1064 OFFCURVE",
"510 1064 CURVE SMOOTH",
"278 1064 OFFCURVE",
"94 850 OFFCURVE",
"94 524 CURVE SMOOTH",
"94 200 OFFCURVE",
"278 -16 OFFCURVE",
"510 -16 CURVE SMOOTH"
);
},
{
closed = 1;
nodes = (
"312 40 OFFCURVE",
"154 234 OFFCURVE",
"154 524 CURVE SMOOTH",
"154 818 OFFCURVE",
"310 1008 OFFCURVE",
"512 1008 CURVE SMOOTH",
"716 1008 OFFCURVE",
"874 820 OFFCURVE",
"874 524 CURVE SMOOTH",
"874 236 OFFCURVE",
"716 40 OFFCURVE",
"512 40 CURVE SMOOTH"
);
}
);
width = 1080;
},
{
anchors = (
{
name = bottom;
position = "{564, 0}";
},
{
name = center;
position = "{848, 1298}";
},
{
name = leghookretroflex;
position = "{878, 0}";
},
{
name = top;
position = "{848, 1540}";
},
{
name = topright;
position = "{1016, 1540}";
}
);
layerId = "2D8F7115-C311-411E-929D-56333CF7FFB2";
paths = (
{
closed = 1;
nodes = (
"664 1540 LINE",
"664 992 LINE",
"640 992 LINE",
"694 816 LINE",
"694 226 LINE",
"640 122 LINE",
"686 122 LINE",
"686 0 LINE",
"1014 0 LINE",
"1014 1540 LINE"
);
},
{
closed = 1;
nodes = (
"662 -16 OFFCURVE",
"812 226 OFFCURVE",
"812 540 CURVE SMOOTH",
"812 868 OFFCURVE",
"672 1096 OFFCURVE",
"442 1096 CURVE SMOOTH",
"194 1096 OFFCURVE",
"18 860 OFFCURVE",
"18 540 CURVE SMOOTH",
"18 218 OFFCURVE",
"190 -16 OFFCURVE",
"428 -16 CURVE SMOOTH"
);
},
{
closed = 1;
nodes = (
"420 286 OFFCURVE",
"350 392 OFFCURVE",
"350 540 CURVE SMOOTH",
"350 690 OFFCURVE",
"418 792 OFFCURVE",
"518 792 CURVE SMOOTH",
"614 792 OFFCURVE",
"684 690 OFFCURVE",
"684 540 CURVE SMOOTH",
"684 394 OFFCURVE",
"616 286 OFFCURVE",
"518 286 CURVE SMOOTH"
);
}
);
width = 1080;
},
{
anchors = (
{
name = bottom;
position = "{540, 0}";
},
{
name = center;
position = "{874, 1278}";
},
{
name = leghookretroflex;
position = "{880, 0}";
},
{
name = top;
position = "{872, 1540}";
},
{
name = topright;
position = "{960, 1540}";
}
);
layerId = "FD1CEFBD-BAB1-4C2A-A598-30E93F9A29F6";
paths = (
{
closed = 1;
nodes = (
"794 1540 LINE",
"794 910 LINE",
"776 910 LINE",
"800 806 LINE",
"800 212 LINE",
"772 156 LINE",
"796 156 LINE",
"796 0 LINE",
"966 0 LINE",
"966 1540 LINE"
);
},
{
closed = 1;
nodes = (
"742 -16 OFFCURVE",
"894 234 OFFCURVE",
"894 532 CURVE SMOOTH",
"894 856 OFFCURVE",
"730 1076 OFFCURVE",
"488 1076 CURVE SMOOTH",
"248 1076 OFFCURVE",
"58 856 OFFCURVE",
"58 532 CURVE SMOOTH",
"58 210 OFFCURVE",
"244 -16 OFFCURVE",
"488 -16 CURVE SMOOTH"
);
},
{
closed = 1;
nodes = (
"348 144 OFFCURVE",
"232 318 OFFCURVE",
"232 532 CURVE SMOOTH",
"232 754 OFFCURVE",
"356 916 OFFCURVE",
"518 916 CURVE SMOOTH",
"678 916 OFFCURVE",
"800 760 OFFCURVE",
"800 530 CURVE SMOOTH",
"800 296 OFFCURVE",
"676 144 OFFCURVE",
"518 144 CURVE SMOOTH"
);
}
);
width = 1080;
}
);
leftMetricsKey = o;
},
{
glyphname = eth;
lastChange = "2021-11-24 03:35:53 +0000";
layers = (
{
layerId = "AB099EFE-E788-4EFC-8633-CF147CB782A6";
paths = (
{
closed = 1;
nodes = (
"800 -16 OFFCURVE",
"970 218 OFFCURVE",
"970 596 CURVE SMOOTH",
"970 1124 OFFCURVE",
"640 1450 OFFCURVE",
"312 1558 CURVE",
"292 1508 LINE",
"514 1432 OFFCURVE",
"796 1224 OFFCURVE",
"896 818 CURVE",
"908 834 LINE",
"880 834 LINE",
"912 796 LINE",
"846 946 OFFCURVE",
"694 1024 OFFCURVE",
"548 1024 CURVE SMOOTH",
"298 1024 OFFCURVE",
"110 796 OFFCURVE",
"110 504 CURVE SMOOTH",
"110 210 OFFCURVE",
"300 -16 OFFCURVE",
"546 -16 CURVE SMOOTH"
);
},
{
closed = 1;
nodes = (
"352 40 OFFCURVE",
"170 224 OFFCURVE",
"170 506 CURVE SMOOTH",
"170 772 OFFCURVE",
"334 968 OFFCURVE",
"556 968 CURVE SMOOTH",
"728 968 OFFCURVE",
"912 850 OFFCURVE",
"912 546 CURVE SMOOTH",
"912 276 OFFCURVE",
"764 40 OFFCURVE",
"546 40 CURVE SMOOTH"
);
},
{
closed = 1;
nodes = (
"838 1512 LINE",
"820 1554 LINE",
"282 1220 LINE",
"306 1172 LINE"
);
}
);
width = 1080;
},
{
layerId = "2D8F7115-C311-411E-929D-56333CF7FFB2";
paths = (
{
closed = 1;
nodes = (
"838 -16 OFFCURVE",
"1056 254 OFFCURVE",
"1056 652 CURVE SMOOTH",
"1056 1088 OFFCURVE",
"812 1454 OFFCURVE",
"306 1700 CURVE",
"170 1426 LINE",
"454 1314 OFFCURVE",
"636 1126 OFFCURVE",
"718 898 CURVE",
"762 946 LINE",
"674 946 LINE",
"734 876 LINE",
"710 992 OFFCURVE",
"572 1028 OFFCURVE",
"480 1028 CURVE SMOOTH",
"222 1028 OFFCURVE",
"22 796 OFFCURVE",
"22 514 CURVE SMOOTH",
"22 210 OFFCURVE",
"252 -16 OFFCURVE",
"528 -16 CURVE SMOOTH"
);
},
{
closed = 1;
nodes = (
"432 294 OFFCURVE",
"362 398 OFFCURVE",
"362 532 CURVE SMOOTH",
"362 664 OFFCURVE",
"436 754 OFFCURVE",
"536 754 CURVE SMOOTH",
"646 754 OFFCURVE",
"716 664 OFFCURVE",
"716 532 CURVE SMOOTH",
"716 400 OFFCURVE",
"644 294 OFFCURVE",
"536 294 CURVE SMOOTH"
);
},
{
closed = 1;
nodes = (
"940 1512 LINE",
"818 1692 LINE",
"176 1212 LINE",
"266 1082 LINE"
);
}
);
width = 1080;
},
{
layerId = "FD1CEFBD-BAB1-4C2A-A598-30E93F9A29F6";
paths = (
{
closed = 1;
nodes = (
"810 -16 OFFCURVE",
"1000 222 OFFCURVE",
"1000 622 CURVE SMOOTH",
"1000 1134 OFFCURVE",
"696 1446 OFFCURVE",
"316 1614 CURVE",
"250 1474 LINE",
"508 1366 OFFCURVE",
"738 1168 OFFCURVE",
"822 872 CURVE",
"846 902 LINE",
"800 902 LINE",
"830 864 LINE",
"792 958 OFFCURVE",
"662 1032 OFFCURVE",
"526 1032 CURVE SMOOTH",
"280 1032 OFFCURVE",
"84 820 OFFCURVE",
"84 512 CURVE SMOOTH",
"84 202 OFFCURVE",
"290 -16 OFFCURVE",
"544 -16 CURVE SMOOTH"
);
},
{
closed = 1;
nodes = (
"388 140 OFFCURVE",
"254 294 OFFCURVE",
"254 516 CURVE SMOOTH",
"254 730 OFFCURVE",
"380 872 OFFCURVE",
"544 872 CURVE SMOOTH",
"704 872 OFFCURVE",
"832 746 OFFCURVE",
"832 528 CURVE SMOOTH",
"832 310 OFFCURVE",
"708 148 OFFCURVE",
"548 144 CURVE SMOOTH"
);
},
{
closed = 1;
nodes = (
"886 1520 LINE",
"824 1618 LINE",
"248 1236 LINE",
"304 1138 LINE"
);
}
);
width = 1080;
}
);
unicode = 00F0;
},
{
glyphname = e;
lastChange = "2021-11-24 03:45:42 +0000";
layers = (
{
anchors = (
{
name = bottom;
position = "{554, 0}";
},
{
name = cedilla;
position = "{556, 0}";
},
{
name = ogonek;
position = "{846, 78}";
},
{
name = top;
position = "{558, 1048}";
}
);
layerId = "AB099EFE-E788-4EFC-8633-CF147CB782A6";
paths = (
{
closed = 1;
nodes = (
"679 -16 OFFCURVE",
"811 39 OFFCURVE",
"890 118 CURVE",
"868 174 LINE",
"784 95 OFFCURVE",
"660 40 OFFCURVE",
"562 40 CURVE SMOOTH",
"336 40 OFFCURVE",
"180 235 OFFCURVE",
"180 520 CURVE SMOOTH",
"180 809 OFFCURVE",
"334 1008 OFFCURVE",
"558 1008 CURVE SMOOTH",
"770 1008 OFFCURVE",
"910 826 OFFCURVE",
"902 562 CURVE",
"168 562 LINE",
"168 506 LINE",
"962 506 LINE",
"963 523 OFFCURVE",
"964 554 OFFCURVE",
"964 582 CURVE SMOOTH",
"964 868 OFFCURVE",
"798 1064 OFFCURVE",
"556 1064 CURVE SMOOTH",
"298 1064 OFFCURVE",
"120 844 OFFCURVE",
"120 524 CURVE SMOOTH",
"120 204 OFFCURVE",
"302 -16 OFFCURVE",
"566 -16 CURVE SMOOTH"
);
}
);
width = 1080;
},
{
anchors = (
{
name = bottom;
position = "{566, 0}";
},
{
name = cedilla;
position = "{596, 0}";
},
{
name = ogonek;
position = "{928, 70}";
},
{
name = top;
position = "{556, 1080}";
}
);
layerId = "2D8F7115-C311-411E-929D-56333CF7FFB2";
paths = (
{
closed = 1;
nodes = (
"719 -16 OFFCURVE",
"851 19 OFFCURVE",
"924 70 CURVE",
"816 324 LINE",
"777 287 OFFCURVE",
"687 262 OFFCURVE",
"596 262 CURVE SMOOTH",
"451 262 OFFCURVE",
"352 378 OFFCURVE",
"352 548 CURVE SMOOTH",
"352 713 OFFCURVE",
"433 826 OFFCURVE",
"552 826 CURVE SMOOTH",
"640 826 OFFCURVE",
"700 749 OFFCURVE",
"700 638 CURVE",
"330 638 LINE",
"330 426 LINE",
"1018 426 LINE",
"1027 462 OFFCURVE",
"1034 527 OFFCURVE",
"1034 586 CURVE SMOOTH",
"1034 888 OFFCURVE",
"842 1096 OFFCURVE",
"562 1096 CURVE SMOOTH",
"256 1096 OFFCURVE",
"46 868 OFFCURVE",
"46 536 CURVE SMOOTH",
"46 209 OFFCURVE",
"271 -16 OFFCURVE",
"598 -16 CURVE SMOOTH"
);
}
);
width = 1080;
},
{
anchors = (
{
name = bottom;
position = "{550, 0}";
},
{
name = cedilla;
position = "{560, 0}";
},
{
name = ogonek;
position = "{890, 94}";
},
{
name = top;
position = "{548, 1060}";
}
);
layerId = "FD1CEFBD-BAB1-4C2A-A598-30E93F9A29F6";
paths = (
{
closed = 1;
nodes = (
"678 -16 OFFCURVE",
"810 29 OFFCURVE",
"890 94 CURVE",
"826 250 LINE",
"763 187 OFFCURVE",
"661 144 OFFCURVE",
"574 144 CURVE SMOOTH",
"389 144 OFFCURVE",
"262 302 OFFCURVE",
"262 532 CURVE SMOOTH",
"262 760 OFFCURVE",
"378 916 OFFCURVE",
"546 916 CURVE SMOOTH",
"700 916 OFFCURVE",
"806 788 OFFCURVE",
"806 602 CURVE",
"230 602 LINE",
"230 462 LINE",
"962 462 LINE",
"969 493 OFFCURVE",
"974 545 OFFCURVE",
"974 590 CURVE SMOOTH",
"974 878 OFFCURVE",
"801 1076 OFFCURVE",
"548 1076 CURVE SMOOTH",
"281 1076 OFFCURVE",
"98 855 OFFCURVE",
"98 532 CURVE SMOOTH",
"98 207 OFFCURVE",
"289 -16 OFFCURVE",
"568 -16 CURVE SMOOTH"
);
}
);
width = 1080;
}
);
unicode = 0065;
},
{
glyphname = schwa;
lastChange = "2021-11-24 03:35:53 +0000";
layers = (
{
anchors = (
{
name = bottom;
position = "{520, 0}";
},
{
name = cedilla;
position = "{522, 1048}";
},
{
name = ogonek;
position = "{232, 970}";
},
{
name = top;
position = "{524, 1048}";
}
);
layerId = "AB099EFE-E788-4EFC-8633-CF147CB782A6";
paths = (
{
closed = 1;
nodes = (
"378 1064 OFFCURVE",
"260 1002 OFFCURVE",
"188 930 CURVE",
"212 874 LINE",
"292 952 OFFCURVE",
"392 1008 OFFCURVE",
"516 1008 CURVE SMOOTH",
"746 1008 OFFCURVE",
"898 814 OFFCURVE",
"898 528 CURVE SMOOTH",
"898 222 OFFCURVE",
"726 40 OFFCURVE",
"520 40 CURVE SMOOTH",
"308 40 OFFCURVE",
"168 234 OFFCURVE",
"176 486 CURVE",
"910 486 LINE",
"910 542 LINE",
"116 542 LINE",
"114 514 OFFCURVE",
"114 490 OFFCURVE",
"114 466 CURVE SMOOTH",
"114 188 OFFCURVE",
"280 -16 OFFCURVE",
"522 -16 CURVE SMOOTH",
"780 -16 OFFCURVE",
"958 216 OFFCURVE",
"958 524 CURVE SMOOTH",
"958 842 OFFCURVE",
"774 1064 OFFCURVE",
"512 1064 CURVE SMOOTH"
);
}
);
width = 1080;
},
{
anchors = (
{
name = bottom;
position = "{524, 0}";
},
{
name = cedilla;
position = "{486, 1080}";
},
{
name = ogonek;
position = "{154, 1010}";
},
{
name = top;
position = "{516, 1080}";
}
);
layerId = "2D8F7115-C311-411E-929D-56333CF7FFB2";
paths = (
{
closed = 1;
nodes = (
"350 1096 OFFCURVE",
"228 1060 OFFCURVE",
"158 1010 CURVE",
"264 756 LINE",
"292 784 OFFCURVE",
"404 818 OFFCURVE",
"482 818 CURVE SMOOTH",
"618 818 OFFCURVE",
"728 704 OFFCURVE",
"728 532 CURVE SMOOTH",
"728 386 OFFCURVE",
"662 254 OFFCURVE",
"528 254 CURVE SMOOTH",
"446 254 OFFCURVE",
"380 318 OFFCURVE",
"380 442 CURVE",
"750 442 LINE",
"750 654 LINE",
"62 654 LINE",
"54 624 OFFCURVE",
"46 556 OFFCURVE",
"46 494 CURVE SMOOTH",
"46 198 OFFCURVE",
"246 -16 OFFCURVE",
"518 -16 CURVE SMOOTH",
"792 -16 OFFCURVE",
"1034 202 OFFCURVE",
"1034 544 CURVE SMOOTH",
"1034 868 OFFCURVE",
"822 1096 OFFCURVE",
"482 1096 CURVE SMOOTH"
);
}
);
width = 1080;
},
{
anchors = (
{
name = bottom;
position = "{532, 0}";
},
{
name = cedilla;
position = "{520, 1060}";
},
{
name = ogonek;
position = "{184, 966}";
},
{
name = top;
position = "{528, 1060}";
}
);
layerId = "FD1CEFBD-BAB1-4C2A-A598-30E93F9A29F6";
paths = (
{
closed = 1;
nodes = (
"376 1076 OFFCURVE",
"258 1026 OFFCURVE",
"182 966 CURVE",
"246 810 LINE",
"298 858 OFFCURVE",
"388 916 OFFCURVE",
"504 916 CURVE SMOOTH",
"700 916 OFFCURVE",
"828 760 OFFCURVE",
"828 528 CURVE SMOOTH",
"828 298 OFFCURVE",
"706 144 OFFCURVE",
"534 144 CURVE SMOOTH",
"370 144 OFFCURVE",
"264 286 OFFCURVE",
"264 458 CURVE",
"860 458 LINE",
"860 598 LINE",
"108 598 LINE",
"102 570 OFFCURVE",
"96 524 OFFCURVE",
"96 470 CURVE SMOOTH",
"96 188 OFFCURVE",
"278 -16 OFFCURVE",
"532 -16 CURVE SMOOTH",
"792 -16 OFFCURVE",
"992 196 OFFCURVE",
"992 528 CURVE SMOOTH",
"992 862 OFFCURVE",
"792 1076 OFFCURVE",
"510 1076 CURVE SMOOTH"
);
}
);
width = 1080;
}
);
unicode = 0259;
},
{
glyphname = f;
lastChange = "2021-11-24 05:36:42 +0000";
layers = (
{
anchors = (
{
name = bottom;
position = "{484, 0}";
},
{
name = top;
position = "{754, 1540}";
}
);
layerId = "AB099EFE-E788-4EFC-8633-CF147CB782A6";
paths = (
{
closed = 1;
nodes = (
"442 0 LINE",
"442 1230 LINE SMOOTH",
"442 1388 OFFCURVE",
"526 1500 OFFCURVE",
"710 1500 CURVE SMOOTH",
"802 1500 OFFCURVE",
"872 1476 OFFCURVE",
"956 1424 CURVE",
"982 1476 LINE",
"860 1552 OFFCURVE",
"784 1556 OFFCURVE",
"724 1556 CURVE SMOOTH",
"492 1556 OFFCURVE",
"384 1426 OFFCURVE",
"384 1218 CURVE SMOOTH",
"384 0 LINE"
);
},
{
closed = 1;
nodes = (
"954 992 LINE",
"954 1048 LINE",
"118 1048 LINE",
"118 992 LINE"
);
}
);
width = 1080;
},
{
anchors = (
{
name = bottom;
position = "{508, 0}";
},
{
name = top;
position = "{670, 1540}";
}
);
layerId = "2D8F7115-C311-411E-929D-56333CF7FFB2";
paths = (
{
closed = 1;
nodes = (
"614 0 LINE",
"614 1130 LINE SMOOTH",
"614 1238 OFFCURVE",
"712 1274 OFFCURVE",
"758 1274 CURVE SMOOTH",
"802 1274 OFFCURVE",
"858 1246 OFFCURVE",
"890 1208 CURVE",
"1020 1488 LINE",
"934 1542 OFFCURVE",
"820 1576 OFFCURVE",
"694 1576 CURVE SMOOTH",
"412 1576 OFFCURVE",
"256 1400 OFFCURVE",
"256 1130 CURVE SMOOTH",
"256 0 LINE"
);
},
{
closed = 1;
nodes = (
"974 780 LINE",
"974 1080 LINE",
"68 1080 LINE",
"68 780 LINE"
);
}
);
width = 1080;
},
{
anchors = (
{
name = bottom;
position = "{494, 0}";
},
{
name = top;
position = "{732, 1540}";
}
);
layerId = "FD1CEFBD-BAB1-4C2A-A598-30E93F9A29F6";
paths = (
{
closed = 1;
nodes = (
"538 0 LINE",
"538 1188 LINE SMOOTH",
"538 1338 OFFCURVE",
"632 1396 OFFCURVE",
"752 1396 CURVE SMOOTH",
"820 1396 OFFCURVE",
"886 1380 OFFCURVE",
"970 1312 CURVE",
"1036 1464 LINE",
"934 1534 OFFCURVE",
"844 1556 OFFCURVE",
"746 1556 CURVE SMOOTH",
"512 1556 OFFCURVE",
"364 1432 OFFCURVE",
"364 1206 CURVE SMOOTH",
"364 0 LINE"
);
},
{
closed = 1;
nodes = (
"922 904 LINE",
"922 1060 LINE",
"156 1060 LINE",
"156 904 LINE"
);
}
);
width = 1080;
}
);
unicode = 0066;
},
{
glyphname = g;
lastChange = "2021-11-24 07:15:31 +0000";
layers = (
{
anchors = (
{
name = bottom;
position = "{534, -420}";
},
{
name = top;
position = "{530, 1048}";
}
);
layerId = "AB099EFE-E788-4EFC-8633-CF147CB782A6";
paths = (
{
closed = 1;
nodes = (
"690 -436 OFFCURVE",
"918 -318 OFFCURVE",
"918 8 CURVE SMOOTH",
"918 1048 LINE",
"858 1048 LINE",
"858 834 LINE",
"850 834 LINE",
"862 772 LINE",
"862 282 LINE",
"850 224 LINE",
"860 224 LINE",
"860 4 LINE SMOOTH",
"860 -244 OFFCURVE",
"706 -380 OFFCURVE",
"516 -380 CURVE SMOOTH",
"414 -380 OFFCURVE",
"308 -340 OFFCURVE",
"232 -266 CURVE",
"208 -326 LINE",
"278 -388 OFFCURVE",
"410 -436 OFFCURVE",
"520 -436 CURVE SMOOTH"
);
},
{
closed = 1;
nodes = (
"732 -16 OFFCURVE",
"916 158 OFFCURVE",
"916 528 CURVE SMOOTH",
"916 896 OFFCURVE",
"736 1064 OFFCURVE",
"518 1064 CURVE SMOOTH",
"270 1064 OFFCURVE",
"110 858 OFFCURVE",
"110 528 CURVE SMOOTH",
"110 190 OFFCURVE",
"276 -16 OFFCURVE",
"516 -16 CURVE SMOOTH"
);
},
{
closed = 1;
nodes = (
"318 40 OFFCURVE",
"170 230 OFFCURVE",
"170 528 CURVE SMOOTH",
"170 816 OFFCURVE",
"304 1008 OFFCURVE",
"516 1008 CURVE SMOOTH",
"720 1008 OFFCURVE",
"862 826 OFFCURVE",
"862 538 CURVE SMOOTH",
"862 248 OFFCURVE",
"720 40 OFFCURVE",
"516 40 CURVE SMOOTH"
);
}
);
width = 1080;
},
{
anchors = (
{
name = bottom;
position = "{530, -420}";
},
{
name = top;
position = "{508, 1080}";
}
);
layerId = "2D8F7115-C311-411E-929D-56333CF7FFB2";
paths = (
{
closed = 1;
nodes = (
"812 -436 OFFCURVE",
"1006 -256 OFFCURVE",
"1006 70 CURVE SMOOTH",
"1006 1082 LINE",
"698 1082 LINE",
"698 982 LINE",
"614 982 LINE",
"700 860 LINE",
"700 250 LINE",
"652 148 LINE",
"680 148 LINE",
"680 50 LINE SMOOTH",
"680 -84 OFFCURVE",
"536 -142 OFFCURVE",
"436 -142 CURVE SMOOTH",
"358 -142 OFFCURVE",
"286 -110 OFFCURVE",
"208 -64 CURVE",
"96 -338 LINE",
"172 -384 OFFCURVE",
"314 -436 OFFCURVE",
"480 -436 CURVE SMOOTH"
);
},
{
closed = 1;
nodes = (
"660 28 OFFCURVE",
"842 284 OFFCURVE",
"842 578 CURVE SMOOTH",
"842 860 OFFCURVE",
"678 1098 OFFCURVE",
"434 1098 CURVE SMOOTH",
"240 1098 OFFCURVE",
"26 926 OFFCURVE",
"26 558 CURVE SMOOTH",
"26 184 OFFCURVE",
"246 28 OFFCURVE",
"424 28 CURVE SMOOTH"
);
},
{
closed = 1;
nodes = (
"432 312 OFFCURVE",
"366 416 OFFCURVE",
"366 570 CURVE SMOOTH",
"366 726 OFFCURVE",
"438 816 OFFCURVE",
"532 816 CURVE SMOOTH",
"628 816 OFFCURVE",
"696 724 OFFCURVE",
"696 570 CURVE SMOOTH",
"696 416 OFFCURVE",
"624 312 OFFCURVE",
"522 312 CURVE SMOOTH"
);
}
);
width = 1080;
},
{
anchors = (
{
name = bottom;
position = "{530, -420}";
},
{
name = top;
position = "{520, 1060}";
}
);
layerId = "FD1CEFBD-BAB1-4C2A-A598-30E93F9A29F6";
paths = (
{
closed = 1;
nodes = (
"732 -436 OFFCURVE",
"954 -298 OFFCURVE",
"954 32 CURVE SMOOTH",
"954 1060 LINE",
"780 1060 LINE",
"780 926 LINE",
"744 926 LINE",
"790 828 LINE",
"790 258 LINE",
"756 164 LINE",
"786 164 LINE",
"786 24 LINE SMOOTH",
"786 -196 OFFCURVE",
"616 -280 OFFCURVE",
"488 -280 CURVE SMOOTH",
"386 -280 OFFCURVE",
"272 -232 OFFCURVE",
"222 -182 CURVE",
"160 -334 LINE",
"234 -388 OFFCURVE",
"366 -436 OFFCURVE",
"502 -436 CURVE SMOOTH"
);
},
{
closed = 1;
nodes = (
"728 -4 OFFCURVE",
"898 226 OFFCURVE",
"898 544 CURVE SMOOTH",
"898 860 OFFCURVE",
"736 1078 OFFCURVE",
"502 1078 CURVE SMOOTH",
"278 1078 OFFCURVE",
"70 878 OFFCURVE",
"70 540 CURVE SMOOTH",
"70 206 OFFCURVE",
"272 -4 OFFCURVE",
"494 -4 CURVE SMOOTH"
);
},
{
closed = 1;
nodes = (
"360 156 OFFCURVE",
"246 318 OFFCURVE",
"246 540 CURVE SMOOTH",
"246 762 OFFCURVE",
"360 918 OFFCURVE",
"522 918 CURVE SMOOTH",
"676 918 OFFCURVE",
"790 770 OFFCURVE",
"790 544 CURVE SMOOTH",
"790 316 OFFCURVE",
"676 156 OFFCURVE",
"522 156 CURVE SMOOTH"
);
}
);
width = 1080;
}
);
unicode = 0067;
},
{
color = 4;
glyphname = g.ss01;
lastChange = "2021-11-24 03:35:53 +0000";
layers = (
{
anchors = (
{
name = bottom;
position = "{542, -420}";
},
{
name = top;
position = "{538, 1048}";
}
);
layerId = "AB099EFE-E788-4EFC-8633-CF147CB782A6";
paths = (
{
closed = 1;
nodes = (
"704 -436 OFFCURVE",
"934 -318 OFFCURVE",
"934 8 CURVE SMOOTH",
"934 1048 LINE",
"874 1048 LINE",
"874 810 LINE",
"858 810 LINE",
"878 740 LINE",
"878 318 LINE",
"862 248 LINE",
"874 248 LINE",
"874 4 LINE SMOOTH",
"874 -268 OFFCURVE",
"686 -382 OFFCURVE",
"526 -380 CURVE SMOOTH",
"420 -378 OFFCURVE",
"292 -334 OFFCURVE",
"228 -266 CURVE",
"204 -326 LINE",
"270 -388 OFFCURVE",
"416 -436 OFFCURVE",
"526 -436 CURVE SMOOTH"
);
},
{
closed = 1;
nodes = (
"744 -16 OFFCURVE",
"928 200 OFFCURVE",
"928 524 CURVE SMOOTH",
"928 850 OFFCURVE",
"744 1064 OFFCURVE",
"512 1064 CURVE SMOOTH",
"280 1064 OFFCURVE",
"96 850 OFFCURVE",
"96 524 CURVE SMOOTH",
"96 200 OFFCURVE",
"280 -16 OFFCURVE",
"512 -16 CURVE SMOOTH"
);
},
{
closed = 1;
nodes = (
"314 40 OFFCURVE",
"156 234 OFFCURVE",
"156 524 CURVE SMOOTH",
"156 818 OFFCURVE",
"312 1008 OFFCURVE",
"514 1008 CURVE SMOOTH",
"718 1008 OFFCURVE",
"876 820 OFFCURVE",
"876 524 CURVE SMOOTH",
"876 236 OFFCURVE",
"718 40 OFFCURVE",
"514 40 CURVE SMOOTH"
);
}
);
width = 1080;
},
{
anchors = (
{
name = bottom;
position = "{546, -420}";
},
{
name = top;
position = "{524, 1080}";
}
);
layerId = "2D8F7115-C311-411E-929D-56333CF7FFB2";
paths = (
{
closed = 1;
nodes = (
"810 -436 OFFCURVE",
"1014 -256 OFFCURVE",
"1014 70 CURVE SMOOTH",
"1014 1080 LINE",
"686 1080 LINE",
"686 976 LINE",
"640 976 LINE",
"684 854 LINE",
"684 212 LINE",
"626 160 LINE",
"686 160 LINE",
"686 50 LINE SMOOTH",
"686 -92 OFFCURVE",
"538 -142 OFFCURVE",
"444 -142 CURVE SMOOTH",
"364 -142 OFFCURVE",
"276 -110 OFFCURVE",
"204 -64 CURVE",
"96 -338 LINE",
"168 -384 OFFCURVE",
"294 -436 OFFCURVE",
"476 -436 CURVE SMOOTH"
);
},
{
closed = 1;
nodes = (
"662 30 OFFCURVE",
"812 264 OFFCURVE",
"812 564 CURVE SMOOTH",
"812 880 OFFCURVE",
"672 1098 OFFCURVE",
"442 1098 CURVE SMOOTH",
"192 1098 OFFCURVE",
"18 870 OFFCURVE",
"18 564 CURVE SMOOTH",
"18 256 OFFCURVE",
"188 30 OFFCURVE",
"428 30 CURVE SMOOTH"
);
},
{
closed = 1;
nodes = (
"420 320 OFFCURVE",
"350 422 OFFCURVE",
"350 564 CURVE SMOOTH",
"350 708 OFFCURVE",
"418 806 OFFCURVE",
"518 806 CURVE SMOOTH",
"614 806 OFFCURVE",
"684 708 OFFCURVE",
"684 564 CURVE SMOOTH",
"684 422 OFFCURVE",
"614 320 OFFCURVE",
"518 320 CURVE SMOOTH"
);
}
);
width = 1080;
},
{
anchors = (
{
name = bottom;
position = "{550, -420}";
},
{
name = top;
position = "{538, 1060}";
}
);
layerId = "FD1CEFBD-BAB1-4C2A-A598-30E93F9A29F6";
paths = (
{
closed = 1;
nodes = (
"756 -434 OFFCURVE",
"968 -284 OFFCURVE",
"968 32 CURVE SMOOTH",
"968 1060 LINE",
"798 1060 LINE",
"798 914 LINE",
"774 914 LINE",
"808 828 LINE",
"808 262 LINE",
"776 168 LINE",
"798 168 LINE",
"798 24 LINE SMOOTH",
"798 -202 OFFCURVE",
"628 -278 OFFCURVE",
"498 -278 CURVE SMOOTH",
"390 -278 OFFCURVE",
"284 -232 OFFCURVE",
"214 -168 CURVE",
"150 -320 LINE",
"228 -386 OFFCURVE",
"368 -434 OFFCURVE",
"504 -434 CURVE SMOOTH"
);
},
{
closed = 1;
nodes = (
"748 4 OFFCURVE",
"898 250 OFFCURVE",
"898 544 CURVE SMOOTH",
"898 862 OFFCURVE",
"736 1080 OFFCURVE",
"492 1080 CURVE SMOOTH",
"248 1080 OFFCURVE",
"60 860 OFFCURVE",
"60 544 CURVE SMOOTH",
"60 228 OFFCURVE",
"246 4 OFFCURVE",
"492 4 CURVE SMOOTH"
);
},
{
closed = 1;
nodes = (
"352 162 OFFCURVE",
"234 330 OFFCURVE",
"234 544 CURVE SMOOTH",
"234 762 OFFCURVE",
"358 922 OFFCURVE",
"522 922 CURVE SMOOTH",
"684 922 OFFCURVE",
"804 768 OFFCURVE",
"804 542 CURVE SMOOTH",
"804 310 OFFCURVE",
"678 162 OFFCURVE",
"520 162 CURVE SMOOTH"
);
}
);
width = 1080;
}
);
leftMetricsKey = g;
rightMetricsKey = g;
},
{
color = 7;
glyphname = g.ss03;
lastChange = "2021-11-24 07:15:32 +0000";
layers = (
{
anchors = (
{
name = bottom;
position = "{538, -438}";
},
{
name = top;
position = "{514, 1048}";
}
);
layerId = "AB099EFE-E788-4EFC-8633-CF147CB782A6";
paths = (
{
closed = 1;
nodes = (
"780 -438 OFFCURVE",
"980 -298 OFFCURVE",
"980 -106 CURVE SMOOTH",
"980 34 OFFCURVE",
"868 126 OFFCURVE",
"688 126 CURVE SMOOTH",
"432 126 LINE SMOOTH",
"310 126 OFFCURVE",
"216 200 OFFCURVE",
"216 312 CURVE SMOOTH",
"216 360 OFFCURVE",
"234 404 OFFCURVE",
"270 438 CURVE",
"232 484 LINE",
"196 448 OFFCURVE",
"160 390 OFFCURVE",
"160 316 CURVE SMOOTH",
"160 198 OFFCURVE",
"248 70 OFFCURVE",
"432 70 CURVE SMOOTH",
"700 70 LINE SMOOTH",
"838 70 OFFCURVE",
"920 0 OFFCURVE",
"920 -106 CURVE SMOOTH",
"920 -258 OFFCURVE",
"762 -382 OFFCURVE",
"526 -382 CURVE SMOOTH",
"316 -382 OFFCURVE",
"176 -284 OFFCURVE",
"176 -140 CURVE SMOOTH",
"176 -34 OFFCURVE",
"256 74 OFFCURVE",
"330 106 CURVE",
"278 144 LINE",
"188 90 OFFCURVE",
"116 -24 OFFCURVE",
"116 -140 CURVE SMOOTH",
"116 -316 OFFCURVE",
"282 -438 OFFCURVE",
"522 -438 CURVE SMOOTH"
);
},
{
closed = 1;
nodes = (
"732 332 OFFCURVE",
"890 480 OFFCURVE",
"890 702 CURVE SMOOTH",
"890 918 OFFCURVE",
"738 1064 OFFCURVE",
"516 1064 CURVE SMOOTH",
"298 1064 OFFCURVE",
"140 922 OFFCURVE",
"140 704 CURVE SMOOTH",
"140 484 OFFCURVE",
"300 332 OFFCURVE",
"518 332 CURVE SMOOTH"
);
},
{
closed = 1;
nodes = (
"336 388 OFFCURVE",
"202 520 OFFCURVE",
"202 700 CURVE SMOOTH",
"202 876 OFFCURVE",
"328 1008 OFFCURVE",
"514 1008 CURVE SMOOTH",
"694 1008 OFFCURVE",
"830 886 OFFCURVE",
"830 700 CURVE SMOOTH",
"830 504 OFFCURVE",
"680 388 OFFCURVE",
"514 388 CURVE SMOOTH"
);
},
{
closed = 1;
nodes = (
"858 964 OFFCURVE",
"916 996 OFFCURVE",
"998 1036 CURVE",
"968 1094 LINE",
"900 1060 OFFCURVE",
"852 1030 OFFCURVE",
"774 966 CURVE",
"800 914 LINE"
);
}
);
width = 1080;
},
{
anchors = (
{
name = bottom;
position = "{524, -438}";
},
{
name = top;
position = "{512, 1080}";
}
);
background = {
paths = (
{
closed = 1;
nodes = (
"995 -455 OFFCURVE",
"1200 -303 OFFCURVE",
"1200 -82 CURVE SMOOTH",
"1200 98 OFFCURVE",
"1061 209 OFFCURVE",
"836 208 CURVE SMOOTH",
"586 208 LINE SMOOTH",
"471 209 OFFCURVE",
"381 246 OFFCURVE",
"380 316 CURVE SMOOTH",
"381 356 OFFCURVE",
"406 385 OFFCURVE",
"434 398 CURVE",
"316 504 LINE",
"193 446 OFFCURVE",
"147 315 OFFCURVE",
"148 242 CURVE SMOOTH",
"147 82 OFFCURVE",
"336 -4 OFFCURVE",
"610 -4 CURVE SMOOTH",
"734 -4 LINE SMOOTH",
"819 -4 OFFCURVE",
"872 -37 OFFCURVE",
"872 -82 CURVE SMOOTH",
"872 -147 OFFCURVE",
"766 -180 OFFCURVE",
"626 -180 CURVE SMOOTH",
"479 -180 OFFCURVE",
"324 -143 OFFCURVE",
"324 -58 CURVE SMOOTH",
"324 -8 OFFCURVE",
"369 41 OFFCURVE",
"426 58 CURVE",
"230 126 LINE",
"131 102 OFFCURVE",
"41 -20 OFFCURVE",
"40 -140 CURVE SMOOTH",
"41 -319 OFFCURVE",
"246 -455 OFFCURVE",
"610 -454 CURVE SMOOTH"
);
}
);
};
layerId = "2D8F7115-C311-411E-929D-56333CF7FFB2";
paths = (
{
closed = 1;
nodes = (
"942 -438 OFFCURVE",
"1080 -284 OFFCURVE",
"1080 -82 CURVE SMOOTH",
"1080 120 OFFCURVE",
"930 234 OFFCURVE",
"722 234 CURVE SMOOTH",
"502 234 LINE SMOOTH",
"402 234 OFFCURVE",
"324 234 OFFCURVE",
"324 300 CURVE SMOOTH",
"324 340 OFFCURVE",
"356 372 OFFCURVE",
"386 386 CURVE",
"182 472 LINE",
"140 450 OFFCURVE",
"64 386 OFFCURVE",
"64 282 CURVE SMOOTH",
"64 124 OFFCURVE",
"206 -4 OFFCURVE",
"454 -4 CURVE SMOOTH",
"658 -4 LINE SMOOTH",
"682 -4 OFFCURVE",
"752 -4 OFFCURVE",
"752 -70 CURVE SMOOTH",
"752 -152 OFFCURVE",
"656 -164 OFFCURVE",
"552 -164 CURVE SMOOTH",
"432 -164 OFFCURVE",
"286 -150 OFFCURVE",
"286 -54 CURVE SMOOTH",
"286 -6 OFFCURVE",
"320 50 OFFCURVE",
"370 66 CURVE",
"178 126 LINE",
"92 102 OFFCURVE",
"6 -20 OFFCURVE",
"6 -148 CURVE SMOOTH",
"6 -328 OFFCURVE",
"172 -438 OFFCURVE",
"524 -438 CURVE SMOOTH"
);
},
{
closed = 1;
nodes = (
"764 308 OFFCURVE",
"948 476 OFFCURVE",
"948 704 CURVE SMOOTH",
"948 938 OFFCURVE",
"756 1098 OFFCURVE",
"508 1098 CURVE SMOOTH",
"264 1098 OFFCURVE",
"82 942 OFFCURVE",
"82 716 CURVE SMOOTH",
"82 484 OFFCURVE",
"272 308 OFFCURVE",
"520 308 CURVE SMOOTH"
);
},
{
closed = 1;
nodes = (
"440 544 OFFCURVE",
"384 614 OFFCURVE",
"384 698 CURVE SMOOTH",
"384 782 OFFCURVE",
"442 852 OFFCURVE",
"514 852 CURVE SMOOTH",
"586 852 OFFCURVE",
"644 790 OFFCURVE",
"644 696 CURVE SMOOTH",
"644 602 OFFCURVE",
"584 544 OFFCURVE",
"518 544 CURVE SMOOTH"
);
},
{
closed = 1;
nodes = (
"940 926 OFFCURVE",
"966 938 OFFCURVE",
"1090 938 CURVE",
"1030 1192 LINE",
"940 1166 OFFCURVE",
"856 1130 OFFCURVE",
"700 1008 CURVE",
"844 888 LINE"
);
}
);
width = 1080;
},
{
anchors = (
{
name = bottom;
position = "{534, -438}";
},
{
name = top;
position = "{518, 1060}";
}
);
layerId = "FD1CEFBD-BAB1-4C2A-A598-30E93F9A29F6";
paths = (
{
closed = 1;
nodes = (
"834 -438 OFFCURVE",
"1012 -274 OFFCURVE",
"1016 -94 CURVE SMOOTH",
"1018 58 OFFCURVE",
"894 168 OFFCURVE",
"702 168 CURVE SMOOTH",
"492 168 LINE SMOOTH",
"414 168 OFFCURVE",
"314 194 OFFCURVE",
"314 300 CURVE SMOOTH",
"314 340 OFFCURVE",
"332 364 OFFCURVE",
"370 394 CURVE",
"252 488 LINE",
"204 438 OFFCURVE",
"160 374 OFFCURVE",
"160 294 CURVE SMOOTH",
"160 172 OFFCURVE",
"262 20 OFFCURVE",
"500 20 CURVE SMOOTH",
"652 20 LINE SMOOTH",
"758 20 OFFCURVE",
"844 -8 OFFCURVE",
"844 -96 CURVE SMOOTH",
"844 -206 OFFCURVE",
"722 -282 OFFCURVE",
"534 -282 CURVE SMOOTH",
"372 -282 OFFCURVE",
"246 -230 OFFCURVE",
"246 -106 CURVE SMOOTH",
"246 -18 OFFCURVE",
"314 46 OFFCURVE",
"370 66 CURVE",
"242 140 LINE",
"148 86 OFFCURVE",
"82 -14 OFFCURVE",
"82 -122 CURVE SMOOTH",
"82 -312 OFFCURVE",
"262 -438 OFFCURVE",
"536 -438 CURVE SMOOTH"
);
},
{
closed = 1;
nodes = (
"754 328 OFFCURVE",
"914 488 OFFCURVE",
"914 704 CURVE SMOOTH",
"914 926 OFFCURVE",
"752 1076 OFFCURVE",
"524 1076 CURVE SMOOTH",
"300 1076 OFFCURVE",
"134 926 OFFCURVE",
"134 704 CURVE SMOOTH",
"134 480 OFFCURVE",
"302 328 OFFCURVE",
"526 328 CURVE SMOOTH"
);
},
{
closed = 1;
nodes = (
"402 476 OFFCURVE",
"306 570 OFFCURVE",
"306 700 CURVE SMOOTH",
"306 832 OFFCURVE",
"400 928 OFFCURVE",
"528 928 CURVE SMOOTH",
"642 928 OFFCURVE",
"744 854 OFFCURVE",
"744 704 CURVE SMOOTH",
"744 570 OFFCURVE",
"656 476 OFFCURVE",
"528 476 CURVE SMOOTH"
);
},
{
closed = 1;
nodes = (
"892 942 OFFCURVE",
"936 972 OFFCURVE",
"1030 992 CURVE",
"964 1142 LINE",
"874 1104 OFFCURVE",
"808 1068 OFFCURVE",
"714 996 CURVE",
"814 898 LINE"
);
}
);
width = 1080;
}
);
},
{
glyphname = h;
lastChange = "2021-11-24 07:13:41 +0000";
layers = (
{
anchors = (
{
name = bottom;
position = "{544, 0}";
},
{
name = center;
position = "{218, 1262}";
},
{
name = top;
position = "{218, 1474}";
}
);
layerId = "AB099EFE-E788-4EFC-8633-CF147CB782A6";
paths = (
{
closed = 1;
nodes = (
"248 0 LINE",
"248 668 LINE SMOOTH",
"248 870 OFFCURVE",
"378 1008 OFFCURVE",
"556 1008 CURVE SMOOTH",
"734 1008 OFFCURVE",
"840 882 OFFCURVE",
"840 672 CURVE SMOOTH",
"840 0 LINE",
"900 0 LINE",
"900 676 LINE SMOOTH",
"900 912 OFFCURVE",
"770 1064 OFFCURVE",
"566 1064 CURVE SMOOTH",
"398 1064 OFFCURVE",
"268 962 OFFCURVE",
"234 832 CURVE",
"276 876 LINE",
"248 876 LINE",
"248 1540 LINE",
"188 1540 LINE",
"188 0 LINE"
);
}
);
width = 1080;
},
{
anchors = (
{
name = bottom;
position = "{544, 0}";
},
{
name = center;
position = "{260, 1298}";
},
{
name = top;
position = "{260, 1540}";
}
);
layerId = "2D8F7115-C311-411E-929D-56333CF7FFB2";
paths = (
{
closed = 1;
nodes = (
"440 0 LINE",
"440 630 LINE SMOOTH",
"440 746 OFFCURVE",
"488 806 OFFCURVE",
"546 806 CURVE SMOOTH",
"608 806 OFFCURVE",
"648 750 OFFCURVE",
"648 634 CURVE SMOOTH",
"648 0 LINE",
"1004 0 LINE",
"1004 712 LINE SMOOTH",
"1004 950 OFFCURVE",
"884 1096 OFFCURVE",
"696 1096 CURVE SMOOTH",
"564 1096 OFFCURVE",
"414 1024 OFFCURVE",
"390 868 CURVE",
"500 988 LINE",
"440 988 LINE",
"440 1540 LINE",
"84 1540 LINE",
"84 0 LINE"
);
}
);
width = 1080;
},
{
anchors = (
{
name = bottom;
position = "{540, 0}";
},
{
name = center;
position = "{234, 1274}";
},
{
name = top;
position = "{230, 1516}";
}
);
layerId = "FD1CEFBD-BAB1-4C2A-A598-30E93F9A29F6";
paths = (
{
closed = 1;
nodes = (
"316 0 LINE",
"316 644 LINE SMOOTH",
"316 824 OFFCURVE",
"424 916 OFFCURVE",
"552 916 CURVE SMOOTH",
"676 916 OFFCURVE",
"768 824 OFFCURVE",
"768 644 CURVE SMOOTH",
"768 0 LINE",
"940 0 LINE",
"940 680 LINE SMOOTH",
"940 866 OFFCURVE",
"840 1076 OFFCURVE",
"606 1076 CURVE SMOOTH",
"454 1076 OFFCURVE",
"324 996 OFFCURVE",
"282 860 CURVE",
"354 938 LINE",
"316 938 LINE",
"316 1540 LINE",
"144 1540 LINE",
"144 0 LINE"
);
}
);
width = 1080;
}
);
rightMetricsKey = n;
unicode = 0068;
},
{
glyphname = idotless;
lastChange = "2021-11-24 06:49:05 +0000";
layers = (
{
anchors = (
{
name = bottom;
position = "{594, 0}";
},
{
name = ogonek;
position = "{594, 0}";
},
{
name = top;
position = "{594, 1048}";
}
);
layerId = "AB099EFE-E788-4EFC-8633-CF147CB782A6";
paths = (
{
closed = 1;
nodes = (
"622 0 LINE",
"622 1048 LINE",
"562 1048 LINE",
"562 0 LINE"
);
},
{
closed = 1;
nodes = (
"188 992 LINE",
"616 992 LINE",
"616 1048 LINE",
"188 1048 LINE"
);
},
{
closed = 1;
nodes = (
"188 0 LINE",
"916 0 LINE",
"916 56 LINE",
"188 56 LINE"
);
}
);
width = 1080;
},
{
anchors = (
{
name = bottom;
position = "{600, 0}";
},
{
name = ogonek;
position = "{600, 0}";
},
{
name = top;
position = "{600, 1080}";
}
);
guideLines = (
{
angle = 60;
position = "{140, 0}";
}
);
layerId = "2D8F7115-C311-411E-929D-56333CF7FFB2";
paths = (
{
closed = 1;
nodes = (
"780 0 LINE",
"780 1080 LINE",
"420 1080 LINE",
"420 0 LINE"
);
},
{
closed = 1;
nodes = (
"128 780 LINE",
"780 780 LINE",
"780 1080 LINE",
"128 1080 LINE"
);
},
{
closed = 1;
nodes = (
"128 0 LINE",
"988 0 LINE",
"988 300 LINE",
"128 300 LINE"
);
}
);
width = 1080;
},
{
anchors = (
{
name = bottom;
position = "{602, 0}";
},
{
name = ogonek;
position = "{602, 0}";
},
{
name = top;
position = "{602, 1060}";
}
);
layerId = "FD1CEFBD-BAB1-4C2A-A598-30E93F9A29F6";
paths = (
{
closed = 1;
nodes = (
"682 0 LINE",
"682 1060 LINE",
"520 1060 LINE",
"520 0 LINE"
);
},
{
closed = 1;
nodes = (
"176 904 LINE",
"682 904 LINE",
"682 1060 LINE",
"176 1060 LINE"
);
},
{
closed = 1;
nodes = (
"176 0 LINE",
"948 0 LINE",
"948 156 LINE",
"176 156 LINE"
);
}
);
width = 1080;
}
);
unicode = 0131;
},
{
color = 8;
glyphname = idotless.ss02;
lastChange = "2021-01-26 04:56:20 +0000";
layers = (
{
anchors = (
{
name = bottom;
position = "{300, 0}";
},
{
name = center;
position = "{216, 570}";
},
{
name = ogonek;
position = "{338, -16}";
},
{
name = top;
position = "{216, 1048}";
}
);
background = {
anchors = (
{
name = bottom;
position = "{300, 0}";
},
{
name = center;
position = "{218, 570}";
},
{
name = ogonek;
position = "{438, 12}";
},
{
name = top;
position = "{218, 1048}";
}
);
paths = (
{
closed = 1;
nodes = (
"375 -8 OFFCURVE",
"418 0 OFFCURVE",
"438 12 CURVE",
"438 74 LINE",
"410 59 OFFCURVE",
"371 49 OFFCURVE",
"336 50 CURVE SMOOTH",
"248 49 OFFCURVE",
"246 119 OFFCURVE",
"246 208 CURVE SMOOTH",
"246 1048 LINE",
"184 1048 LINE",
"184 222 LINE SMOOTH",
"184 111 OFFCURVE",
"184 -8 OFFCURVE",
"340 -8 CURVE SMOOTH"
);
}
);
};
guideLines = (
{
angle = 80;
position = "{146, -8}";
}
);
layerId = "AB099EFE-E788-4EFC-8633-CF147CB782A6";
paths = (
{
closed = 1;
nodes = (
"362 38 LINE",
"294 68 OFFCURVE",
"244 112 OFFCURVE",
"244 198 CURVE SMOOTH",
"244 1048 LINE",
"184 1048 LINE",
"184 236 LINE SMOOTH",
"184 116 OFFCURVE",
"218 38 OFFCURVE",
"338 -16 CURVE"
);
}
);
width = 494;
},
{
anchors = (
{
name = bottom;
position = "{328, 0}";
},
{
name = center;
position = "{304, 570}";
},
{
name = ogonek;
position = "{492, -16}";
},
{
name = top;
position = "{304, 1080}";
}
);
background = {
anchors = (
{
name = bottom;
position = "{336, 0}";
},
{
name = center;
position = "{312, 570}";
},
{
name = ogonek;
position = "{598, 8}";
},
{
name = top;
position = "{312, 1080}";
}
);
paths = (
{
closed = 1;
nodes = (
"483 -16 OFFCURVE",
"551 -10 OFFCURVE",
"598 8 CURVE",
"598 286 LINE",
"571 281 OFFCURVE",
"559 279 OFFCURVE",
"544 278 CURVE SMOOTH",
"487 279 OFFCURVE",
"483 319 OFFCURVE",
"484 376 CURVE SMOOTH",
"484 1082 LINE",
"126 1082 LINE",
"126 278 LINE SMOOTH",
"127 111 OFFCURVE",
"238 -16 OFFCURVE",
"430 -16 CURVE SMOOTH"
);
}
);
};
guideLines = (
{
angle = 80;
position = "{268, -8}";
}
);
layerId = "2D8F7115-C311-411E-929D-56333CF7FFB2";
paths = (
{
closed = 1;
nodes = (
"614 278 LINE",
"530 298 OFFCURVE",
"476 348 OFFCURVE",
"476 462 CURVE SMOOTH",
"476 1082 LINE",
"118 1082 LINE",
"118 446 LINE SMOOTH",
"120 172 OFFCURVE",
"228 -4 OFFCURVE",
"492 -16 CURVE"
);
}
);
width = 660;
},
{
anchors = (
{
name = bottom;
position = "{328, 0}";
},
{
name = center;
position = "{254, 570}";
},
{
name = ogonek;
position = "{414, -16}";
},
{
name = top;
position = "{254, 1060}";
}
);
layerId = "FD1CEFBD-BAB1-4C2A-A598-30E93F9A29F6";
paths = (
{
closed = 1;
nodes = (
"442 144 LINE",
"390 156 OFFCURVE",
"332 194 OFFCURVE",
"332 278 CURVE SMOOTH",
"332 1060 LINE",
"156 1060 LINE",
"156 312 LINE SMOOTH",
"156 132 OFFCURVE",
"226 8 OFFCURVE",
"414 -16 CURVE"
);
}
);
width = 566;
}
);
rightKerningGroup = LAT_A_LC;
},
{
glyphname = jdotless;
lastChange = "2021-11-24 05:40:00 +0000";
layers = (
{
anchors = (
{
name = center;
position = "{678, 570}";
},
{
name = top;
position = "{678, 1048}";
}
);
layerId = "AB099EFE-E788-4EFC-8633-CF147CB782A6";
paths = (
{
closed = 1;
nodes = (
"598 -436 OFFCURVE",
"706 -306 OFFCURVE",
"706 -98 CURVE SMOOTH",
"706 1048 LINE",
"648 1048 LINE",
"648 -110 LINE SMOOTH",
"648 -268 OFFCURVE",
"564 -380 OFFCURVE",
"380 -380 CURVE SMOOTH",
"288 -380 OFFCURVE",
"218 -356 OFFCURVE",
"134 -304 CURVE",
"108 -356 LINE",
"230 -432 OFFCURVE",
"306 -436 OFFCURVE",
"366 -436 CURVE SMOOTH"
);
},
{
closed = 1;
nodes = (
"212 992 LINE",
"706 992 LINE",
"706 1048 LINE",
"212 1048 LINE"
);
}
);
width = 1080;
},
{
anchors = (
{
name = center;
position = "{678, 570}";
},
{
name = top;
position = "{676, 1080}";
}
);
layerId = "2D8F7115-C311-411E-929D-56333CF7FFB2";
paths = (
{
closed = 1;
nodes = (
"676 -436 OFFCURVE",
"852 -260 OFFCURVE",
"852 10 CURVE SMOOTH",
"852 1080 LINE",
"494 1080 LINE",
"494 10 LINE SMOOTH",
"494 -98 OFFCURVE",
"384 -134 OFFCURVE",
"312 -134 CURVE SMOOTH",
"256 -134 OFFCURVE",
"188 -106 OFFCURVE",
"138 -68 CURVE",
"8 -348 LINE",
"110 -402 OFFCURVE",
"236 -436 OFFCURVE",
"370 -436 CURVE SMOOTH"
);
},
{
closed = 1;
nodes = (
"132 760 LINE",
"852 760 LINE",
"852 1080 LINE",
"132 1080 LINE"
);
}
);
width = 1080;
},
{
anchors = (
{
name = center;
position = "{682, 570}";
},
{
name = top;
position = "{682, 1060}";
}
);
layerId = "FD1CEFBD-BAB1-4C2A-A598-30E93F9A29F6";
paths = (
{
closed = 1;
nodes = (
"616 -436 OFFCURVE",
"770 -312 OFFCURVE",
"770 -86 CURVE SMOOTH",
"770 1060 LINE",
"596 1060 LINE",
"596 -68 LINE SMOOTH",
"596 -218 OFFCURVE",
"496 -276 OFFCURVE",
"362 -276 CURVE SMOOTH",
"286 -276 OFFCURVE",
"214 -260 OFFCURVE",
"124 -192 CURVE",
"58 -344 LINE",
"170 -414 OFFCURVE",
"264 -436 OFFCURVE",
"366 -436 CURVE SMOOTH"
);
},
{
closed = 1;
nodes = (
"180 904 LINE",
"770 904 LINE",
"770 1060 LINE",
"180 1060 LINE"
);
}
);
width = 1080;
}
);
unicode = 0237;
},
{
glyphname = k;
lastChange = "2021-11-24 03:35:53 +0000";
layers = (
{
anchors = (
{
name = bottom;
position = "{584, 0}";
},
{
name = top;
position = "{246, 1540}";
}
);
layerId = "AB099EFE-E788-4EFC-8633-CF147CB782A6";
paths = (
{
closed = 1;
nodes = (
"280 0 LINE",
"280 504 LINE",
"370 504 LINE",
"318 528 LINE",
"902 0 LINE",
"990 0 LINE",
"380 552 LINE",
"380 516 LINE",
"948 1048 LINE",
"860 1048 LINE",
"318 540 LINE",
"370 566 LINE",
"280 566 LINE",
"280 1540 LINE",
"220 1540 LINE",
"220 0 LINE"
);
}
);
width = 1080;
},
{
anchors = (
{
name = bottom;
position = "{556, 0}";
},
{
name = top;
position = "{262, 1540}";
}
);
layerId = "2D8F7115-C311-411E-929D-56333CF7FFB2";
paths = (
{
closed = 1;
nodes = (
"436 0 LINE",
"436 454 LINE",
"510 454 LINE",
"406 508 LINE",
"694 0 LINE",
"1104 0 LINE",
"662 668 LINE",
"662 462 LINE",
"1092 1082 LINE",
"682 1082 LINE",
"410 606 LINE",
"510 660 LINE",
"436 660 LINE",
"436 1540 LINE",
"80 1540 LINE",
"80 0 LINE"
);
}
);
width = 1080;
},
{
anchors = (
{
name = bottom;
position = "{566, 0}";
},
{
name = top;
position = "{250, 1516}";
}
);
layerId = "FD1CEFBD-BAB1-4C2A-A598-30E93F9A29F6";
paths = (
{
closed = 1;
nodes = (
"336 0 LINE",
"336 480 LINE",
"420 480 LINE",
"344 528 LINE",
"816 0 LINE",
"1036 0 LINE",
"494 602 LINE",
"494 508 LINE",
"1006 1060 LINE",
"784 1060 LINE",
"344 582 LINE",
"420 626 LINE",
"336 626 LINE",
"336 1540 LINE",
"164 1540 LINE",
"164 0 LINE"
);
}
);
width = 1080;
}
);
leftMetricsKey = h;
unicode = 006B;
},
{
glyphname = kgreenlandic;
lastChange = "2021-11-24 03:35:53 +0000";
layers = (
{
anchors = (
{
name = bottom;
position = "{558, 0}";
},
{
name = top;
position = "{558, 1048}";
}
);
layerId = "AB099EFE-E788-4EFC-8633-CF147CB782A6";
paths = (
{
closed = 1;
nodes = (
"282 0 LINE",
"282 504 LINE",
"368 504 LINE",
"316 528 LINE",
"902 0 LINE",
"990 0 LINE",
"378 552 LINE",
"378 516 LINE",
"948 1048 LINE",
"860 1048 LINE",
"316 540 LINE",
"368 566 LINE",
"282 566 LINE",
"282 1048 LINE",
"222 1048 LINE",
"222 0 LINE"
);
}
);
width = 1080;
},
{
anchors = (
{
name = bottom;
position = "{546, 0}";
},
{
name = top;
position = "{546, 1080}";
}
);
layerId = "2D8F7115-C311-411E-929D-56333CF7FFB2";
paths = (
{
closed = 1;
nodes = (
"440 0 LINE",
"440 454 LINE",
"502 454 LINE",
"398 508 LINE",
"692 0 LINE",
"1102 0 LINE",
"656 668 LINE",
"656 462 LINE",
"1090 1082 LINE",
"668 1082 LINE",
"398 606 LINE",
"502 660 LINE",
"440 660 LINE",
"440 1082 LINE",
"84 1082 LINE",
"84 0 LINE"
);
}
);
width = 1080;
},
{
anchors = (
{
name = bottom;
position = "{544, 0}";
},
{
name = top;
position = "{544, 1060}";
}
);
layerId = "FD1CEFBD-BAB1-4C2A-A598-30E93F9A29F6";
paths = (
{
closed = 1;
nodes = (
"336 0 LINE",
"336 458 LINE",
"418 458 LINE",
"342 508 LINE",
"816 0 LINE",
"1036 0 LINE",
"492 582 LINE",
"492 488 LINE",
"1004 1060 LINE",
"784 1060 LINE",
"342 562 LINE",
"418 606 LINE",
"336 606 LINE",
"336 1060 LINE",
"164 1060 LINE",
"164 0 LINE"
);
}
);
width = 1080;
}
);
leftMetricsKey = n;
rightMetricsKey = k;
unicode = 0138;
},
{
glyphname = l;
lastChange = "2021-11-24 03:35:53 +0000";
layers = (
{
anchors = (
{
name = bottom;
position = "{730, 0}";
},
{
name = center;
position = "{466, 738}";
},
{
name = dot;
position = "{802, 738}";
},
{
name = top;
position = "{466, 1540}";
},
{
name = topright;
position = "{506, 1540}";
}
);
layerId = "AB099EFE-E788-4EFC-8633-CF147CB782A6";
paths = (
{
closed = 1;
nodes = (
"846 -8 OFFCURVE",
"970 48 OFFCURVE",
"1036 104 CURVE",
"1036 172 LINE",
"992 122 OFFCURVE",
"860 48 OFFCURVE",
"742 48 CURVE SMOOTH",
"576 48 OFFCURVE",
"494 138 OFFCURVE",
"494 274 CURVE SMOOTH",
"494 1540 LINE",
"434 1540 LINE",
"434 274 LINE SMOOTH",
"434 104 OFFCURVE",
"548 -8 OFFCURVE",
"738 -8 CURVE SMOOTH"
);
},
{
closed = 1;
nodes = (
"112 1484 LINE",
"494 1484 LINE",
"494 1540 LINE",
"112 1540 LINE"
);
}
);
width = 1080;
},
{
anchors = (
{
name = bottom;
position = "{620, 0}";
},
{
name = center;
position = "{414, 834}";
},
{
name = dot;
position = "{856, 760}";
},
{
name = top;
position = "{418, 1540}";
},
{
name = topright;
position = "{606, 1540}";
}
);
guideLines = (
{
angle = 100;
position = "{244, -12}";
}
);
layerId = "2D8F7115-C311-411E-929D-56333CF7FFB2";
paths = (
{
closed = 1;
nodes = (
"796 -16 OFFCURVE",
"916 4 OFFCURVE",
"994 28 CURVE",
"994 352 LINE",
"958 324 OFFCURVE",
"860 302 OFFCURVE",
"772 302 CURVE SMOOTH",
"688 302 OFFCURVE",
"640 326 OFFCURVE",
"640 432 CURVE SMOOTH",
"640 1540 LINE",
"282 1540 LINE",
"282 380 LINE SMOOTH",
"282 140 OFFCURVE",
"452 -16 OFFCURVE",
"704 -16 CURVE SMOOTH"
);
},
{
closed = 1;
nodes = (
"32 1220 LINE",
"614 1220 LINE",
"614 1540 LINE",
"32 1540 LINE"
);
}
);
width = 1080;
},
{
anchors = (
{
name = bottom;
position = "{688, 0}";
},
{
name = center;
position = "{446, 774}";
},
{
name = dot;
position = "{822, 746}";
},
{
name = top;
position = "{448, 1540}";
},
{
name = topright;
position = "{544, 1540}";
}
);
layerId = "FD1CEFBD-BAB1-4C2A-A598-30E93F9A29F6";
paths = (
{
closed = 1;
nodes = (
"826 -16 OFFCURVE",
"936 14 OFFCURVE",
"1020 62 CURVE",
"1020 240 LINE",
"982 202 OFFCURVE",
"862 144 OFFCURVE",
"748 144 CURVE SMOOTH",
"608 144 OFFCURVE",
"540 210 OFFCURVE",
"540 310 CURVE SMOOTH",
"540 1540 LINE",
"368 1540 LINE",
"368 314 LINE SMOOTH",
"368 114 OFFCURVE",
"514 -16 OFFCURVE",
"726 -16 CURVE SMOOTH"
);
},
{
closed = 1;
nodes = (
"80 1384 LINE",
"538 1384 LINE",
"538 1540 LINE",
"80 1540 LINE"
);
}
);
width = 1080;
}
);
unicode = 006C;
},
{
color = 4;
glyphname = l.ss01;
lastChange = "2021-11-24 03:35:53 +0000";
layers = (
{
anchors = (
{
name = bottom;
position = "{818, 0}";
},
{
name = center;
position = "{208, 738}";
},
{
name = dot;
position = "{23486, 738}";
},
{
name = top;
position = "{208, 1540}";
},
{
name = topright;
position = "{350, 1540}";
}
);
layerId = "AB099EFE-E788-4EFC-8633-CF147CB782A6";
paths = (
{
closed = 1;
nodes = (
"580 0 LINE",
"580 1540 LINE",
"520 1540 LINE",
"520 0 LINE"
);
},
{
closed = 1;
nodes = (
"206 1484 LINE",
"574 1484 LINE",
"574 1540 LINE",
"206 1540 LINE"
);
},
{
closed = 1;
nodes = (
"206 0 LINE",
"874 0 LINE",
"874 56 LINE",
"206 56 LINE"
);
}
);
width = 1080;
},
{
anchors = (
{
name = bottom;
position = "{462, 0}";
},
{
name = center;
position = "{636, 786}";
},
{
name = dot;
position = "{230, 754}";
},
{
name = top;
position = "{636, 1540}";
},
{
name = topright;
position = "{990, 1540}";
}
);
layerId = "2D8F7115-C311-411E-929D-56333CF7FFB2";
paths = (
{
closed = 1;
nodes = (
"722 0 LINE",
"722 1540 LINE",
"362 1540 LINE",
"362 0 LINE"
);
},
{
closed = 1;
nodes = (
"150 1240 LINE",
"722 1240 LINE",
"722 1540 LINE",
"150 1540 LINE"
);
},
{
closed = 1;
nodes = (
"150 0 LINE",
"930 0 LINE",
"930 300 LINE",
"150 300 LINE"
);
}
);
width = 1080;
},
{
anchors = (
{
name = bottom;
position = "{860, 0}";
},
{
name = center;
position = "{162, 758}";
},
{
name = dot;
position = "{64, 746}";
},
{
name = top;
position = "{162, 1540}";
},
{
name = topright;
position = "{396, 1540}";
}
);
layerId = "FD1CEFBD-BAB1-4C2A-A598-30E93F9A29F6";
paths = (
{
closed = 1;
nodes = (
"630 0 LINE",
"630 1540 LINE",
"468 1540 LINE",
"468 0 LINE"
);
},
{
closed = 1;
nodes = (
"186 1384 LINE",
"630 1384 LINE",
"630 1540 LINE",
"186 1540 LINE"
);
},
{
closed = 1;
nodes = (
"186 0 LINE",
"896 0 LINE",
"896 156 LINE",
"186 156 LINE"
);
}
);
width = 1080;
}
);
},
{
glyphname = m;
lastChange = "2021-11-24 07:32:23 +0000";
layers = (
{
anchors = (
{
name = bottom;
position = "{540, 0}";
},
{
name = leghookleft;
position = "{948, 0}";
},
{
name = top;
position = "{546, 1048}";
}
);
background = {
paths = (
{
closed = 1;
nodes = (
"234 0 LINE",
"234 652 LINE SMOOTH",
"233 815 OFFCURVE",
"360 1008 OFFCURVE",
"558 1008 CURVE SMOOTH",
"680 1008 OFFCURVE",
"811 930 OFFCURVE",
"812 680 CURVE SMOOTH",
"812 0 LINE",
"872 0 LINE",
"872 676 LINE SMOOTH",
"872 819 OFFCURVE",
"995 1008 OFFCURVE",
"1192 1008 CURVE SMOOTH",
"1323 1008 OFFCURVE",
"1442 930 OFFCURVE",
"1442 668 CURVE SMOOTH",
"1442 0 LINE",
"1504 0 LINE",
"1504 688 LINE SMOOTH",
"1503 954 OFFCURVE",
"1360 1065 OFFCURVE",
"1188 1064 CURVE SMOOTH",
"999 1065 OFFCURVE",
"889 934 OFFCURVE",
"852 828 CURVE",
"876 840 LINE",
"832 840 LINE",
"860 820 LINE",
"823 971 OFFCURVE",
"700 1065 OFFCURVE",
"552 1064 CURVE SMOOTH",
"393 1065 OFFCURVE",
"283 958 OFFCURVE",
"222 824 CURVE",
"246 856 LINE",
"234 856 LINE",
"234 1048 LINE",
"172 1048 LINE",
"172 0 LINE"
);
}
);
};
guideLines = (
{
angle = 60;
position = "{90, 358}";
}
);
layerId = "AB099EFE-E788-4EFC-8633-CF147CB782A6";
paths = (
{
closed = 1;
nodes = (
"160 0 LINE",
"160 746 LINE SMOOTH",
"160 906 OFFCURVE",
"232 1008 OFFCURVE",
"346 1008 CURVE SMOOTH",
"442 1008 OFFCURVE",
"510 918 OFFCURVE",
"510 776 CURVE SMOOTH",
"510 0 LINE",
"570 0 LINE",
"570 776 LINE SMOOTH",
"570 918 OFFCURVE",
"644 1008 OFFCURVE",
"748 1008 CURVE SMOOTH",
"854 1008 OFFCURVE",
"920 918 OFFCURVE",
"920 776 CURVE SMOOTH",
"920 0 LINE",
"980 0 LINE",
"980 776 LINE SMOOTH",
"980 952 OFFCURVE",
"890 1064 OFFCURVE",
"758 1064 CURVE SMOOTH",
"638 1064 OFFCURVE",
"548 974 OFFCURVE",
"528 880 CURVE",
"560 920 LINE",
"520 920 LINE",
"548 880 LINE",
"528 984 OFFCURVE",
"454 1064 OFFCURVE",
"350 1064 CURVE SMOOTH",
"254 1064 OFFCURVE",
"176 998 OFFCURVE",
"148 886 CURVE",
"174 924 LINE",
"160 924 LINE",
"160 1048 LINE",
"100 1048 LINE",
"100 0 LINE"
);
}
);
width = 1080;
},
{
anchors = (
{
name = bottom;
position = "{552, 0}";
},
{
name = leghookleft;
position = "{902, 0}";
},
{
name = top;
position = "{544, 1074}";
}
);
layerId = "2D8F7115-C311-411E-929D-56333CF7FFB2";
paths = (
{
closed = 1;
nodes = (
"344 0 LINE",
"344 760 LINE SMOOTH",
"344 816 OFFCURVE",
"359 842 OFFCURVE",
"388 842 CURVE SMOOTH",
"418 842 OFFCURVE",
"428 816 OFFCURVE",
"428 762 CURVE SMOOTH",
"428 0 LINE",
"660 0 LINE",
"660 762 LINE SMOOTH",
"660 814 OFFCURVE",
"674 842 OFFCURVE",
"704 842 CURVE SMOOTH",
"736 842 OFFCURVE",
"744 810 OFFCURVE",
"744 762 CURVE SMOOTH",
"744 0 LINE",
"1036 0 LINE",
"1036 804 LINE SMOOTH",
"1036 870 OFFCURVE",
"1046 1094 OFFCURVE",
"844 1094 CURVE SMOOTH",
"734 1094 OFFCURVE",
"658 1028 OFFCURVE",
"630 930 CURVE",
"660 968 LINE",
"626 968 LINE",
"650 930 LINE",
"636 1030 OFFCURVE",
"564 1094 OFFCURVE",
"480 1094 CURVE SMOOTH",
"380 1094 OFFCURVE",
"310 1002 OFFCURVE",
"270 830 CURVE",
"334 942 LINE",
"302 942 LINE",
"302 1078 LINE",
"52 1078 LINE",
"52 0 LINE"
);
}
);
width = 1080;
},
{
anchors = (
{
name = bottom;
position = "{544, 0}";
},
{
name = leghookleft;
position = "{926, 0}";
},
{
name = top;
position = "{552, 1060}";
}
);
layerId = "FD1CEFBD-BAB1-4C2A-A598-30E93F9A29F6";
paths = (
{
closed = 1;
nodes = (
"236 0 LINE",
"236 774 LINE SMOOTH",
"236 866 OFFCURVE",
"290 914 OFFCURVE",
"352 914 CURVE SMOOTH",
"416 914 OFFCURVE",
"460 868 OFFCURVE",
"460 778 CURVE SMOOTH",
"460 0 LINE",
"622 0 LINE",
"622 778 LINE SMOOTH",
"622 868 OFFCURVE",
"674 914 OFFCURVE",
"738 914 CURVE SMOOTH",
"804 914 OFFCURVE",
"844 866 OFFCURVE",
"844 778 CURVE SMOOTH",
"844 0 LINE",
"1008 0 LINE",
"1008 796 LINE SMOOTH",
"1008 976 OFFCURVE",
"936 1076 OFFCURVE",
"800 1076 CURVE SMOOTH",
"684 1076 OFFCURVE",
"602 1012 OFFCURVE",
"572 904 CURVE",
"610 948 LINE",
"558 948 LINE",
"596 904 LINE",
"574 1014 OFFCURVE",
"496 1076 OFFCURVE",
"414 1076 CURVE SMOOTH",
"310 1076 OFFCURVE",
"236 984 OFFCURVE",
"198 840 CURVE",
"254 934 LINE",
"230 934 LINE",
"230 1060 LINE",
"72 1060 LINE",
"72 0 LINE"
);
}
);
width = 1080;
}
);
unicode = 006D;
},
{
glyphname = n;
lastChange = "2021-11-24 07:13:46 +0000";
layers = (
{
anchors = (
{
name = bottom;
position = "{564, 0}";
},
{
name = leghookleft;
position = "{218, 0}";
},
{
name = leghookretroflex;
position = "{872, 0}";
},
{
name = top;
position = "{568, 1048}";
}
);
layerId = "AB099EFE-E788-4EFC-8633-CF147CB782A6";
paths = (
{
closed = 1;
nodes = (
"248 0 LINE",
"248 668 LINE SMOOTH",
"248 870 OFFCURVE",
"378 1008 OFFCURVE",
"556 1008 CURVE SMOOTH",
"734 1008 OFFCURVE",
"840 882 OFFCURVE",
"840 672 CURVE SMOOTH",
"840 0 LINE",
"900 0 LINE",
"900 676 LINE SMOOTH",
"900 912 OFFCURVE",
"770 1064 OFFCURVE",
"566 1064 CURVE SMOOTH",
"398 1064 OFFCURVE",
"268 962 OFFCURVE",
"234 832 CURVE",
"276 876 LINE",
"248 876 LINE",
"248 1048 LINE",
"188 1048 LINE",
"188 0 LINE"
);
}
);
width = 1080;
},
{
anchors = (
{
name = bottom;
position = "{536, 0}";
},
{
name = leghookleft;
position = "{260, 0}";
},
{
name = leghookretroflex;
position = "{824, 0}";
},
{
name = top;
position = "{568, 1080}";
}
);
layerId = "2D8F7115-C311-411E-929D-56333CF7FFB2";
paths = (
{
closed = 1;
nodes = (
"440 0 LINE",
"440 660 LINE SMOOTH",
"440 748 OFFCURVE",
"482 804 OFFCURVE",
"546 804 CURVE SMOOTH",
"608 804 OFFCURVE",
"648 750 OFFCURVE",
"648 664 CURVE SMOOTH",
"648 0 LINE",
"1004 0 LINE",
"1004 710 LINE SMOOTH",
"1004 944 OFFCURVE",
"896 1096 OFFCURVE",
"708 1096 CURVE SMOOTH",
"538 1096 OFFCURVE",
"406 974 OFFCURVE",
"386 814 CURVE",
"472 936 LINE",
"428 936 LINE",
"428 1080 LINE",
"84 1080 LINE",
"84 0 LINE"
);
}
);
width = 1080;
},
{
anchors = (
{
name = bottom;
position = "{546, 0}";
},
{
name = leghookleft;
position = "{230, 0}";
},
{
name = leghookretroflex;
position = "{850, 0}";
},
{
name = top;
position = "{572, 1060}";
}
);
layerId = "FD1CEFBD-BAB1-4C2A-A598-30E93F9A29F6";
paths = (
{
closed = 1;
nodes = (
"316 0 LINE",
"316 644 LINE SMOOTH",
"316 810 OFFCURVE",
"412 916 OFFCURVE",
"548 916 CURVE SMOOTH",
"686 916 OFFCURVE",
"768 808 OFFCURVE",
"768 644 CURVE SMOOTH",
"768 0 LINE",
"940 0 LINE",
"940 680 LINE SMOOTH",
"940 920 OFFCURVE",
"812 1076 OFFCURVE",
"608 1076 CURVE SMOOTH",
"452 1076 OFFCURVE",
"324 984 OFFCURVE",
"284 856 CURVE",
"352 930 LINE",
"314 930 LINE",
"314 1060 LINE",
"144 1060 LINE",
"144 0 LINE"
);
}
);
width = 1080;
}
);
unicode = 006E;
},
{
glyphname = eng;
lastChange = "2021-11-24 03:35:53 +0000";
layers = (
{
anchors = (
{
name = bottom;
position = "{568, 0}";
},
{
name = leghookleft;
position = "{212, 0}";
},
{
name = leghookretroflex;
position = "{880, 0}";
},
{
name = top;
position = "{570, 1048}";
}
);
layerId = "AB099EFE-E788-4EFC-8633-CF147CB782A6";
paths = (
{
closed = 1;
nodes = (
"242 0 LINE",
"242 668 LINE SMOOTH",
"242 846 OFFCURVE",
"382 1008 OFFCURVE",
"574 1008 CURVE SMOOTH",
"740 1008 OFFCURVE",
"848 892 OFFCURVE",
"848 660 CURVE SMOOTH",
"848 0 LINE",
"908 0 LINE",
"908 676 LINE SMOOTH",
"908 932 OFFCURVE",
"778 1064 OFFCURVE",
"574 1064 CURVE SMOOTH",
"404 1064 OFFCURVE",
"278 964 OFFCURVE",
"228 824 CURVE",
"270 868 LINE",
"242 868 LINE",
"242 1048 LINE",
"182 1048 LINE",
"182 0 LINE"
);
},
{
closed = 1;
nodes = (
"820 -438 OFFCURVE",
"908 -324 OFFCURVE",
"908 -140 CURVE SMOOTH",
"908 40 LINE",
"848 40 LINE",
"848 -152 LINE SMOOTH",
"848 -272 OFFCURVE",
"796 -382 OFFCURVE",
"662 -378 CURVE SMOOTH",
"618 -376 OFFCURVE",
"584 -374 OFFCURVE",
"514 -338 CURVE",
"514 -402 LINE",
"564 -426 OFFCURVE",
"626 -438 OFFCURVE",
"674 -438 CURVE SMOOTH"
);
}
);
width = 1080;
},
{
anchors = (
{
name = bottom;
position = "{534, 0}";
},
{
name = leghookleft;
position = "{260, 0}";
},
{
name = leghookretroflex;
position = "{824, 0}";
},
{
name = top;
position = "{570, 1080}";
}
);
layerId = "2D8F7115-C311-411E-929D-56333CF7FFB2";
paths = (
{
closed = 1;
nodes = (
"440 0 LINE",
"440 628 LINE SMOOTH",
"440 742 OFFCURVE",
"488 804 OFFCURVE",
"546 804 CURVE SMOOTH",
"606 804 OFFCURVE",
"648 746 OFFCURVE",
"648 632 CURVE SMOOTH",
"648 0 LINE",
"1004 0 LINE",
"1004 710 LINE SMOOTH",
"1004 948 OFFCURVE",
"880 1096 OFFCURVE",
"716 1096 CURVE SMOOTH",
"564 1096 OFFCURVE",
"412 998 OFFCURVE",
"386 814 CURVE",
"474 936 LINE",
"428 936 LINE",
"428 1080 LINE",
"84 1080 LINE",
"84 0 LINE"
);
},
{
closed = 1;
nodes = (
"872 -446 OFFCURVE",
"1004 -260 OFFCURVE",
"1004 -12 CURVE SMOOTH",
"1004 168 LINE",
"648 122 LINE",
"648 -32 LINE SMOOTH",
"648 -98 OFFCURVE",
"600 -140 OFFCURVE",
"544 -140 CURVE SMOOTH",
"524 -140 OFFCURVE",
"470 -132 OFFCURVE",
"434 -114 CURVE",
"434 -418 LINE",
"454 -434 OFFCURVE",
"528 -446 OFFCURVE",
"594 -446 CURVE SMOOTH"
);
}
);
width = 1080;
},
{
anchors = (
{
name = bottom;
position = "{548, 0}";
},
{
name = leghookleft;
position = "{228, 0}";
},
{
name = leghookretroflex;
position = "{854, 0}";
},
{
name = top;
position = "{572, 1060}";
}
);
layerId = "FD1CEFBD-BAB1-4C2A-A598-30E93F9A29F6";
paths = (
{
closed = 1;
nodes = (
"314 0 LINE",
"314 644 LINE SMOOTH",
"314 820 OFFCURVE",
"420 916 OFFCURVE",
"554 916 CURVE SMOOTH",
"690 916 OFFCURVE",
"772 822 OFFCURVE",
"772 644 CURVE SMOOTH",
"772 0 LINE",
"944 0 LINE",
"944 680 LINE SMOOTH",
"944 872 OFFCURVE",
"842 1076 OFFCURVE",
"610 1076 CURVE SMOOTH",
"460 1076 OFFCURVE",
"328 1000 OFFCURVE",
"282 856 CURVE",
"350 930 LINE",
"314 930 LINE",
"314 1060 LINE",
"142 1060 LINE",
"142 0 LINE"
);
},
{
closed = 1;
nodes = (
"840 -442 OFFCURVE",
"944 -304 OFFCURVE",
"944 -94 CURVE SMOOTH",
"944 90 LINE",
"774 74 LINE",
"774 -106 LINE SMOOTH",
"774 -202 OFFCURVE",
"722 -292 OFFCURVE",
"616 -288 CURVE SMOOTH",
"570 -286 OFFCURVE",
"516 -272 OFFCURVE",
"486 -254 CURVE",
"486 -410 LINE",
"516 -428 OFFCURVE",
"586 -442 OFFCURVE",
"646 -442 CURVE SMOOTH"
);
}
);
width = 1080;
}
);
leftMetricsKey = n;
rightMetricsKey = n;
unicode = 014B;
},
{
glyphname = o;
lastChange = "2021-11-24 07:17:17 +0000";
layers = (
{
anchors = (
{
name = bottom;
position = "{540, 0}";
},
{
name = center;
position = "{544, 524}";
},
{
name = horn;
position = "{740, 1012}";
},
{
name = ogonek;
position = "{654, 0}";
},
{
name = top;
position = "{540, 1048}";
},
{
name = topright;
position = "{1050, 1048}";
}
);
layerId = "AB099EFE-E788-4EFC-8633-CF147CB782A6";
paths = (
{
closed = 1;
nodes = (
"800 -16 OFFCURVE",
"980 204 OFFCURVE",
"980 524 CURVE SMOOTH",
"980 844 OFFCURVE",
"800 1064 OFFCURVE",
"540 1064 CURVE SMOOTH",
"280 1064 OFFCURVE",
"100 844 OFFCURVE",
"100 524 CURVE SMOOTH",
"100 204 OFFCURVE",
"280 -16 OFFCURVE",
"540 -16 CURVE SMOOTH"
);
},
{
closed = 1;
nodes = (
"314 40 OFFCURVE",
"160 238 OFFCURVE",
"160 524 CURVE SMOOTH",
"160 810 OFFCURVE",
"314 1008 OFFCURVE",
"540 1008 CURVE SMOOTH",
"766 1008 OFFCURVE",
"920 810 OFFCURVE",
"920 524 CURVE SMOOTH",
"920 238 OFFCURVE",
"766 40 OFFCURVE",
"540 40 CURVE SMOOTH"
);
}
);
width = 1080;
},
{
anchors = (
{
name = bottom;
position = "{540, 0}";
},
{
name = center;
position = "{540, 540}";
},
{
name = horn;
position = "{820, 1016}";
},
{
name = ogonek;
position = "{666, 0}";
},
{
name = top;
position = "{540, 1080}";
},
{
name = topright;
position = "{1044, 1080}";
}
);
layerId = "2D8F7115-C311-411E-929D-56333CF7FFB2";
paths = (
{
closed = 1;
nodes = (
"842 -16 OFFCURVE",
"1050 210 OFFCURVE",
"1050 540 CURVE SMOOTH",
"1050 871 OFFCURVE",
"842 1098 OFFCURVE",
"540 1098 CURVE SMOOTH",
"238 1098 OFFCURVE",
"30 871 OFFCURVE",
"30 540 CURVE SMOOTH",
"30 210 OFFCURVE",
"238 -16 OFFCURVE",
"540 -16 CURVE SMOOTH"
);
},
{
closed = 1;
nodes = (
"434 284 OFFCURVE",
"362 388 OFFCURVE",
"362 540 CURVE SMOOTH",
"362 693 OFFCURVE",
"435 798 OFFCURVE",
"542 798 CURVE SMOOTH",
"646 798 OFFCURVE",
"718 693 OFFCURVE",
"718 540 CURVE SMOOTH",
"718 388 OFFCURVE",
"646 284 OFFCURVE",
"540 284 CURVE SMOOTH"
);
}
);
width = 1080;
},
{
anchors = (
{
name = bottom;
position = "{540, 0}";
},
{
name = center;
position = "{540, 532}";
},
{
name = horn;
position = "{770, 1016}";
},
{
name = ogonek;
position = "{664, 0}";
},
{
name = top;
position = "{540, 1060}";
},
{
name = topright;
position = "{1050, 1060}";
}
);
layerId = "FD1CEFBD-BAB1-4C2A-A598-30E93F9A29F6";
paths = (
{
closed = 1;
nodes = (
"817 -16 OFFCURVE",
"1008 209 OFFCURVE",
"1008 536 CURVE SMOOTH",
"1008 856 OFFCURVE",
"817 1076 OFFCURVE",
"540 1076 CURVE SMOOTH",
"263 1076 OFFCURVE",
"72 856 OFFCURVE",
"72 536 CURVE SMOOTH",
"72 209 OFFCURVE",
"263 -16 OFFCURVE",
"540 -16 CURVE SMOOTH"
);
},
{
closed = 1;
nodes = (
"366 144 OFFCURVE",
"246 304 OFFCURVE",
"246 536 CURVE SMOOTH",
"246 761 OFFCURVE",
"366 916 OFFCURVE",
"540 916 CURVE SMOOTH",
"714 916 OFFCURVE",
"834 761 OFFCURVE",
"834 536 CURVE SMOOTH",
"834 304 OFFCURVE",
"714 144 OFFCURVE",
"540 144 CURVE SMOOTH"
);
}
);
width = 1080;
}
);
unicode = 006F;
},
{
color = 4;
glyphname = o.ss01;
lastChange = "2021-11-24 03:35:53 +0000";
layers = (
{
anchors = (
{
name = bottom;
position = "{540, 0}";
},
{
name = center;
position = "{540, 524}";
},
{
name = horn;
position = "{740, 1012}";
},
{
name = ogonek;
position = "{634, 0}";
},
{
name = top;
position = "{540, 1048}";
},
{
name = topright;
position = "{1068, 1048}";
}
);
layerId = "AB099EFE-E788-4EFC-8633-CF147CB782A6";
paths = (
{
closed = 1;
nodes = (
"792 -16 OFFCURVE",
"1002 226 OFFCURVE",
"1002 528 CURVE SMOOTH",
"1002 828 OFFCURVE",
"792 1064 OFFCURVE",
"540 1064 CURVE SMOOTH",
"288 1064 OFFCURVE",
"80 826 OFFCURVE",
"80 528 CURVE SMOOTH",
"80 226 OFFCURVE",
"288 -16 OFFCURVE",
"540 -16 CURVE SMOOTH"
);
},
{
closed = 1;
nodes = (
"320 38 OFFCURVE",
"140 264 OFFCURVE",
"140 528 CURVE SMOOTH",
"140 794 OFFCURVE",
"320 1008 OFFCURVE",
"540 1008 CURVE SMOOTH",
"760 1008 OFFCURVE",
"942 796 OFFCURVE",
"942 528 CURVE SMOOTH",
"942 258 OFFCURVE",
"760 38 OFFCURVE",
"540 38 CURVE SMOOTH"
);
}
);
width = 1080;
},
{
anchors = (
{
name = bottom;
position = "{538, 0}";
},
{
name = center;
position = "{538, 540}";
},
{
name = horn;
position = "{818, 1016}";
},
{
name = ogonek;
position = "{652, 0}";
},
{
name = top;
position = "{542, 1080}";
},
{
name = topright;
position = "{1086, 1080}";
}
);
layerId = "2D8F7115-C311-411E-929D-56333CF7FFB2";
paths = (
{
closed = 1;
nodes = (
"830 -16 OFFCURVE",
"1062 230 OFFCURVE",
"1062 540 CURVE SMOOTH",
"1062 850 OFFCURVE",
"830 1096 OFFCURVE",
"538 1096 CURVE SMOOTH",
"252 1096 OFFCURVE",
"16 850 OFFCURVE",
"16 540 CURVE SMOOTH",
"16 230 OFFCURVE",
"252 -16 OFFCURVE",
"538 -16 CURVE SMOOTH"
);
},
{
closed = 1;
nodes = (
"438 284 OFFCURVE",
"352 400 OFFCURVE",
"352 542 CURVE SMOOTH",
"352 682 OFFCURVE",
"438 796 OFFCURVE",
"538 796 CURVE SMOOTH",
"642 796 OFFCURVE",
"726 682 OFFCURVE",
"726 540 CURVE SMOOTH",
"726 402 OFFCURVE",
"646 284 OFFCURVE",
"538 284 CURVE SMOOTH"
);
}
);
width = 1080;
},
{
anchors = (
{
name = bottom;
position = "{540, 0}";
},
{
name = center;
position = "{540, 532}";
},
{
name = horn;
position = "{766, 1016}";
},
{
name = ogonek;
position = "{640, 0}";
},
{
name = top;
position = "{540, 1060}";
},
{
name = topright;
position = "{1074, 1060}";
}
);
layerId = "FD1CEFBD-BAB1-4C2A-A598-30E93F9A29F6";
paths = (
{
closed = 1;
nodes = (
"806 -16 OFFCURVE",
"1024 230 OFFCURVE",
"1024 536 CURVE SMOOTH",
"1024 840 OFFCURVE",
"806 1076 OFFCURVE",
"540 1076 CURVE SMOOTH",
"268 1076 OFFCURVE",
"56 840 OFFCURVE",
"56 536 CURVE SMOOTH",
"56 230 OFFCURVE",
"268 -16 OFFCURVE",
"540 -16 CURVE SMOOTH"
);
},
{
closed = 1;
nodes = (
"362 144 OFFCURVE",
"226 320 OFFCURVE",
"226 536 CURVE SMOOTH",
"226 750 OFFCURVE",
"362 916 OFFCURVE",
"540 916 CURVE SMOOTH",
"712 916 OFFCURVE",
"854 754 OFFCURVE",
"854 540 CURVE SMOOTH",
"854 320 OFFCURVE",
"712 144 OFFCURVE",
"540 144 CURVE SMOOTH"
);
}
);
width = 1080;
}
);
},
{
glyphname = oe;
lastChange = "2021-11-24 03:35:53 +0000";
layers = (
{
anchors = (
{
name = top;
position = "{566, 1048}";
}
);
layerId = "AB099EFE-E788-4EFC-8633-CF147CB782A6";
paths = (
{
closed = 1;
nodes = (
"464 -16 OFFCURVE",
"594 220 OFFCURVE",
"594 526 CURVE SMOOTH",
"594 828 OFFCURVE",
"464 1064 OFFCURVE",
"280 1064 CURVE SMOOTH",
"90 1064 OFFCURVE",
"-44 818 OFFCURVE",
"-44 524 CURVE SMOOTH",
"-44 218 OFFCURVE",
"98 -16 OFFCURVE",
"282 -16 CURVE SMOOTH"
);
},
{
closed = 1;
nodes = (
"130 40 OFFCURVE",
"16 248 OFFCURVE",
"16 524 CURVE SMOOTH",
"16 808 OFFCURVE",
"136 1008 OFFCURVE",
"282 1008 CURVE SMOOTH",
"430 1008 OFFCURVE",
"538 802 OFFCURVE",
"538 526 CURVE SMOOTH",
"538 252 OFFCURVE",
"432 40 OFFCURVE",
"280 40 CURVE SMOOTH"
);
},
{
closed = 1;
nodes = (
"950 -16 OFFCURVE",
"1026 38 OFFCURVE",
"1084 118 CURVE",
"1060 182 LINE",
"1010 100 OFFCURVE",
"932 40 OFFCURVE",
"852 40 CURVE SMOOTH",
"712 40 OFFCURVE",
"594 220 OFFCURVE",
"596 528 CURVE SMOOTH",
"598 788 OFFCURVE",
"696 1008 OFFCURVE",
"842 1008 CURVE SMOOTH",
"976 1008 OFFCURVE",
"1066 824 OFFCURVE",
"1064 562 CURVE",
"584 562 LINE",
"584 506 LINE",
"1122 506 LINE",
"1126 548 OFFCURVE",
"1126 534 OFFCURVE",
"1126 548 CURVE SMOOTH",
"1126 856 OFFCURVE",
"1010 1064 OFFCURVE",
"840 1064 CURVE SMOOTH",
"658 1064 OFFCURVE",
"542 820 OFFCURVE",
"542 522 CURVE SMOOTH",
"542 204 OFFCURVE",
"666 -16 OFFCURVE",
"856 -16 CURVE SMOOTH"
);
}
);
width = 1080;
},
{
anchors = (
{
name = top;
position = "{560, 1080}";
}
);
layerId = "2D8F7115-C311-411E-929D-56333CF7FFB2";
paths = (
{
closed = 1;
nodes = (
"534 -16 OFFCURVE",
"686 262 OFFCURVE",
"686 540 CURVE SMOOTH",
"686 814 OFFCURVE",
"536 1096 OFFCURVE",
"298 1096 CURVE SMOOTH",
"82 1096 OFFCURVE",
"-96 850 OFFCURVE",
"-96 544 CURVE SMOOTH",
"-96 228 OFFCURVE",
"88 -16 OFFCURVE",
"300 -16 CURVE SMOOTH"
);
},
{
closed = 1;
nodes = (
"240 274 OFFCURVE",
"198 386 OFFCURVE",
"198 540 CURVE SMOOTH",
"198 698 OFFCURVE",
"240 802 OFFCURVE",
"314 802 CURVE SMOOTH",
"382 802 OFFCURVE",
"422 702 OFFCURVE",
"422 542 CURVE SMOOTH",
"422 378 OFFCURVE",
"378 274 OFFCURVE",
"312 274 CURVE SMOOTH"
);
},
{
closed = 1;
nodes = (
"930 -16 OFFCURVE",
"1040 16 OFFCURVE",
"1086 66 CURVE",
"998 324 LINE",
"950 274 OFFCURVE",
"904 254 OFFCURVE",
"860 254 CURVE SMOOTH",
"808 254 OFFCURVE",
"670 300 OFFCURVE",
"670 560 CURVE SMOOTH",
"670 782 OFFCURVE",
"764 848 OFFCURVE",
"802 848 CURVE SMOOTH",
"868 848 OFFCURVE",
"912 750 OFFCURVE",
"912 638 CURVE",
"648 638 LINE",
"648 434 LINE",
"1166 434 LINE",
"1172 476 OFFCURVE",
"1176 518 OFFCURVE",
"1176 574 CURVE SMOOTH",
"1176 962 OFFCURVE",
"964 1096 OFFCURVE",
"826 1096 CURVE SMOOTH",
"624 1096 OFFCURVE",
"438 862 OFFCURVE",
"438 530 CURVE SMOOTH",
"438 214 OFFCURVE",
"600 -16 OFFCURVE",
"846 -16 CURVE SMOOTH"
);
}
);
width = 1080;
},
{
anchors = (
{
name = top;
position = "{560, 1060}";
}
);
layerId = "FD1CEFBD-BAB1-4C2A-A598-30E93F9A29F6";
paths = (
{
closed = 1;
nodes = (
"490 -16 OFFCURVE",
"630 218 OFFCURVE",
"630 532 CURVE SMOOTH",
"630 854 OFFCURVE",
"484 1076 OFFCURVE",
"284 1076 CURVE SMOOTH",
"86 1076 OFFCURVE",
"-66 838 OFFCURVE",
"-66 540 CURVE SMOOTH",
"-66 240 OFFCURVE",
"90 -16 OFFCURVE",
"290 -16 CURVE SMOOTH"
);
},
{
closed = 1;
nodes = (
"176 144 OFFCURVE",
"94 302 OFFCURVE",
"94 532 CURVE SMOOTH",
"94 760 OFFCURVE",
"176 916 OFFCURVE",
"292 916 CURVE SMOOTH",
"406 916 OFFCURVE",
"486 758 OFFCURVE",
"486 524 CURVE SMOOTH",
"486 298 OFFCURVE",
"410 144 OFFCURVE",
"294 144 CURVE SMOOTH"
);
},
{
closed = 1;
nodes = (
"946 -16 OFFCURVE",
"1038 36 OFFCURVE",
"1084 102 CURVE",
"1030 258 LINE",
"980 184 OFFCURVE",
"922 144 OFFCURVE",
"856 144 CURVE SMOOTH",
"732 144 OFFCURVE",
"630 298 OFFCURVE",
"630 530 CURVE SMOOTH",
"630 766 OFFCURVE",
"720 916 OFFCURVE",
"822 916 CURVE SMOOTH",
"928 916 OFFCURVE",
"990 774 OFFCURVE",
"990 602 CURVE",
"606 602 LINE",
"606 462 LINE",
"1134 462 LINE",
"1136 484 OFFCURVE",
"1140 524 OFFCURVE",
"1140 582 CURVE SMOOTH",
"1140 878 OFFCURVE",
"988 1076 OFFCURVE",
"828 1076 CURVE SMOOTH",
"644 1076 OFFCURVE",
"496 862 OFFCURVE",
"496 536 CURVE SMOOTH",
"496 228 OFFCURVE",
"630 -16 OFFCURVE",
"850 -16 CURVE SMOOTH"
);
}
);
width = 1080;
}
);
leftMetricsKey = o;
rightMetricsKey = e;
unicode = 0153;
},
{
glyphname = p;
lastChange = "2021-11-24 07:18:31 +0000";
layers = (
{
anchors = (
{
name = bottom;
position = "{194, -420}";
},
{
name = top;
position = "{552, 1048}";
}
);
layerId = "AB099EFE-E788-4EFC-8633-CF147CB782A6";
paths = (
{
closed = 1;
nodes = (
"224 224 LINE",
"246 224 LINE",
"216 330 LINE",
"216 748 LINE",
"250 834 LINE",
"224 834 LINE",
"224 1048 LINE",
"164 1048 LINE",
"164 -420 LINE",
"224 -420 LINE"
);
},
{
closed = 1;
nodes = (
"811 -16 OFFCURVE",
"968 196 OFFCURVE",
"968 524 CURVE SMOOTH",
"968 852 OFFCURVE",
"811 1064 OFFCURVE",
"568 1064 CURVE SMOOTH",
"328 1064 OFFCURVE",
"172 853 OFFCURVE",
"172 528 CURVE SMOOTH",
"172 198 OFFCURVE",
"328 -16 OFFCURVE",
"568 -16 CURVE SMOOTH"
);
},
{
closed = 1;
nodes = (
"360 38 OFFCURVE",
"226 229 OFFCURVE",
"226 524 CURVE SMOOTH",
"226 819 OFFCURVE",
"360 1010 OFFCURVE",
"566 1010 CURVE SMOOTH",
"774 1010 OFFCURVE",
"908 819 OFFCURVE",
"908 524 CURVE SMOOTH",
"908 229 OFFCURVE",
"774 38 OFFCURVE",
"568 38 CURVE SMOOTH"
);
}
);
width = 1080;
},
{
anchors = (
{
name = bottom;
position = "{248, -420}";
},
{
name = top;
position = "{554, 1080}";
}
);
layerId = "2D8F7115-C311-411E-929D-56333CF7FFB2";
paths = (
{
closed = 1;
nodes = (
"428 90 LINE",
"480 90 LINE",
"406 212 LINE",
"406 862 LINE",
"450 982 LINE",
"406 982 LINE",
"406 1080 LINE",
"76 1080 LINE",
"76 -420 LINE",
"428 -420 LINE"
);
},
{
closed = 1;
nodes = (
"897 -16 OFFCURVE",
"1058 209 OFFCURVE",
"1058 536 CURVE SMOOTH",
"1058 869 OFFCURVE",
"892 1098 OFFCURVE",
"650 1098 CURVE SMOOTH",
"408 1098 OFFCURVE",
"242 876 OFFCURVE",
"242 552 CURVE SMOOTH",
"242 215 OFFCURVE",
"413 -16 OFFCURVE",
"662 -16 CURVE SMOOTH"
);
},
{
closed = 1;
nodes = (
"482 278 OFFCURVE",
"418 386 OFFCURVE",
"418 544 CURVE SMOOTH",
"418 697 OFFCURVE",
"478 802 OFFCURVE",
"566 802 CURVE SMOOTH",
"657 802 OFFCURVE",
"720 697 OFFCURVE",
"720 544 CURVE SMOOTH",
"720 386 OFFCURVE",
"661 278 OFFCURVE",
"574 278 CURVE SMOOTH"
);
}
);
width = 1080;
},
{
anchors = (
{
name = bottom;
position = "{220, -420}";
},
{
name = top;
position = "{564, 1060}";
}
);
layerId = "FD1CEFBD-BAB1-4C2A-A598-30E93F9A29F6";
paths = (
{
closed = 1;
nodes = (
"300 144 LINE",
"330 144 LINE",
"274 266 LINE",
"274 824 LINE",
"322 922 LINE",
"298 922 LINE",
"298 1060 LINE",
"128 1060 LINE",
"128 -420 LINE",
"300 -420 LINE"
);
},
{
closed = 1;
nodes = (
"847 -16 OFFCURVE",
"1010 199 OFFCURVE",
"1010 532 CURVE SMOOTH",
"1010 863 OFFCURVE",
"846 1078 OFFCURVE",
"592 1078 CURVE SMOOTH",
"347 1078 OFFCURVE",
"188 863 OFFCURVE",
"188 532 CURVE SMOOTH",
"188 199 OFFCURVE",
"348 -16 OFFCURVE",
"594 -16 CURVE SMOOTH"
);
},
{
closed = 1;
nodes = (
"394 140 OFFCURVE",
"286 294 OFFCURVE",
"286 532 CURVE SMOOTH",
"286 769 OFFCURVE",
"393 922 OFFCURVE",
"558 922 CURVE SMOOTH",
"727 922 OFFCURVE",
"836 769 OFFCURVE",
"836 532 CURVE SMOOTH",
"836 294 OFFCURVE",
"728 140 OFFCURVE",
"560 140 CURVE SMOOTH"
);
}
);
width = 1080;
}
);
rightMetricsKey = o;
unicode = 0070;
},
{
color = 4;
glyphname = p.ss01;
lastChange = "2021-11-24 03:35:53 +0000";
layers = (
{
anchors = (
{
name = bottom;
position = "{178, -420}";
},
{
name = top;
position = "{524, 1048}";
}
);
layerId = "AB099EFE-E788-4EFC-8633-CF147CB782A6";
paths = (
{
closed = 1;
nodes = (
"208 -420 LINE",
"208 244 LINE",
"220 244 LINE",
"204 304 LINE",
"204 778 LINE",
"226 810 LINE",
"208 810 LINE",
"208 1048 LINE",
"148 1048 LINE",
"148 -420 LINE"
);
},
{
closed = 1;
nodes = (
"802 -16 OFFCURVE",
"986 200 OFFCURVE",
"986 524 CURVE SMOOTH",
"986 850 OFFCURVE",
"802 1064 OFFCURVE",
"570 1064 CURVE SMOOTH",
"338 1064 OFFCURVE",
"154 848 OFFCURVE",
"154 524 CURVE SMOOTH",
"154 200 OFFCURVE",
"338 -16 OFFCURVE",
"570 -16 CURVE SMOOTH"
);
},
{
closed = 1;
nodes = (
"364 40 OFFCURVE",
"206 236 OFFCURVE",
"206 524 CURVE SMOOTH",
"206 820 OFFCURVE",
"364 1008 OFFCURVE",
"568 1008 CURVE SMOOTH",
"770 1008 OFFCURVE",
"926 818 OFFCURVE",
"926 524 CURVE SMOOTH",
"926 234 OFFCURVE",
"768 40 OFFCURVE",
"568 40 CURVE SMOOTH"
);
}
);
width = 1080;
},
{
anchors = (
{
name = bottom;
position = "{238, -420}";
},
{
name = top;
position = "{540, 1080}";
}
);
layerId = "2D8F7115-C311-411E-929D-56333CF7FFB2";
paths = (
{
closed = 1;
nodes = (
"416 -424 LINE",
"416 106 LINE",
"440 106 LINE",
"398 212 LINE",
"398 866 LINE",
"440 960 LINE",
"394 960 LINE",
"394 1080 LINE",
"68 1080 LINE",
"68 -420 LINE"
);
},
{
closed = 1;
nodes = (
"894 -16 OFFCURVE",
"1064 218 OFFCURVE",
"1064 540 CURVE SMOOTH",
"1064 860 OFFCURVE",
"890 1096 OFFCURVE",
"644 1096 CURVE SMOOTH",
"416 1096 OFFCURVE",
"278 868 OFFCURVE",
"278 540 CURVE SMOOTH",
"278 226 OFFCURVE",
"426 -16 OFFCURVE",
"658 -16 CURVE SMOOTH"
);
},
{
closed = 1;
nodes = (
"474 286 OFFCURVE",
"406 392 OFFCURVE",
"406 540 CURVE SMOOTH",
"406 690 OFFCURVE",
"474 792 OFFCURVE",
"568 792 CURVE SMOOTH",
"666 792 OFFCURVE",
"734 690 OFFCURVE",
"734 540 CURVE SMOOTH",
"734 392 OFFCURVE",
"664 286 OFFCURVE",
"568 286 CURVE SMOOTH"
);
}
);
width = 1080;
},
{
anchors = (
{
name = bottom;
position = "{206, -420}";
},
{
name = top;
position = "{540, 1060}";
}
);
layerId = "FD1CEFBD-BAB1-4C2A-A598-30E93F9A29F6";
paths = (
{
closed = 1;
nodes = (
"288 -420 LINE",
"288 148 LINE",
"308 148 LINE",
"278 274 LINE",
"278 836 LINE",
"304 908 LINE",
"284 908 LINE",
"284 1060 LINE",
"114 1060 LINE",
"114 -420 LINE"
);
},
{
closed = 1;
nodes = (
"836 -16 OFFCURVE",
"1022 210 OFFCURVE",
"1022 532 CURVE SMOOTH",
"1022 854 OFFCURVE",
"834 1076 OFFCURVE",
"592 1076 CURVE SMOOTH",
"350 1076 OFFCURVE",
"188 856 OFFCURVE",
"188 532 CURVE SMOOTH",
"188 234 OFFCURVE",
"338 -16 OFFCURVE",
"592 -16 CURVE SMOOTH"
);
},
{
closed = 1;
nodes = (
"406 144 OFFCURVE",
"282 296 OFFCURVE",
"282 530 CURVE SMOOTH",
"282 760 OFFCURVE",
"402 916 OFFCURVE",
"562 916 CURVE SMOOTH",
"724 916 OFFCURVE",
"848 754 OFFCURVE",
"848 532 CURVE SMOOTH",
"848 318 OFFCURVE",
"732 144 OFFCURVE",
"564 144 CURVE SMOOTH"
);
}
);
width = 1080;
}
);
rightMetricsKey = o;
},
{
glyphname = thorn;
lastChange = "2021-11-24 03:35:53 +0000";
layers = (
{
anchors = (
{
name = bottom;
position = "{566, -4}";
},
{
name = top;
position = "{192, 1540}";
}
);
layerId = "AB099EFE-E788-4EFC-8633-CF147CB782A6";
paths = (
{
closed = 1;
nodes = (
"222 224 LINE",
"248 224 LINE",
"214 330 LINE",
"214 750 LINE",
"244 834 LINE",
"222 834 LINE",
"222 1540 LINE",
"162 1540 LINE",
"162 -420 LINE",
"222 -420 LINE"
);
},
{
closed = 1;
nodes = (
"808 -16 OFFCURVE",
"972 190 OFFCURVE",
"972 524 CURVE SMOOTH",
"972 864 OFFCURVE",
"810 1064 OFFCURVE",
"568 1064 CURVE SMOOTH",
"350 1064 OFFCURVE",
"168 898 OFFCURVE",
"168 528 CURVE SMOOTH",
"168 160 OFFCURVE",
"354 -16 OFFCURVE",
"568 -16 CURVE SMOOTH"
);
},
{
closed = 1;
nodes = (
"366 38 OFFCURVE",
"224 246 OFFCURVE",
"224 524 CURVE SMOOTH",
"224 852 OFFCURVE",
"386 1010 OFFCURVE",
"568 1010 CURVE SMOOTH",
"768 1010 OFFCURVE",
"912 828 OFFCURVE",
"912 524 CURVE SMOOTH",
"912 228 OFFCURVE",
"764 38 OFFCURVE",
"568 38 CURVE SMOOTH"
);
}
);
width = 1080;
},
{
anchors = (
{
name = bottom;
position = "{642, 0}";
},
{
name = top;
position = "{242, 1540}";
}
);
layerId = "2D8F7115-C311-411E-929D-56333CF7FFB2";
paths = (
{
closed = 1;
nodes = (
"424 96 LINE",
"476 96 LINE",
"402 212 LINE",
"402 868 LINE",
"448 998 LINE",
"424 998 LINE",
"424 1540 LINE",
"72 1540 LINE",
"72 -420 LINE",
"424 -420 LINE"
);
},
{
closed = 1;
nodes = (
"842 -16 OFFCURVE",
"1058 152 OFFCURVE",
"1058 536 CURVE SMOOTH",
"1058 914 OFFCURVE",
"846 1098 OFFCURVE",
"650 1098 CURVE SMOOTH",
"410 1098 OFFCURVE",
"244 848 OFFCURVE",
"244 552 CURVE SMOOTH",
"244 246 OFFCURVE",
"426 -16 OFFCURVE",
"662 -16 CURVE SMOOTH"
);
},
{
closed = 1;
nodes = (
"484 278 OFFCURVE",
"418 380 OFFCURVE",
"418 544 CURVE SMOOTH",
"418 706 OFFCURVE",
"476 802 OFFCURVE",
"566 802 CURVE SMOOTH",
"656 802 OFFCURVE",
"720 708 OFFCURVE",
"720 544 CURVE SMOOTH",
"720 382 OFFCURVE",
"662 278 OFFCURVE",
"574 278 CURVE SMOOTH"
);
}
);
width = 1080;
},
{
anchors = (
{
name = bottom;
position = "{600, 0}";
},
{
name = top;
position = "{214, 1516}";
}
);
layerId = "FD1CEFBD-BAB1-4C2A-A598-30E93F9A29F6";
paths = (
{
closed = 1;
nodes = (
"300 144 LINE",
"328 144 LINE",
"274 266 LINE",
"274 782 LINE",
"322 922 LINE",
"300 922 LINE",
"300 1540 LINE",
"128 1540 LINE",
"128 -420 LINE",
"300 -420 LINE"
);
},
{
closed = 1;
nodes = (
"814 -16 OFFCURVE",
"1010 200 OFFCURVE",
"1010 532 CURVE SMOOTH",
"1010 868 OFFCURVE",
"814 1078 OFFCURVE",
"592 1078 CURVE SMOOTH",
"358 1078 OFFCURVE",
"186 856 OFFCURVE",
"186 532 CURVE SMOOTH",
"186 214 OFFCURVE",
"360 -16 OFFCURVE",
"592 -16 CURVE SMOOTH"
);
},
{
closed = 1;
nodes = (
"404 140 OFFCURVE",
"286 308 OFFCURVE",
"286 532 CURVE SMOOTH",
"286 774 OFFCURVE",
"410 922 OFFCURVE",
"558 922 CURVE SMOOTH",
"720 922 OFFCURVE",
"836 762 OFFCURVE",
"836 532 CURVE SMOOTH",
"836 308 OFFCURVE",
"720 140 OFFCURVE",
"560 140 CURVE SMOOTH"
);
}
);
width = 1080;
}
);
leftMetricsKey = h;
rightMetricsKey = p;
unicode = 00FE;
},
{
color = 4;
glyphname = thorn.ss01;
lastChange = "2021-11-24 03:35:53 +0000";
layers = (
{
anchors = (
{
name = bottom;
position = "{570, 0}";
},
{
name = top;
position = "{178, 1540}";
}
);
layerId = "AB099EFE-E788-4EFC-8633-CF147CB782A6";
paths = (
{
closed = 1;
nodes = (
"208 244 LINE",
"220 244 LINE",
"204 330 LINE",
"204 770 LINE",
"220 810 LINE",
"208 810 LINE",
"208 1540 LINE",
"148 1540 LINE",
"148 -420 LINE",
"208 -420 LINE"
);
},
{
closed = 1;
nodes = (
"802 -16 OFFCURVE",
"986 200 OFFCURVE",
"986 524 CURVE SMOOTH",
"986 850 OFFCURVE",
"802 1064 OFFCURVE",
"570 1064 CURVE SMOOTH",
"338 1064 OFFCURVE",
"154 850 OFFCURVE",
"154 524 CURVE SMOOTH",
"154 200 OFFCURVE",
"338 -16 OFFCURVE",
"572 -16 CURVE SMOOTH"
);
},
{
closed = 1;
nodes = (
"364 40 OFFCURVE",
"206 236 OFFCURVE",
"206 524 CURVE SMOOTH",
"206 820 OFFCURVE",
"364 1008 OFFCURVE",
"568 1008 CURVE SMOOTH",
"770 1008 OFFCURVE",
"926 818 OFFCURVE",
"926 524 CURVE SMOOTH",
"926 234 OFFCURVE",
"768 40 OFFCURVE",
"568 40 CURVE SMOOTH"
);
}
);
width = 1080;
},
{
anchors = (
{
name = bottom;
position = "{666, 0}";
},
{
name = top;
position = "{228, 1540}";
}
);
layerId = "2D8F7115-C311-411E-929D-56333CF7FFB2";
paths = (
{
closed = 1;
nodes = (
"414 110 LINE",
"466 110 LINE",
"400 212 LINE",
"400 840 LINE",
"436 958 LINE",
"392 958 LINE",
"392 1540 LINE",
"64 1540 LINE",
"64 -420 LINE",
"414 -420 LINE"
);
},
{
closed = 1;
nodes = (
"892 -16 OFFCURVE",
"1062 218 OFFCURVE",
"1062 540 CURVE SMOOTH",
"1062 860 OFFCURVE",
"888 1096 OFFCURVE",
"640 1096 CURVE SMOOTH",
"412 1096 OFFCURVE",
"274 868 OFFCURVE",
"274 540 CURVE SMOOTH",
"274 230 OFFCURVE",
"422 -16 OFFCURVE",
"654 -16 CURVE SMOOTH"
);
},
{
closed = 1;
nodes = (
"470 286 OFFCURVE",
"402 392 OFFCURVE",
"402 540 CURVE SMOOTH",
"402 690 OFFCURVE",
"470 792 OFFCURVE",
"568 792 CURVE SMOOTH",
"664 792 OFFCURVE",
"730 690 OFFCURVE",
"730 540 CURVE SMOOTH",
"730 394 OFFCURVE",
"664 286 OFFCURVE",
"566 286 CURVE SMOOTH"
);
}
);
width = 1080;
},
{
anchors = (
{
name = bottom;
position = "{602, 0}";
},
{
name = top;
position = "{198, 1516}";
}
);
layerId = "FD1CEFBD-BAB1-4C2A-A598-30E93F9A29F6";
paths = (
{
closed = 1;
nodes = (
"286 144 LINE",
"314 144 LINE",
"268 226 LINE",
"268 824 LINE",
"308 914 LINE",
"284 914 LINE",
"284 1540 LINE",
"114 1540 LINE",
"114 -420 LINE",
"286 -420 LINE"
);
},
{
closed = 1;
nodes = (
"834 -16 OFFCURVE",
"1020 210 OFFCURVE",
"1020 532 CURVE SMOOTH",
"1020 854 OFFCURVE",
"832 1076 OFFCURVE",
"588 1076 CURVE SMOOTH",
"346 1076 OFFCURVE",
"186 854 OFFCURVE",
"186 532 CURVE SMOOTH",
"186 236 OFFCURVE",
"334 -16 OFFCURVE",
"592 -16 CURVE SMOOTH"
);
},
{
closed = 1;
nodes = (
"404 144 OFFCURVE",
"278 294 OFFCURVE",
"278 530 CURVE SMOOTH",
"278 758 OFFCURVE",
"398 916 OFFCURVE",
"560 916 CURVE SMOOTH",
"724 916 OFFCURVE",
"846 752 OFFCURVE",
"846 532 CURVE SMOOTH",
"846 318 OFFCURVE",
"730 144 OFFCURVE",
"562 144 CURVE SMOOTH"
);
}
);
width = 1080;
}
);
leftMetricsKey = h;
rightMetricsKey = p;
},
{
glyphname = q;
lastChange = "2021-11-24 07:18:24 +0000";
layers = (
{
anchors = (
{
name = bottom;
position = "{890, -420}";
},
{
name = top;
position = "{512, 1048}";
}
);
layerId = "AB099EFE-E788-4EFC-8633-CF147CB782A6";
paths = (
{
closed = 1;
nodes = (
"1000 -382 LINE",
"950 -354 OFFCURVE",
"918 -278 OFFCURVE",
"918 -190 CURVE SMOOTH",
"918 1048 LINE",
"858 1048 LINE",
"858 834 LINE",
"836 834 LINE",
"864 782 LINE",
"864 296 LINE",
"844 224 LINE",
"858 224 LINE",
"858 -196 LINE SMOOTH",
"858 -300 OFFCURVE",
"904 -395 OFFCURVE",
"976 -438 CURVE"
);
},
{
closed = 1;
nodes = (
"758 -16 OFFCURVE",
"914 198 OFFCURVE",
"914 528 CURVE SMOOTH",
"914 853 OFFCURVE",
"758 1064 OFFCURVE",
"516 1064 CURVE SMOOTH",
"268 1064 OFFCURVE",
"108 852 OFFCURVE",
"108 524 CURVE SMOOTH",
"108 196 OFFCURVE",
"268 -16 OFFCURVE",
"516 -16 CURVE SMOOTH"
);
},
{
closed = 1;
nodes = (
"303 38 OFFCURVE",
"168 229 OFFCURVE",
"168 524 CURVE SMOOTH",
"168 819 OFFCURVE",
"303 1010 OFFCURVE",
"512 1010 CURVE SMOOTH",
"723 1010 OFFCURVE",
"860 819 OFFCURVE",
"860 524 CURVE SMOOTH",
"860 229 OFFCURVE",
"723 38 OFFCURVE",
"512 38 CURVE SMOOTH"
);
}
);
width = 1080;
},
{
anchors = (
{
name = bottom;
position = "{830, -420}";
},
{
name = top;
position = "{448, 1080}";
}
);
layerId = "2D8F7115-C311-411E-929D-56333CF7FFB2";
paths = (
{
closed = 1;
nodes = (
"1082 -148 LINE",
"1038 -131 OFFCURVE",
"1008 -82 OFFCURVE",
"1008 -28 CURVE SMOOTH",
"1008 1080 LINE",
"678 1080 LINE",
"678 984 LINE",
"648 984 LINE",
"674 856 LINE",
"674 172 LINE",
"608 92 LINE",
"656 92 LINE",
"656 -62 LINE SMOOTH",
"656 -214 OFFCURVE",
"780 -367 OFFCURVE",
"960 -438 CURVE"
);
},
{
closed = 1;
nodes = (
"669 -16 OFFCURVE",
"842 215 OFFCURVE",
"842 552 CURVE SMOOTH",
"842 876 OFFCURVE",
"675 1098 OFFCURVE",
"432 1098 CURVE SMOOTH",
"188 1098 OFFCURVE",
"20 869 OFFCURVE",
"20 536 CURVE SMOOTH",
"20 209 OFFCURVE",
"182 -16 OFFCURVE",
"418 -16 CURVE SMOOTH"
);
},
{
closed = 1;
nodes = (
"419 278 OFFCURVE",
"358 386 OFFCURVE",
"358 544 CURVE SMOOTH",
"358 697 OFFCURVE",
"422 802 OFFCURVE",
"516 802 CURVE SMOOTH",
"606 802 OFFCURVE",
"668 697 OFFCURVE",
"668 544 CURVE SMOOTH",
"668 386 OFFCURVE",
"603 278 OFFCURVE",
"508 278 CURVE SMOOTH"
);
}
);
width = 1080;
},
{
anchors = (
{
name = bottom;
position = "{880, -420}";
},
{
name = top;
position = "{492, 1060}";
}
);
layerId = "FD1CEFBD-BAB1-4C2A-A598-30E93F9A29F6";
paths = (
{
closed = 1;
nodes = (
"1030 -286 LINE",
"985 -263 OFFCURVE",
"956 -189 OFFCURVE",
"956 -98 CURVE SMOOTH",
"956 1060 LINE",
"788 1060 LINE",
"788 918 LINE",
"754 918 LINE",
"802 816 LINE",
"802 234 LINE",
"758 144 LINE",
"784 144 LINE",
"784 -152 LINE SMOOTH",
"784 -276 OFFCURVE",
"856 -388 OFFCURVE",
"968 -438 CURVE"
);
},
{
closed = 1;
nodes = (
"733 -16 OFFCURVE",
"892 199 OFFCURVE",
"892 532 CURVE SMOOTH",
"892 863 OFFCURVE",
"733 1078 OFFCURVE",
"488 1078 CURVE SMOOTH",
"233 1078 OFFCURVE",
"68 863 OFFCURVE",
"68 532 CURVE SMOOTH",
"68 199 OFFCURVE",
"233 -16 OFFCURVE",
"488 -16 CURVE SMOOTH"
);
},
{
closed = 1;
nodes = (
"350 140 OFFCURVE",
"242 294 OFFCURVE",
"242 532 CURVE SMOOTH",
"242 769 OFFCURVE",
"350 922 OFFCURVE",
"518 922 CURVE SMOOTH",
"686 922 OFFCURVE",
"794 769 OFFCURVE",
"794 532 CURVE SMOOTH",
"794 294 OFFCURVE",
"686 140 OFFCURVE",
"518 140 CURVE SMOOTH"
);
}
);
width = 1080;
}
);
leftMetricsKey = o;
unicode = 0071;
},
{
color = 4;
glyphname = q.ss01;
lastChange = "2021-11-24 03:35:53 +0000";
layers = (
{
anchors = (
{
name = bottom;
position = "{902, -420}";
},
{
name = top;
position = "{556, 1048}";
}
);
layerId = "AB099EFE-E788-4EFC-8633-CF147CB782A6";
paths = (
{
closed = 1;
nodes = (
"932 1048 LINE",
"872 1048 LINE",
"872 810 LINE",
"854 810 LINE",
"876 778 LINE",
"876 304 LINE",
"860 244 LINE",
"872 244 LINE",
"872 -420 LINE",
"932 -420 LINE"
);
},
{
closed = 1;
nodes = (
"742 -16 OFFCURVE",
"926 200 OFFCURVE",
"926 524 CURVE SMOOTH",
"926 848 OFFCURVE",
"742 1064 OFFCURVE",
"510 1064 CURVE SMOOTH",
"278 1064 OFFCURVE",
"94 850 OFFCURVE",
"94 524 CURVE SMOOTH",
"94 200 OFFCURVE",
"278 -16 OFFCURVE",
"510 -16 CURVE SMOOTH"
);
},
{
closed = 1;
nodes = (
"312 40 OFFCURVE",
"154 234 OFFCURVE",
"154 524 CURVE SMOOTH",
"154 818 OFFCURVE",
"310 1008 OFFCURVE",
"512 1008 CURVE SMOOTH",
"716 1008 OFFCURVE",
"874 820 OFFCURVE",
"874 524 CURVE SMOOTH",
"874 236 OFFCURVE",
"716 40 OFFCURVE",
"512 40 CURVE SMOOTH"
);
}
);
width = 1080;
},
{
anchors = (
{
name = bottom;
position = "{842, -420}";
},
{
name = top;
position = "{540, 1080}";
}
);
layerId = "2D8F7115-C311-411E-929D-56333CF7FFB2";
paths = (
{
closed = 1;
nodes = (
"1012 1080 LINE",
"686 1080 LINE",
"686 960 LINE",
"640 960 LINE",
"682 866 LINE",
"682 212 LINE",
"640 106 LINE",
"664 106 LINE",
"664 -424 LINE",
"1012 -420 LINE"
);
},
{
closed = 1;
nodes = (
"654 -16 OFFCURVE",
"802 226 OFFCURVE",
"802 540 CURVE SMOOTH",
"802 868 OFFCURVE",
"664 1096 OFFCURVE",
"436 1096 CURVE SMOOTH",
"190 1096 OFFCURVE",
"16 860 OFFCURVE",
"16 540 CURVE SMOOTH",
"16 218 OFFCURVE",
"186 -16 OFFCURVE",
"422 -16 CURVE SMOOTH"
);
},
{
closed = 1;
nodes = (
"416 286 OFFCURVE",
"346 392 OFFCURVE",
"346 540 CURVE SMOOTH",
"346 690 OFFCURVE",
"414 792 OFFCURVE",
"512 792 CURVE SMOOTH",
"606 792 OFFCURVE",
"674 690 OFFCURVE",
"674 540 CURVE SMOOTH",
"674 392 OFFCURVE",
"606 286 OFFCURVE",
"512 286 CURVE SMOOTH"
);
}
);
width = 1080;
},
{
anchors = (
{
name = bottom;
position = "{874, -420}";
},
{
name = top;
position = "{540, 1060}";
}
);
layerId = "FD1CEFBD-BAB1-4C2A-A598-30E93F9A29F6";
paths = (
{
closed = 1;
nodes = (
"966 1060 LINE",
"796 1060 LINE",
"796 908 LINE",
"776 908 LINE",
"802 836 LINE",
"802 274 LINE",
"772 148 LINE",
"792 148 LINE",
"792 -420 LINE",
"966 -420 LINE"
);
},
{
closed = 1;
nodes = (
"742 -16 OFFCURVE",
"892 234 OFFCURVE",
"892 532 CURVE SMOOTH",
"892 856 OFFCURVE",
"730 1076 OFFCURVE",
"488 1076 CURVE SMOOTH",
"246 1076 OFFCURVE",
"58 854 OFFCURVE",
"58 532 CURVE SMOOTH",
"58 210 OFFCURVE",
"244 -16 OFFCURVE",
"488 -16 CURVE SMOOTH"
);
},
{
closed = 1;
nodes = (
"348 144 OFFCURVE",
"232 318 OFFCURVE",
"232 532 CURVE SMOOTH",
"232 754 OFFCURVE",
"356 916 OFFCURVE",
"518 916 CURVE SMOOTH",
"678 916 OFFCURVE",
"798 760 OFFCURVE",
"798 530 CURVE SMOOTH",
"798 296 OFFCURVE",
"674 144 OFFCURVE",
"516 144 CURVE SMOOTH"
);
}
);
width = 1080;
}
);
leftMetricsKey = o;
},
{
glyphname = r;
lastChange = "2021-11-24 07:36:28 +0000";
layers = (
{
anchors = (
{
name = bottom;
position = "{270, 0}";
},
{
name = top;
position = "{544, 1048}";
}
);
guideLines = (
{
angle = 67.5;
position = "{-22, -200}";
}
);
layerId = "AB099EFE-E788-4EFC-8633-CF147CB782A6";
paths = (
{
closed = 1;
nodes = (
"300 0 LINE",
"300 550 LINE SMOOTH",
"300 774 OFFCURVE",
"452 1008 OFFCURVE",
"664 1008 CURVE SMOOTH",
"844 1008 OFFCURVE",
"912 836 OFFCURVE",
"912 624 CURVE",
"972 624 LINE",
"972 910 OFFCURVE",
"864 1064 OFFCURVE",
"676 1064 CURVE SMOOTH",
"484 1064 OFFCURVE",
"340 926 OFFCURVE",
"286 746 CURVE",
"336 796 LINE",
"302 796 LINE",
"302 1048 LINE",
"240 1048 LINE",
"240 0 LINE"
);
}
);
width = 1080;
},
{
anchors = (
{
name = bottom;
position = "{250, 0}";
},
{
name = top;
position = "{356, 1080}";
}
);
guideLines = (
{
angle = 67.5;
position = "{88, -200}";
}
);
layerId = "2D8F7115-C311-411E-929D-56333CF7FFB2";
paths = (
{
closed = 1;
nodes = (
"428 -2 LINE",
"428 522 LINE SMOOTH",
"428 696 OFFCURVE",
"490 790 OFFCURVE",
"594 790 CURVE SMOOTH",
"700 790 OFFCURVE",
"732 694 OFFCURVE",
"728 542 CURVE",
"1036 540 LINE",
"1030 864 OFFCURVE",
"1034 1094 OFFCURVE",
"758 1094 CURVE SMOOTH",
"544 1094 OFFCURVE",
"416 916 OFFCURVE",
"372 736 CURVE",
"458 890 LINE",
"426 890 LINE",
"426 1078 LINE",
"72 1078 LINE",
"72 -2 LINE"
);
}
);
width = 1080;
},
{
anchors = (
{
name = bottom;
position = "{258, 0}";
},
{
name = top;
position = "{472, 1060}";
}
);
layerId = "FD1CEFBD-BAB1-4C2A-A598-30E93F9A29F6";
paths = (
{
closed = 1;
nodes = (
"344 -2 LINE",
"344 560 LINE SMOOTH",
"344 724 OFFCURVE",
"480 910 OFFCURVE",
"646 910 CURVE SMOOTH",
"752 910 OFFCURVE",
"798 844 OFFCURVE",
"794 600 CURVE",
"964 600 LINE",
"964 932 OFFCURVE",
"886 1076 OFFCURVE",
"690 1076 CURVE SMOOTH",
"510 1076 OFFCURVE",
"360 956 OFFCURVE",
"318 778 CURVE",
"378 870 LINE",
"346 870 LINE",
"346 1060 LINE",
"172 1060 LINE",
"172 -2 LINE"
);
}
);
width = 1080;
}
);
unicode = 0072;
},
{
glyphname = s;
lastChange = "2021-11-24 03:35:53 +0000";
layers = (
{
anchors = (
{
name = bottom;
position = "{534, 0}";
},
{
name = cedilla;
position = "{538, 0}";
},
{
name = top;
position = "{510, 1048}";
}
);
background = {
paths = (
{
closed = 1;
nodes = (
"830 -16 OFFCURVE",
"1010 96 OFFCURVE",
"1010 272 CURVE SMOOTH",
"1010 478 OFFCURVE",
"764 536 OFFCURVE",
"586 578 CURVE SMOOTH",
"466 606 OFFCURVE",
"276 662 OFFCURVE",
"270 802 CURVE SMOOTH",
"264 916 OFFCURVE",
"376 1008 OFFCURVE",
"568 1008 CURVE SMOOTH",
"722 1008 OFFCURVE",
"854 944 OFFCURVE",
"906 862 CURVE",
"962 884 LINE",
"898 988 OFFCURVE",
"752 1064 OFFCURVE",
"576 1064 CURVE SMOOTH",
"364 1064 OFFCURVE",
"210 960 OFFCURVE",
"210 814 CURVE SMOOTH",
"210 638 OFFCURVE",
"448 554 OFFCURVE",
"592 522 CURVE SMOOTH",
"706 496 OFFCURVE",
"950 442 OFFCURVE",
"950 272 CURVE SMOOTH",
"950 138 OFFCURVE",
"802 40 OFFCURVE",
"608 40 CURVE SMOOTH",
"428 40 OFFCURVE",
"290 130 OFFCURVE",
"232 232 CURVE",
"170 208 LINE",
"232 92 OFFCURVE",
"392 -16 OFFCURVE",
"608 -16 CURVE SMOOTH"
);
}
);
};
layerId = "AB099EFE-E788-4EFC-8633-CF147CB782A6";
paths = (
{
closed = 1;
nodes = (
"796 -16 OFFCURVE",
"952 96 OFFCURVE",
"952 272 CURVE SMOOTH",
"952 486 OFFCURVE",
"718 536 OFFCURVE",
"536 586 CURVE SMOOTH",
"398 624 OFFCURVE",
"242 676 OFFCURVE",
"238 792 CURVE SMOOTH",
"234 912 OFFCURVE",
"356 1008 OFFCURVE",
"528 1008 CURVE SMOOTH",
"684 1008 OFFCURVE",
"818 922 OFFCURVE",
"878 784 CURVE",
"928 816 LINE",
"860 972 OFFCURVE",
"708 1064 OFFCURVE",
"530 1064 CURVE SMOOTH",
"348 1064 OFFCURVE",
"176 966 OFFCURVE",
"176 806 CURVE SMOOTH",
"176 648 OFFCURVE",
"332 578 OFFCURVE",
"530 526 CURVE SMOOTH",
"690 484 OFFCURVE",
"892 442 OFFCURVE",
"892 268 CURVE SMOOTH",
"892 130 OFFCURVE",
"762 40 OFFCURVE",
"584 40 CURVE SMOOTH",
"392 40 OFFCURVE",
"244 142 OFFCURVE",
"184 294 CURVE",
"128 272 LINE",
"196 98 OFFCURVE",
"364 -16 OFFCURVE",
"582 -16 CURVE SMOOTH"
);
}
);
width = 1080;
},
{
anchors = (
{
name = bottom;
position = "{548, 0}";
},
{
name = cedilla;
position = "{570, 0}";
},
{
name = top;
position = "{538, 1080}";
}
);
layerId = "2D8F7115-C311-411E-929D-56333CF7FFB2";
paths = (
{
closed = 1;
nodes = (
"810 -16 OFFCURVE",
"1020 126 OFFCURVE",
"1020 328 CURVE SMOOTH",
"1020 552 OFFCURVE",
"772 624 OFFCURVE",
"684 646 CURVE SMOOTH",
"606 666 OFFCURVE",
"450 688 OFFCURVE",
"450 756 CURVE SMOOTH",
"450 796 OFFCURVE",
"498 828 OFFCURVE",
"550 828 CURVE SMOOTH",
"632 828 OFFCURVE",
"694 766 OFFCURVE",
"702 710 CURVE",
"998 828 LINE",
"942 992 OFFCURVE",
"746 1096 OFFCURVE",
"536 1096 CURVE SMOOTH",
"290 1096 OFFCURVE",
"100 958 OFFCURVE",
"100 762 CURVE SMOOTH",
"100 588 OFFCURVE",
"248 482 OFFCURVE",
"420 436 CURVE SMOOTH",
"522 408 OFFCURVE",
"674 384 OFFCURVE",
"674 324 CURVE SMOOTH",
"674 288 OFFCURVE",
"624 254 OFFCURVE",
"564 254 CURVE SMOOTH",
"476 254 OFFCURVE",
"410 318 OFFCURVE",
"376 376 CURVE",
"64 258 LINE",
"140 78 OFFCURVE",
"340 -16 OFFCURVE",
"546 -16 CURVE SMOOTH"
);
}
);
width = 1080;
},
{
anchors = (
{
name = bottom;
position = "{536, 0}";
},
{
name = cedilla;
position = "{546, 0}";
},
{
name = top;
position = "{518, 1060}";
}
);
layerId = "FD1CEFBD-BAB1-4C2A-A598-30E93F9A29F6";
paths = (
{
closed = 1;
nodes = (
"788 -16 OFFCURVE",
"960 104 OFFCURVE",
"960 286 CURVE SMOOTH",
"960 508 OFFCURVE",
"714 580 OFFCURVE",
"588 616 CURVE SMOOTH",
"474 648 OFFCURVE",
"326 680 OFFCURVE",
"326 784 CURVE SMOOTH",
"326 868 OFFCURVE",
"418 920 OFFCURVE",
"518 920 CURVE SMOOTH",
"642 920 OFFCURVE",
"740 848 OFFCURVE",
"794 742 CURVE",
"944 822 LINE",
"872 982 OFFCURVE",
"700 1076 OFFCURVE",
"520 1076 CURVE SMOOTH",
"310 1076 OFFCURVE",
"154 958 OFFCURVE",
"154 784 CURVE SMOOTH",
"154 624 OFFCURVE",
"284 542 OFFCURVE",
"482 486 CURVE SMOOTH",
"610 450 OFFCURVE",
"788 416 OFFCURVE",
"788 294 CURVE SMOOTH",
"788 200 OFFCURVE",
"688 140 OFFCURVE",
"576 140 CURVE SMOOTH",
"438 140 OFFCURVE",
"324 224 OFFCURVE",
"278 354 CURVE",
"120 288 LINE",
"186 104 OFFCURVE",
"366 -16 OFFCURVE",
"574 -16 CURVE SMOOTH"
);
}
);
width = 1080;
}
);
unicode = 0073;
userData = {
com.typemytype.robofont.layerData = {
background = {
anchors = (
);
components = (
);
contours = (
{
points = (
{
segmentType = curve;
smooth = 1;
x = 213;
y = -12;
},
{
smooth = 0;
x = 318;
y = -12;
},
{
smooth = 0;
x = 376;
y = 50;
},
{
segmentType = curve;
smooth = 1;
x = 376;
y = 120;
},
{
smooth = 0;
x = 376;
y = 214;
},
{
smooth = 0;
x = 288;
y = 237;
},
{
segmentType = curve;
smooth = 1;
x = 208;
y = 266;
},
{
smooth = 0;
x = 147;
y = 288;
},
{
smooth = 0;
x = 85;
y = 310;
},
{
segmentType = curve;
smooth = 1;
x = 85;
y = 368;
},
{
smooth = 0;
x = 85;
y = 415;
},
{
smooth = 0;
x = 124;
y = 462;
},
{
segmentType = curve;
smooth = 1;
x = 208;
y = 462;
},
{
smooth = 0;
x = 253;
y = 462;
},
{
smooth = 0;
x = 284;
y = 448;
},
{
segmentType = curve;
smooth = 1;
x = 314;
y = 429;
},
{
smooth = 0;
x = 325;
y = 422;
},
{
smooth = 0;
x = 336;
y = 423;
},
{
segmentType = curve;
smooth = 1;
x = 343;
y = 434;
},
{
segmentType = line;
smooth = 1;
x = 346;
y = 439;
},
{
smooth = 0;
x = 347;
y = 441;
},
{
smooth = 0;
x = 347;
y = 443;
},
{
segmentType = curve;
smooth = 1;
x = 345;
y = 444;
},
{
smooth = 0;
x = 311;
y = 468;
},
{
smooth = 0;
x = 257;
y = 490;
},
{
segmentType = curve;
smooth = 1;
x = 211;
y = 490;
},
{
smooth = 0;
x = 108;
y = 490;
},
{
smooth = 0;
x = 54;
y = 432;
},
{
segmentType = curve;
smooth = 1;
x = 54;
y = 366;
},
{
smooth = 0;
x = 54;
y = 284;
},
{
smooth = 0;
x = 141;
y = 256;
},
{
segmentType = curve;
smooth = 1;
x = 218;
y = 230;
},
{
smooth = 0;
x = 277;
y = 210;
},
{
smooth = 0;
x = 344;
y = 182;
},
{
segmentType = curve;
smooth = 1;
x = 344;
y = 118;
},
{
smooth = 0;
x = 344;
y = 64;
},
{
smooth = 0;
x = 300;
y = 16;
},
{
segmentType = curve;
smooth = 1;
x = 215;
y = 16;
},
{
smooth = 0;
x = 148;
y = 16;
},
{
smooth = 0;
x = 105;
y = 37;
},
{
segmentType = curve;
smooth = 1;
x = 66;
y = 65;
},
{
smooth = 0;
x = 55;
y = 73;
},
{
smooth = 0;
x = 45;
y = 74;
},
{
segmentType = curve;
smooth = 1;
x = 37;
y = 63;
},
{
segmentType = line;
smooth = 1;
x = 33;
y = 57;
},
{
smooth = 0;
x = 32;
y = 55;
},
{
smooth = 0;
x = 32;
y = 53;
},
{
segmentType = curve;
smooth = 1;
x = 34;
y = 51;
},
{
smooth = 0;
x = 73;
y = 12;
},
{
smooth = 0;
x = 139;
y = -12;
}
);
}
);
lib = {
};
name = s;
unicodes = (
);
width = 439;
};
};
};
},
{
glyphname = germandbls;
lastChange = "2021-11-24 03:35:53 +0000";
layers = (
{
layerId = "AB099EFE-E788-4EFC-8633-CF147CB782A6";
paths = (
{
closed = 1;
nodes = (
"788 -16 OFFCURVE",
"946 196 OFFCURVE",
"946 418 CURVE SMOOTH",
"946 670 OFFCURVE",
"762 864 OFFCURVE",
"514 852 CURVE",
"514 824 LINE",
"704 812 OFFCURVE",
"846 974 OFFCURVE",
"846 1188 CURVE SMOOTH",
"846 1410 OFFCURVE",
"700 1556 OFFCURVE",
"506 1556 CURVE SMOOTH",
"310 1556 OFFCURVE",
"174 1398 OFFCURVE",
"174 1178 CURVE SMOOTH",
"174 0 LINE",
"234 0 LINE",
"234 1190 LINE SMOOTH",
"234 1366 OFFCURVE",
"358 1500 OFFCURVE",
"512 1500 CURVE SMOOTH",
"670 1500 OFFCURVE",
"786 1362 OFFCURVE",
"786 1184 CURVE SMOOTH",
"786 1004 OFFCURVE",
"664 870 OFFCURVE",
"500 870 CURVE SMOOTH",
"438 870 LINE",
"438 814 LINE",
"466 814 LINE SMOOTH",
"704 814 OFFCURVE",
"886 654 OFFCURVE",
"886 418 CURVE SMOOTH",
"886 220 OFFCURVE",
"750 40 OFFCURVE",
"548 40 CURVE SMOOTH",
"492 40 OFFCURVE",
"438 52 OFFCURVE",
"388 68 CURVE",
"388 8 LINE",
"434 -8 OFFCURVE",
"508 -16 OFFCURVE",
"554 -16 CURVE SMOOTH"
);
}
);
width = 1080;
},
{
layerId = "2D8F7115-C311-411E-929D-56333CF7FFB2";
paths = (
{
closed = 1;
nodes = (
"896 -16 OFFCURVE",
"1064 144 OFFCURVE",
"1064 402 CURVE SMOOTH",
"1064 666 OFFCURVE",
"896 804 OFFCURVE",
"668 802 CURVE",
"668 746 LINE",
"784 746 OFFCURVE",
"958 882 OFFCURVE",
"958 1126 CURVE SMOOTH",
"958 1356 OFFCURVE",
"804 1556 OFFCURVE",
"522 1556 CURVE SMOOTH",
"254 1556 OFFCURVE",
"58 1372 OFFCURVE",
"58 1056 CURVE SMOOTH",
"58 0 LINE",
"404 0 LINE",
"404 1040 LINE SMOOTH",
"404 1170 OFFCURVE",
"466 1262 OFFCURVE",
"542 1262 CURVE SMOOTH",
"602 1262 OFFCURVE",
"660 1196 OFFCURVE",
"660 1090 CURVE SMOOTH",
"660 996 OFFCURVE",
"610 926 OFFCURVE",
"540 926 CURVE SMOOTH",
"496 926 LINE",
"496 610 LINE",
"590 610 LINE SMOOTH",
"670 610 OFFCURVE",
"724 544 OFFCURVE",
"724 434 CURVE SMOOTH",
"724 340 OFFCURVE",
"684 278 OFFCURVE",
"622 278 CURVE SMOOTH",
"598 278 OFFCURVE",
"536 284 OFFCURVE",
"500 294 CURVE",
"500 -12 LINE",
"546 -16 OFFCURVE",
"610 -16 OFFCURVE",
"628 -16 CURVE SMOOTH"
);
}
);
width = 1080;
},
{
layerId = "FD1CEFBD-BAB1-4C2A-A598-30E93F9A29F6";
paths = (
{
closed = 1;
nodes = (
"808 -16 OFFCURVE",
"984 176 OFFCURVE",
"984 422 CURVE SMOOTH",
"984 674 OFFCURVE",
"798 848 OFFCURVE",
"582 836 CURVE",
"582 786 LINE",
"746 778 OFFCURVE",
"888 948 OFFCURVE",
"888 1168 CURVE SMOOTH",
"888 1398 OFFCURVE",
"738 1556 OFFCURVE",
"506 1556 CURVE SMOOTH",
"278 1556 OFFCURVE",
"126 1390 OFFCURVE",
"126 1114 CURVE SMOOTH",
"126 0 LINE",
"298 0 LINE",
"298 1098 LINE SMOOTH",
"298 1262 OFFCURVE",
"374 1396 OFFCURVE",
"514 1396 CURVE SMOOTH",
"632 1396 OFFCURVE",
"722 1304 OFFCURVE",
"722 1150 CURVE SMOOTH",
"722 996 OFFCURVE",
"626 886 OFFCURVE",
"514 886 CURVE SMOOTH",
"460 886 LINE",
"460 730 LINE",
"510 730 LINE SMOOTH",
"708 730 OFFCURVE",
"808 588 OFFCURVE",
"810 426 CURVE SMOOTH",
"814 250 OFFCURVE",
"710 144 OFFCURVE",
"546 144 CURVE SMOOTH",
"518 144 OFFCURVE",
"464 148 OFFCURVE",
"426 156 CURVE",
"426 -4 LINE",
"466 -12 OFFCURVE",
"516 -16 OFFCURVE",
"550 -16 CURVE SMOOTH"
);
}
);
width = 1080;
}
);
leftMetricsKey = h;
rightMetricsKey = B;
unicode = 00DF;
},
{
glyphname = t;
lastChange = "2021-11-24 06:38:32 +0000";
layers = (
{
anchors = (
{
name = bottom;
position = "{672, 0}";
},
{
name = cedilla;
position = "{704, 0}";
},
{
name = center;
position = "{414, 524}";
},
{
name = top;
position = "{416, 1414}";
},
{
name = topright;
position = "{488, 1582}";
}
);
guideLines = (
{
angle = 112.5;
position = "{274, -12}";
}
);
layerId = "AB099EFE-E788-4EFC-8633-CF147CB782A6";
paths = (
{
closed = 1;
nodes = (
"784 -12 OFFCURVE",
"860 -8 OFFCURVE",
"982 68 CURVE",
"956 120 LINE",
"872 68 OFFCURVE",
"802 44 OFFCURVE",
"710 44 CURVE SMOOTH",
"526 44 OFFCURVE",
"442 156 OFFCURVE",
"442 314 CURVE SMOOTH",
"442 1414 LINE",
"384 1414 LINE",
"384 326 LINE SMOOTH",
"384 118 OFFCURVE",
"492 -12 OFFCURVE",
"724 -12 CURVE SMOOTH"
);
},
{
closed = 1;
nodes = (
"908 992 LINE",
"908 1048 LINE",
"92 1048 LINE",
"92 992 LINE"
);
}
);
width = 1080;
},
{
anchors = (
{
name = bottom;
position = "{642, 0}";
},
{
name = cedilla;
position = "{668, 0}";
},
{
name = center;
position = "{448, 540}";
},
{
name = top;
position = "{444, 1380}";
},
{
name = topright;
position = "{666, 1732}";
}
);
guideLines = (
{
angle = 149.6568;
position = "{382, -12}";
}
);
layerId = "2D8F7115-C311-411E-929D-56333CF7FFB2";
paths = (
{
closed = 1;
nodes = (
"820 -16 OFFCURVE",
"934 18 OFFCURVE",
"1020 72 CURVE",
"890 352 LINE",
"858 314 OFFCURVE",
"802 286 OFFCURVE",
"758 286 CURVE SMOOTH",
"712 286 OFFCURVE",
"612 322 OFFCURVE",
"612 430 CURVE SMOOTH",
"612 1380 LINE",
"256 1380 LINE",
"256 430 LINE SMOOTH",
"256 160 OFFCURVE",
"412 -16 OFFCURVE",
"694 -16 CURVE SMOOTH"
);
},
{
closed = 1;
nodes = (
"966 780 LINE",
"966 1080 LINE",
"50 1080 LINE",
"50 780 LINE"
);
}
);
width = 1080;
},
{
anchors = (
{
name = bottom;
position = "{678, 0}";
},
{
name = cedilla;
position = "{712, 0}";
},
{
name = center;
position = "{438, 536}";
},
{
name = top;
position = "{436, 1400}";
},
{
name = topright;
position = "{574, 1630}";
}
);
layerId = "FD1CEFBD-BAB1-4C2A-A598-30E93F9A29F6";
paths = (
{
closed = 1;
nodes = (
"828 -16 OFFCURVE",
"918 6 OFFCURVE",
"1020 76 CURVE",
"954 228 LINE",
"870 160 OFFCURVE",
"804 144 OFFCURVE",
"736 144 CURVE SMOOTH",
"616 144 OFFCURVE",
"522 202 OFFCURVE",
"522 352 CURVE SMOOTH",
"522 1400 LINE",
"348 1400 LINE",
"348 334 LINE SMOOTH",
"348 108 OFFCURVE",
"496 -16 OFFCURVE",
"730 -16 CURVE SMOOTH"
);
},
{
closed = 1;
nodes = (
"958 904 LINE",
"958 1060 LINE",
"80 1060 LINE",
"80 904 LINE"
);
}
);
width = 1080;
}
);
unicode = 0074;
},
{
color = 4;
glyphname = t.ss01;
lastChange = "2021-11-24 03:35:53 +0000";
layers = (
{
anchors = (
{
name = bottom;
position = "{540, 0}";
},
{
name = cedilla;
position = "{514, 0}";
},
{
name = center;
position = "{540, 524}";
},
{
name = top;
position = "{540, 1414}";
},
{
name = topright;
position = "{630, 1540}";
}
);
layerId = "AB099EFE-E788-4EFC-8633-CF147CB782A6";
paths = (
{
closed = 1;
nodes = (
"568 0 LINE",
"568 1414 LINE",
"512 1414 LINE",
"512 0 LINE"
);
},
{
closed = 1;
nodes = (
"914 992 LINE",
"914 1048 LINE",
"166 1048 LINE",
"166 992 LINE"
);
}
);
width = 1080;
},
{
anchors = (
{
name = bottom;
position = "{538, 0}";
},
{
name = cedilla;
position = "{572, 0}";
},
{
name = center;
position = "{540, 540}";
},
{
name = top;
position = "{540, 1380}";
},
{
name = topright;
position = "{710, 1728}";
}
);
layerId = "2D8F7115-C311-411E-929D-56333CF7FFB2";
paths = (
{
closed = 1;
nodes = (
"744 0 LINE",
"744 1380 LINE",
"336 1380 LINE",
"336 0 LINE"
);
},
{
closed = 1;
nodes = (
"1006 780 LINE",
"1006 1080 LINE",
"74 1080 LINE",
"74 780 LINE"
);
}
);
width = 1080;
},
{
anchors = (
{
name = bottom;
position = "{536, 0}";
},
{
name = cedilla;
position = "{532, 0}";
},
{
name = center;
position = "{540, 532}";
},
{
name = top;
position = "{540, 1400}";
},
{
name = topright;
position = "{656, 1614}";
}
);
layerId = "FD1CEFBD-BAB1-4C2A-A598-30E93F9A29F6";
paths = (
{
closed = 1;
nodes = (
"628 0 LINE",
"628 1400 LINE",
"452 1400 LINE",
"452 0 LINE"
);
},
{
closed = 1;
nodes = (
"944 906 LINE",
"944 1060 LINE",
"136 1060 LINE",
"136 906 LINE"
);
}
);
width = 1080;
}
);
},
